<svg width="100" height="100" viewBox="0 0 100 100" fill="none" xmlns="http://www.w3.org/2000/svg">
<g opacity="0.5">
<mask id="mask0_235_303505" style="mask-type:alpha" maskUnits="userSpaceOnUse" x="47" y="7" width="46" height="46">
<path d="M86.1752 49.9162C88.3882 49.9162 90.2043 48.1156 89.9838 45.914C89.0595 36.7071 84.9808 28.1032 78.439 21.561C71.8973 15.0187 63.2951 10.9407 54.0909 10.0182C51.8859 9.79761 50.0898 11.6143 50.0898 13.8279V45.91C50.0898 46.9736 50.5122 47.9936 51.2641 48.7457C52.0159 49.4977 53.0356 49.9202 54.0989 49.9202L86.1752 49.9162Z" stroke="black" stroke-width="5" stroke-linecap="round" stroke-linejoin="round"/>
</mask>
<g mask="url(#mask0_235_303505)">
<line y1="-0.5" x2="103.93" y2="-0.5" transform="matrix(0.706999 -0.707214 0.706999 0.707214 -22.9609 51.4902)" stroke="white"/>
<line y1="-0.5" x2="103.93" y2="-0.5" transform="matrix(0.706999 -0.707214 0.706999 0.707214 20.5859 95.0449)" stroke="white"/>
<line y1="-0.5" x2="103.93" y2="-0.5" transform="matrix(0.706999 -0.707214 0.706999 0.707214 -1.1875 73.2676)" stroke="white"/>
<line y1="-0.5" x2="103.93" y2="-0.5" transform="matrix(0.706999 -0.707214 0.706999 0.707214 42.3555 116.824)" stroke="white"/>
<line y1="-0.5" x2="103.93" y2="-0.5" transform="matrix(0.706999 -0.707214 0.706999 0.707214 -12.0742 62.3789)" stroke="white"/>
<line y1="-0.5" x2="103.93" y2="-0.5" transform="matrix(0.706999 -0.707214 0.706999 0.707214 31.4688 105.936)" stroke="white"/>
<line y1="-0.5" x2="103.93" y2="-0.5" transform="matrix(0.706999 -0.707214 0.706999 0.707214 9.69531 84.1562)" stroke="white"/>
<line y1="-0.5" x2="103.93" y2="-0.5" transform="matrix(0.706999 -0.707214 0.706999 0.707214 12.418 86.8789)" stroke="white"/>
<line y1="-0.5" x2="103.93" y2="-0.5" transform="matrix(0.706999 -0.707214 0.706999 0.707214 -9.35156 65.0996)" stroke="white"/>
<line y1="-0.5" x2="103.93" y2="-0.5" transform="matrix(0.706999 -0.707214 0.706999 0.707214 34.1914 108.656)" stroke="white"/>
<line y1="-0.5" x2="103.93" y2="-0.5" transform="matrix(0.706999 -0.707214 0.706999 0.707214 -20.2344 54.2109)" stroke="white"/>
<line y1="-0.5" x2="103.93" y2="-0.5" transform="matrix(0.706999 -0.707214 0.706999 0.707214 23.3047 97.7676)" stroke="white"/>
<line y1="-0.5" x2="103.93" y2="-0.5" transform="matrix(0.706999 -0.707214 0.706999 0.707214 1.53516 75.9902)" stroke="white"/>
<line y1="-0.5" x2="103.93" y2="-0.5" transform="matrix(0.706999 -0.707214 0.706999 0.707214 45.0742 119.545)" stroke="white"/>
<line y1="-0.5" x2="103.93" y2="-0.5" transform="matrix(0.706999 -0.707214 0.706999 0.707214 -25.6836 48.7676)" stroke="white"/>
<line y1="-0.5" x2="103.93" y2="-0.5" transform="matrix(0.706999 -0.707214 0.706999 0.707214 17.8633 92.3242)" stroke="white"/>
<line y1="-0.5" x2="103.93" y2="-0.5" transform="matrix(0.706999 -0.707214 0.706999 0.707214 -3.91016 70.5449)" stroke="white"/>
<line y1="-0.5" x2="103.93" y2="-0.5" transform="matrix(0.706999 -0.707214 0.706999 0.707214 39.6328 114.102)" stroke="white"/>
<line y1="-0.5" x2="103.93" y2="-0.5" transform="matrix(0.706999 -0.707214 0.706999 0.707214 -14.793 59.6562)" stroke="white"/>
<line y1="-0.5" x2="103.93" y2="-0.5" transform="matrix(0.706999 -0.707214 0.706999 0.707214 28.75 103.213)" stroke="white"/>
<line y1="-0.5" x2="103.93" y2="-0.5" transform="matrix(0.706999 -0.707214 0.706999 0.707214 6.97656 81.4336)" stroke="white"/>
<line y1="-0.5" x2="103.93" y2="-0.5" transform="matrix(0.706999 -0.707214 0.706999 0.707214 50.5195 124.99)" stroke="white"/>
<line y1="-0.5" x2="103.93" y2="-0.5" transform="matrix(0.706999 -0.707214 0.706999 0.707214 15.1445 89.6016)" stroke="white"/>
<line y1="-0.5" x2="103.93" y2="-0.5" transform="matrix(0.706999 -0.707214 0.706999 0.707214 -6.62891 67.8223)" stroke="white"/>
<line y1="-0.5" x2="103.93" y2="-0.5" transform="matrix(0.706999 -0.707214 0.706999 0.707214 36.9102 111.379)" stroke="white"/>
<line y1="-0.5" x2="103.93" y2="-0.5" transform="matrix(0.706999 -0.707214 0.706999 0.707214 -17.5156 56.9336)" stroke="white"/>
<line y1="-0.5" x2="103.93" y2="-0.5" transform="matrix(0.706999 -0.707214 0.706999 0.707214 26.0273 100.49)" stroke="white"/>
<line y1="-0.5" x2="103.93" y2="-0.5" transform="matrix(0.706999 -0.707214 0.706999 0.707214 4.25391 78.7129)" stroke="white"/>
<line y1="-0.5" x2="103.93" y2="-0.5" transform="matrix(0.706999 -0.707214 0.706999 0.707214 47.7969 122.268)" stroke="white"/>
<line y1="-0.5" x2="103.93" y2="-0.5" transform="matrix(0.706999 -0.707214 0.706999 0.707214 -21.5977 52.8496)" stroke="white"/>
<line y1="-0.5" x2="103.93" y2="-0.5" transform="matrix(0.706999 -0.707214 0.706999 0.707214 21.9453 96.4062)" stroke="white"/>
<line y1="-0.5" x2="103.93" y2="-0.5" transform="matrix(0.706999 -0.707214 0.706999 0.707214 0.171875 74.6289)" stroke="white"/>
<line y1="-0.5" x2="103.93" y2="-0.5" transform="matrix(0.706999 -0.707214 0.706999 0.707214 43.7148 118.186)" stroke="white"/>
<line y1="-0.5" x2="103.93" y2="-0.5" transform="matrix(0.706999 -0.707214 0.706999 0.707214 -10.7109 63.7402)" stroke="white"/>
<line y1="-0.5" x2="103.93" y2="-0.5" transform="matrix(0.706999 -0.707214 0.706999 0.707214 32.832 107.295)" stroke="white"/>
<line y1="-0.5" x2="103.93" y2="-0.5" transform="matrix(0.706999 -0.707214 0.706999 0.707214 11.0586 85.5176)" stroke="white"/>
<line y1="-0.5" x2="103.93" y2="-0.5" transform="matrix(0.706999 -0.707214 0.706999 0.707214 13.7812 88.2402)" stroke="white"/>
<line y1="-0.5" x2="103.93" y2="-0.5" transform="matrix(0.706999 -0.707214 0.706999 0.707214 -7.99219 66.4609)" stroke="white"/>
<line y1="-0.5" x2="103.93" y2="-0.5" transform="matrix(0.706999 -0.707214 0.706999 0.707214 35.5508 110.018)" stroke="white"/>
<line y1="-0.5" x2="103.93" y2="-0.5" transform="matrix(0.706999 -0.707214 0.706999 0.707214 -18.875 55.5723)" stroke="white"/>
<line y1="-0.5" x2="103.93" y2="-0.5" transform="matrix(0.706999 -0.707214 0.706999 0.707214 24.668 99.1289)" stroke="white"/>
<line y1="-0.5" x2="103.93" y2="-0.5" transform="matrix(0.706999 -0.707214 0.706999 0.707214 2.89453 77.3516)" stroke="white"/>
<line y1="-0.5" x2="103.93" y2="-0.5" transform="matrix(0.706999 -0.707214 0.706999 0.707214 46.4375 120.906)" stroke="white"/>
<line y1="-0.5" x2="103.93" y2="-0.5" transform="matrix(0.706999 -0.707214 0.706999 0.707214 -24.3203 50.1289)" stroke="white"/>
<line y1="-0.5" x2="103.93" y2="-0.5" transform="matrix(0.706999 -0.707214 0.706999 0.707214 19.2227 93.6836)" stroke="white"/>
<line y1="-0.5" x2="103.93" y2="-0.5" transform="matrix(0.706999 -0.707214 0.706999 0.707214 -2.54688 71.9062)" stroke="white"/>
<line y1="-0.5" x2="103.93" y2="-0.5" transform="matrix(0.706999 -0.707214 0.706999 0.707214 40.9922 115.463)" stroke="white"/>
<line y1="-0.5" x2="103.93" y2="-0.5" transform="matrix(0.706999 -0.707214 0.706999 0.707214 -13.4336 61.0176)" stroke="white"/>
<line y1="-0.5" x2="103.93" y2="-0.5" transform="matrix(0.706999 -0.707214 0.706999 0.707214 30.1094 104.574)" stroke="white"/>
<line y1="-0.5" x2="103.93" y2="-0.5" transform="matrix(0.706999 -0.707214 0.706999 0.707214 8.33594 82.7949)" stroke="white"/>
<line y1="-0.5" x2="103.93" y2="-0.5" transform="matrix(0.706999 -0.707214 0.706999 0.707214 51.8828 126.352)" stroke="white"/>
<line y1="-0.5" x2="103.93" y2="-0.5" transform="matrix(0.706999 -0.707214 0.706999 0.707214 16.5039 90.9629)" stroke="white"/>
<line y1="-0.5" x2="103.93" y2="-0.5" transform="matrix(0.706999 -0.707214 0.706999 0.707214 -5.26953 69.1836)" stroke="white"/>
<line y1="-0.5" x2="103.93" y2="-0.5" transform="matrix(0.706999 -0.707214 0.706999 0.707214 38.2734 112.74)" stroke="white"/>
<line y1="-0.5" x2="103.93" y2="-0.5" transform="matrix(0.706999 -0.707214 0.706999 0.707214 -16.1523 58.2949)" stroke="white"/>
<line y1="-0.5" x2="103.93" y2="-0.5" transform="matrix(0.706999 -0.707214 0.706999 0.707214 27.3867 101.852)" stroke="white"/>
<line y1="-0.5" x2="103.93" y2="-0.5" transform="matrix(0.706999 -0.707214 0.706999 0.707214 5.61328 80.0723)" stroke="white"/>
<line y1="-0.5" x2="103.93" y2="-0.5" transform="matrix(0.706999 -0.707214 0.706999 0.707214 49.1602 123.629)" stroke="white"/>
</g>
<mask id="mask1_235_303505" style="mask-type:alpha" maskUnits="userSpaceOnUse" x="7" y="10" width="83" height="83">
<path d="M87.0153 65.5165C84.4648 71.5499 80.4756 76.8664 75.3966 81.0013C70.3175 85.1363 64.3031 87.9637 57.8793 89.2363C51.4555 90.509 44.8178 90.1882 38.5466 88.302C32.2753 86.4158 26.5615 83.0216 21.9045 78.4162C17.2476 73.8107 13.7894 68.1342 11.8323 61.883C9.87515 55.6318 9.47868 48.9962 10.6775 42.5563C11.8764 36.1165 14.634 30.0684 18.7094 24.9409C22.7848 19.8134 28.0538 15.7625 34.0559 13.1426" stroke="black" stroke-width="5" stroke-linecap="round" stroke-linejoin="round"/>
</mask>
<g mask="url(#mask1_235_303505)">
<line y1="-0.5" x2="103.93" y2="-0.5" transform="matrix(0.706999 -0.707214 0.706999 0.707214 -22.9648 51.4902)" stroke="white"/>
<line y1="-0.5" x2="103.93" y2="-0.5" transform="matrix(0.706999 -0.707214 0.706999 0.707214 64.125 138.602)" stroke="white"/>
<line y1="-0.5" x2="103.93" y2="-0.5" transform="matrix(0.706999 -0.707214 0.706999 0.707214 20.582 95.0449)" stroke="white"/>
<line y1="-0.5" x2="103.93" y2="-0.5" transform="matrix(0.706999 -0.707214 0.706999 0.707214 -1.19141 73.2676)" stroke="white"/>
<line y1="-0.5" x2="103.93" y2="-0.5" transform="matrix(0.706999 -0.707214 0.706999 0.707214 85.8945 160.379)" stroke="white"/>
<line y1="-0.5" x2="103.93" y2="-0.5" transform="matrix(0.706999 -0.707214 0.706999 0.707214 -44.7344 29.7109)" stroke="white"/>
<line y1="-0.5" x2="103.93" y2="-0.5" transform="matrix(0.706999 -0.707214 0.706999 0.707214 42.3516 116.824)" stroke="white"/>
<line y1="-0.5" x2="103.93" y2="-0.5" transform="matrix(0.706999 -0.707214 0.706999 0.707214 -12.0781 62.3789)" stroke="white"/>
<line y1="-0.5" x2="103.93" y2="-0.5" transform="matrix(0.706999 -0.707214 0.706999 0.707214 75.0078 149.49)" stroke="white"/>
<line y1="-0.5" x2="103.93" y2="-0.5" transform="matrix(0.706999 -0.707214 0.706999 0.707214 -55.6172 18.8223)" stroke="white"/>
<line y1="-0.5" x2="103.93" y2="-0.5" transform="matrix(0.706999 -0.707214 0.706999 0.707214 31.4648 105.936)" stroke="white"/>
<line y1="-0.5" x2="103.93" y2="-0.5" transform="matrix(0.706999 -0.707214 0.706999 0.707214 9.69141 84.1562)" stroke="white"/>
<line y1="-0.5" x2="103.93" y2="-0.5" transform="matrix(0.706999 -0.707214 0.706999 0.707214 -33.8477 40.5996)" stroke="white"/>
<line y1="-0.5" x2="103.93" y2="-0.5" transform="matrix(0.706999 -0.707214 0.706999 0.707214 53.2383 127.713)" stroke="white"/>
<line y1="-0.5" x2="103.93" y2="-0.5" transform="matrix(0.706999 -0.707214 0.706999 0.707214 -31.1289 43.3223)" stroke="white"/>
<line y1="-0.5" x2="103.93" y2="-0.5" transform="matrix(0.706999 -0.707214 0.706999 0.707214 55.9609 130.436)" stroke="white"/>
<line y1="-0.5" x2="103.93" y2="-0.5" transform="matrix(0.706999 -0.707214 0.706999 0.707214 12.4141 86.8789)" stroke="white"/>
<line y1="-0.5" x2="103.93" y2="-0.5" transform="matrix(0.706999 -0.707214 0.706999 0.707214 -9.35547 65.0996)" stroke="white"/>
<line y1="-0.5" x2="103.93" y2="-0.5" transform="matrix(0.706999 -0.707214 0.706999 0.707214 77.7305 152.213)" stroke="white"/>
<line y1="-0.5" x2="103.93" y2="-0.5" transform="matrix(0.706999 -0.707214 0.706999 0.707214 -52.8984 21.5449)" stroke="white"/>
<line y1="-0.5" x2="103.93" y2="-0.5" transform="matrix(0.706999 -0.707214 0.706999 0.707214 34.1875 108.656)" stroke="white"/>
<line y1="-0.5" x2="103.93" y2="-0.5" transform="matrix(0.706999 -0.707214 0.706999 0.707214 -20.2383 54.2109)" stroke="white"/>
<line y1="-0.5" x2="103.93" y2="-0.5" transform="matrix(0.706999 -0.707214 0.706999 0.707214 66.8438 141.324)" stroke="white"/>
<line y1="-0.5" x2="103.93" y2="-0.5" transform="matrix(0.706999 -0.707214 0.706999 0.707214 -63.7852 10.6562)" stroke="white"/>
<line y1="-0.5" x2="103.93" y2="-0.5" transform="matrix(0.706999 -0.707214 0.706999 0.707214 23.3008 97.7676)" stroke="white"/>
<line y1="-0.5" x2="103.93" y2="-0.5" transform="matrix(0.706999 -0.707214 0.706999 0.707214 1.53125 75.9902)" stroke="white"/>
<line y1="-0.5" x2="103.93" y2="-0.5" transform="matrix(0.706999 -0.707214 0.706999 0.707214 88.6172 163.102)" stroke="white"/>
<line y1="-0.5" x2="103.93" y2="-0.5" transform="matrix(0.706999 -0.707214 0.706999 0.707214 -42.0117 32.4336)" stroke="white"/>
<line y1="-0.5" x2="103.93" y2="-0.5" transform="matrix(0.706999 -0.707214 0.706999 0.707214 45.0703 119.545)" stroke="white"/>
<line y1="-0.5" x2="103.93" y2="-0.5" transform="matrix(0.706999 -0.707214 0.706999 0.707214 -25.6875 48.7676)" stroke="white"/>
<line y1="-0.5" x2="103.93" y2="-0.5" transform="matrix(0.706999 -0.707214 0.706999 0.707214 61.4023 135.879)" stroke="white"/>
<line y1="-0.5" x2="103.93" y2="-0.5" transform="matrix(0.706999 -0.707214 0.706999 0.707214 17.8594 92.3242)" stroke="white"/>
<line y1="-0.5" x2="103.93" y2="-0.5" transform="matrix(0.706999 -0.707214 0.706999 0.707214 -3.91406 70.5449)" stroke="white"/>
<line y1="-0.5" x2="103.93" y2="-0.5" transform="matrix(0.706999 -0.707214 0.706999 0.707214 83.1719 157.658)" stroke="white"/>
<line y1="-0.5" x2="103.93" y2="-0.5" transform="matrix(0.706999 -0.707214 0.706999 0.707214 -47.4531 26.9883)" stroke="white"/>
<line y1="-0.5" x2="103.93" y2="-0.5" transform="matrix(0.706999 -0.707214 0.706999 0.707214 39.6289 114.102)" stroke="white"/>
<line y1="-0.5" x2="103.93" y2="-0.5" transform="matrix(0.706999 -0.707214 0.706999 0.707214 -14.7969 59.6562)" stroke="white"/>
<line y1="-0.5" x2="103.93" y2="-0.5" transform="matrix(0.706999 -0.707214 0.706999 0.707214 72.2852 146.768)" stroke="white"/>
<line y1="-0.5" x2="103.93" y2="-0.5" transform="matrix(0.706999 -0.707214 0.706999 0.707214 -58.3438 16.0996)" stroke="white"/>
<line y1="-0.5" x2="103.93" y2="-0.5" transform="matrix(0.706999 -0.707214 0.706999 0.707214 28.7461 103.213)" stroke="white"/>
<line y1="-0.5" x2="103.93" y2="-0.5" transform="matrix(0.706999 -0.707214 0.706999 0.707214 6.97266 81.4336)" stroke="white"/>
<line y1="-0.5" x2="103.93" y2="-0.5" transform="matrix(0.706999 -0.707214 0.706999 0.707214 -36.5703 37.8789)" stroke="white"/>
<line y1="-0.5" x2="103.93" y2="-0.5" transform="matrix(0.706999 -0.707214 0.706999 0.707214 50.5156 124.99)" stroke="white"/>
<line y1="-0.5" x2="103.93" y2="-0.5" transform="matrix(0.706999 -0.707214 0.706999 0.707214 -28.4062 46.0449)" stroke="white"/>
<line y1="-0.5" x2="103.93" y2="-0.5" transform="matrix(0.706999 -0.707214 0.706999 0.707214 58.6797 133.156)" stroke="white"/>
<line y1="-0.5" x2="103.93" y2="-0.5" transform="matrix(0.706999 -0.707214 0.706999 0.707214 15.1406 89.6016)" stroke="white"/>
<line y1="-0.5" x2="103.93" y2="-0.5" transform="matrix(0.706999 -0.707214 0.706999 0.707214 -6.63281 67.8223)" stroke="white"/>
<line y1="-0.5" x2="103.93" y2="-0.5" transform="matrix(0.706999 -0.707214 0.706999 0.707214 80.4492 154.936)" stroke="white"/>
<line y1="-0.5" x2="103.93" y2="-0.5" transform="matrix(0.706999 -0.707214 0.706999 0.707214 -50.1758 24.2676)" stroke="white"/>
<line y1="-0.5" x2="103.93" y2="-0.5" transform="matrix(0.706999 -0.707214 0.706999 0.707214 36.9062 111.379)" stroke="white"/>
<line y1="-0.5" x2="103.93" y2="-0.5" transform="matrix(0.706999 -0.707214 0.706999 0.707214 -17.5195 56.9336)" stroke="white"/>
<line y1="-0.5" x2="103.93" y2="-0.5" transform="matrix(0.706999 -0.707214 0.706999 0.707214 69.5664 144.047)" stroke="white"/>
<line y1="-0.5" x2="103.93" y2="-0.5" transform="matrix(0.706999 -0.707214 0.706999 0.707214 -61.0625 13.377)" stroke="white"/>
<line y1="-0.5" x2="103.93" y2="-0.5" transform="matrix(0.706999 -0.707214 0.706999 0.707214 26.0234 100.49)" stroke="white"/>
<line y1="-0.5" x2="103.93" y2="-0.5" transform="matrix(0.706999 -0.707214 0.706999 0.707214 4.25 78.7129)" stroke="white"/>
<line y1="-0.5" x2="103.93" y2="-0.5" transform="matrix(0.706999 -0.707214 0.706999 0.707214 -39.293 35.1562)" stroke="white"/>
<line y1="-0.5" x2="103.93" y2="-0.5" transform="matrix(0.706999 -0.707214 0.706999 0.707214 47.793 122.268)" stroke="white"/>
<line y1="-0.5" x2="103.93" y2="-0.5" transform="matrix(0.706999 -0.707214 0.706999 0.707214 -21.6016 52.8496)" stroke="white"/>
<line y1="-0.5" x2="103.93" y2="-0.5" transform="matrix(0.706999 -0.707214 0.706999 0.707214 65.4844 139.963)" stroke="white"/>
<line y1="-0.5" x2="103.93" y2="-0.5" transform="matrix(0.706999 -0.707214 0.706999 0.707214 21.9414 96.4062)" stroke="white"/>
<line y1="-0.5" x2="103.93" y2="-0.5" transform="matrix(0.706999 -0.707214 0.706999 0.707214 0.167969 74.6289)" stroke="white"/>
<line y1="-0.5" x2="103.93" y2="-0.5" transform="matrix(0.706999 -0.707214 0.706999 0.707214 87.2578 161.74)" stroke="white"/>
<line y1="-0.5" x2="103.93" y2="-0.5" transform="matrix(0.706999 -0.707214 0.706999 0.707214 -43.375 31.0723)" stroke="white"/>
<line y1="-0.5" x2="103.93" y2="-0.5" transform="matrix(0.706999 -0.707214 0.706999 0.707214 43.7109 118.186)" stroke="white"/>
<line y1="-0.5" x2="103.93" y2="-0.5" transform="matrix(0.706999 -0.707214 0.706999 0.707214 -10.7148 63.7402)" stroke="white"/>
<line y1="-0.5" x2="103.93" y2="-0.5" transform="matrix(0.706999 -0.707214 0.706999 0.707214 76.3672 150.852)" stroke="white"/>
<line y1="-0.5" x2="103.93" y2="-0.5" transform="matrix(0.706999 -0.707214 0.706999 0.707214 -54.2578 20.1836)" stroke="white"/>
<line y1="-0.5" x2="103.93" y2="-0.5" transform="matrix(0.706999 -0.707214 0.706999 0.707214 32.8281 107.295)" stroke="white"/>
<line y1="-0.5" x2="103.93" y2="-0.5" transform="matrix(0.706999 -0.707214 0.706999 0.707214 11.0547 85.5176)" stroke="white"/>
<line y1="-0.5" x2="103.93" y2="-0.5" transform="matrix(0.706999 -0.707214 0.706999 0.707214 -32.4883 41.9609)" stroke="white"/>
<line y1="-0.5" x2="103.93" y2="-0.5" transform="matrix(0.706999 -0.707214 0.706999 0.707214 54.5977 129.074)" stroke="white"/>
<line y1="-0.5" x2="103.93" y2="-0.5" transform="matrix(0.706999 -0.707214 0.706999 0.707214 -29.7656 44.6836)" stroke="white"/>
<line y1="-0.5" x2="103.93" y2="-0.5" transform="matrix(0.706999 -0.707214 0.706999 0.707214 57.3203 131.795)" stroke="white"/>
<line y1="-0.5" x2="103.93" y2="-0.5" transform="matrix(0.706999 -0.707214 0.706999 0.707214 13.7773 88.2402)" stroke="white"/>
<line y1="-0.5" x2="103.93" y2="-0.5" transform="matrix(0.706999 -0.707214 0.706999 0.707214 -7.99609 66.4609)" stroke="white"/>
<line y1="-0.5" x2="103.93" y2="-0.5" transform="matrix(0.706999 -0.707214 0.706999 0.707214 79.0898 153.574)" stroke="white"/>
<line y1="-0.5" x2="103.93" y2="-0.5" transform="matrix(0.706999 -0.707214 0.706999 0.707214 -51.5352 22.9062)" stroke="white"/>
<line y1="-0.5" x2="103.93" y2="-0.5" transform="matrix(0.706999 -0.707214 0.706999 0.707214 35.5469 110.018)" stroke="white"/>
<line y1="-0.5" x2="103.93" y2="-0.5" transform="matrix(0.706999 -0.707214 0.706999 0.707214 -18.8789 55.5723)" stroke="white"/>
<line y1="-0.5" x2="103.93" y2="-0.5" transform="matrix(0.706999 -0.707214 0.706999 0.707214 68.2031 142.686)" stroke="white"/>
<line y1="-0.5" x2="103.93" y2="-0.5" transform="matrix(0.706999 -0.707214 0.706999 0.707214 -62.4258 12.0176)" stroke="white"/>
<line y1="-0.5" x2="103.93" y2="-0.5" transform="matrix(0.706999 -0.707214 0.706999 0.707214 24.6641 99.1289)" stroke="white"/>
<line y1="-0.5" x2="103.93" y2="-0.5" transform="matrix(0.706999 -0.707214 0.706999 0.707214 2.89062 77.3516)" stroke="white"/>
<line y1="-0.5" x2="103.93" y2="-0.5" transform="matrix(0.706999 -0.707214 0.706999 0.707214 89.9766 164.463)" stroke="white"/>
<line y1="-0.5" x2="103.93" y2="-0.5" transform="matrix(0.706999 -0.707214 0.706999 0.707214 -40.6523 33.7949)" stroke="white"/>
<line y1="-0.5" x2="103.93" y2="-0.5" transform="matrix(0.706999 -0.707214 0.706999 0.707214 46.4336 120.906)" stroke="white"/>
<line y1="-0.5" x2="103.93" y2="-0.5" transform="matrix(0.706999 -0.707214 0.706999 0.707214 -24.3242 50.1289)" stroke="white"/>
<line y1="-0.5" x2="103.93" y2="-0.5" transform="matrix(0.706999 -0.707214 0.706999 0.707214 62.7617 137.24)" stroke="white"/>
<line y1="-0.5" x2="103.93" y2="-0.5" transform="matrix(0.706999 -0.707214 0.706999 0.707214 19.2188 93.6836)" stroke="white"/>
<line y1="-0.5" x2="103.93" y2="-0.5" transform="matrix(0.706999 -0.707214 0.706999 0.707214 -2.55078 71.9062)" stroke="white"/>
<line y1="-0.5" x2="103.93" y2="-0.5" transform="matrix(0.706999 -0.707214 0.706999 0.707214 84.5352 159.018)" stroke="white"/>
<line y1="-0.5" x2="103.93" y2="-0.5" transform="matrix(0.706999 -0.707214 0.706999 0.707214 -46.0938 28.3496)" stroke="white"/>
<line y1="-0.5" x2="103.93" y2="-0.5" transform="matrix(0.706999 -0.707214 0.706999 0.707214 40.9883 115.463)" stroke="white"/>
<line y1="-0.5" x2="103.93" y2="-0.5" transform="matrix(0.706999 -0.707214 0.706999 0.707214 -13.4375 61.0176)" stroke="white"/>
<line y1="-0.5" x2="103.93" y2="-0.5" transform="matrix(0.706999 -0.707214 0.706999 0.707214 73.6484 148.129)" stroke="white"/>
<line y1="-0.5" x2="103.93" y2="-0.5" transform="matrix(0.706999 -0.707214 0.706999 0.707214 -56.9805 17.4609)" stroke="white"/>
<line y1="-0.5" x2="103.93" y2="-0.5" transform="matrix(0.706999 -0.707214 0.706999 0.707214 30.1055 104.574)" stroke="white"/>
<line y1="-0.5" x2="103.93" y2="-0.5" transform="matrix(0.706999 -0.707214 0.706999 0.707214 8.33203 82.7949)" stroke="white"/>
<line y1="-0.5" x2="103.93" y2="-0.5" transform="matrix(0.706999 -0.707214 0.706999 0.707214 -35.2109 39.2402)" stroke="white"/>
<line y1="-0.5" x2="103.93" y2="-0.5" transform="matrix(0.706999 -0.707214 0.706999 0.707214 51.8789 126.352)" stroke="white"/>
<line y1="-0.5" x2="103.93" y2="-0.5" transform="matrix(0.706999 -0.707214 0.706999 0.707214 -27.0469 47.4062)" stroke="white"/>
<line y1="-0.5" x2="103.93" y2="-0.5" transform="matrix(0.706999 -0.707214 0.706999 0.707214 60.043 134.518)" stroke="white"/>
<line y1="-0.5" x2="103.93" y2="-0.5" transform="matrix(0.706999 -0.707214 0.706999 0.707214 16.5 90.9629)" stroke="white"/>
<line y1="-0.5" x2="103.93" y2="-0.5" transform="matrix(0.706999 -0.707214 0.706999 0.707214 -5.27344 69.1836)" stroke="white"/>
<line y1="-0.5" x2="103.93" y2="-0.5" transform="matrix(0.706999 -0.707214 0.706999 0.707214 81.8086 156.297)" stroke="white"/>
<line y1="-0.5" x2="103.93" y2="-0.5" transform="matrix(0.706999 -0.707214 0.706999 0.707214 -48.8164 25.6289)" stroke="white"/>
<line y1="-0.5" x2="103.93" y2="-0.5" transform="matrix(0.706999 -0.707214 0.706999 0.707214 38.2695 112.74)" stroke="white"/>
<line y1="-0.5" x2="103.93" y2="-0.5" transform="matrix(0.706999 -0.707214 0.706999 0.707214 -16.1562 58.2949)" stroke="white"/>
<line y1="-0.5" x2="103.93" y2="-0.5" transform="matrix(0.706999 -0.707214 0.706999 0.707214 70.9258 145.406)" stroke="white"/>
<line y1="-0.5" x2="103.93" y2="-0.5" transform="matrix(0.706999 -0.707214 0.706999 0.707214 -59.7031 14.7383)" stroke="white"/>
<line y1="-0.5" x2="103.93" y2="-0.5" transform="matrix(0.706999 -0.707214 0.706999 0.707214 27.3828 101.852)" stroke="white"/>
<line y1="-0.5" x2="103.93" y2="-0.5" transform="matrix(0.706999 -0.707214 0.706999 0.707214 5.60938 80.0723)" stroke="white"/>
<line y1="-0.5" x2="103.93" y2="-0.5" transform="matrix(0.706999 -0.707214 0.706999 0.707214 -37.9297 36.5176)" stroke="white"/>
<line y1="-0.5" x2="103.93" y2="-0.5" transform="matrix(0.706999 -0.707214 0.706999 0.707214 49.1562 123.629)" stroke="white"/>
</g>
</g>
</svg>
