<svg width="100" height="100" viewBox="0 0 100 100" fill="none" xmlns="http://www.w3.org/2000/svg">
<g opacity="0.5">
<mask id="mask0_235_300268" style="mask-type:alpha" maskUnits="userSpaceOnUse" x="20" y="7" width="60" height="60">
<path d="M63.5134 64.0541C64.4143 59.5496 66.6666 56.3964 70.2702 52.7928C74.7747 48.7387 77.027 42.8829 77.027 37.027C77.027 29.859 74.1795 22.9846 69.1109 17.916C64.0424 12.8475 57.1679 10 49.9999 10C42.8319 10 35.9575 12.8475 30.8889 17.916C25.8204 22.9846 22.9729 29.859 22.9729 37.027C22.9729 41.5315 23.8738 46.9369 29.7297 52.7928C32.8828 55.9459 35.5855 59.5496 36.4864 64.0541" stroke="white" stroke-width="5" stroke-linecap="round" stroke-linejoin="round"/>
</mask>
<g mask="url(#mask0_235_300268)">
<line x1="34.2302" y1="122.195" x2="116.79" y2="39.6354" stroke="white"/>
<line x1="-14.6951" y1="73.2696" x2="67.8644" y2="-9.28988" stroke="white"/>
<line x1="58.6919" y1="146.656" x2="141.251" y2="64.097" stroke="white"/>
<line x1="9.76852" y1="97.7334" x2="92.328" y2="15.1739" stroke="white"/>
<line x1="46.4621" y1="134.427" x2="129.022" y2="51.8672" stroke="white"/>
<line x1="-2.46317" y1="85.5014" x2="80.0963" y2="2.94193" stroke="white"/>
<line x1="21.9983" y1="109.963" x2="104.558" y2="27.4036" stroke="white"/>
<line x1="25.0559" y1="113.02" x2="107.615" y2="30.461" stroke="white"/>
<line x1="-23.8672" y1="64.0975" x2="58.6923" y2="-18.462" stroke="white"/>
<line x1="49.5195" y1="137.484" x2="132.079" y2="54.9247" stroke="white"/>
<line x1="0.594201" y1="88.5589" x2="83.1537" y2="5.99943" stroke="white"/>
<line x1="37.2876" y1="125.252" x2="119.847" y2="42.6928" stroke="white"/>
<line x1="-11.6355" y1="76.3292" x2="70.924" y2="-6.23031" stroke="white"/>
<line x1="12.8261" y1="100.791" x2="95.3856" y2="18.2312" stroke="white"/>
<line x1="31.1728" y1="119.137" x2="113.732" y2="36.5779" stroke="white"/>
<line x1="-17.7525" y1="70.2122" x2="64.807" y2="-12.3473" stroke="white"/>
<line x1="55.6342" y1="143.599" x2="138.194" y2="61.0396" stroke="white"/>
<line x1="6.71114" y1="94.6759" x2="89.2706" y2="12.1164" stroke="white"/>
<line x1="43.4026" y1="131.367" x2="125.962" y2="48.8077" stroke="white"/>
<line x1="-5.52079" y1="82.4441" x2="77.0387" y2="-0.115441" stroke="white"/>
<line x1="18.9409" y1="106.906" x2="101.5" y2="24.3461" stroke="white"/>
<line x1="28.1152" y1="116.08" x2="110.675" y2="33.5205" stroke="white"/>
<line x1="-20.8099" y1="67.1547" x2="61.7496" y2="-15.4047" stroke="white"/>
<line x1="52.5769" y1="140.542" x2="135.136" y2="57.9821" stroke="white"/>
<line x1="3.65157" y1="91.6163" x2="86.2111" y2="9.0568" stroke="white"/>
<line x1="40.3449" y1="128.31" x2="122.904" y2="45.7503" stroke="white"/>
<line x1="-8.57816" y1="79.3866" x2="73.9813" y2="-3.17294" stroke="white"/>
<line x1="15.8835" y1="103.848" x2="98.443" y2="21.2887" stroke="white"/>
<line x1="35.759" y1="123.724" x2="118.318" y2="41.1641" stroke="white"/>
<line x1="-13.1643" y1="74.8005" x2="69.3951" y2="-7.759" stroke="white"/>
<line x1="60.2204" y1="148.185" x2="142.78" y2="65.6256" stroke="white"/>
<line x1="11.2973" y1="99.262" x2="93.8568" y2="16.7026" stroke="white"/>
<line x1="47.9907" y1="135.955" x2="130.55" y2="53.3959" stroke="white"/>
<line x1="-0.934608" y1="87.0302" x2="81.6249" y2="4.47074" stroke="white"/>
<line x1="23.5271" y1="111.492" x2="106.087" y2="28.9323" stroke="white"/>
<line x1="26.5866" y1="114.551" x2="109.146" y2="31.9919" stroke="white"/>
<line x1="-22.3387" y1="65.6261" x2="60.2208" y2="-16.9334" stroke="white"/>
<line x1="51.0481" y1="139.013" x2="133.608" y2="56.4534" stroke="white"/>
<line x1="2.12301" y1="90.0876" x2="84.6825" y2="7.52811" stroke="white"/>
<line x1="38.8164" y1="126.781" x2="121.376" y2="44.2216" stroke="white"/>
<line x1="-10.1067" y1="77.8579" x2="72.4528" y2="-4.70162" stroke="white"/>
<line x1="14.3547" y1="102.319" x2="96.9142" y2="19.7599" stroke="white"/>
<line x1="32.7014" y1="120.666" x2="115.261" y2="38.1067" stroke="white"/>
<line x1="-16.2239" y1="71.7409" x2="66.3356" y2="-10.8186" stroke="white"/>
<line x1="57.163" y1="145.128" x2="139.723" y2="62.5683" stroke="white"/>
<line x1="8.23995" y1="96.2046" x2="90.7994" y2="13.6451" stroke="white"/>
<line x1="44.9311" y1="132.896" x2="127.491" y2="50.3365" stroke="white"/>
<line x1="-3.99198" y1="83.9727" x2="78.5675" y2="1.41325" stroke="white"/>
<line x1="20.4697" y1="108.434" x2="103.029" y2="25.8748" stroke="white"/>
<line x1="29.644" y1="117.609" x2="112.203" y2="35.0492" stroke="white"/>
<line x1="-19.2813" y1="68.6834" x2="63.2782" y2="-13.8761" stroke="white"/>
<line x1="54.1057" y1="142.07" x2="136.665" y2="59.5108" stroke="white"/>
<line x1="5.18038" y1="93.1451" x2="87.7399" y2="10.5856" stroke="white"/>
<line x1="41.8737" y1="129.838" x2="124.433" y2="47.279" stroke="white"/>
<line x1="-7.04935" y1="80.9154" x2="75.5101" y2="-1.64413" stroke="white"/>
<line x1="17.4121" y1="105.377" x2="99.9716" y2="22.8174" stroke="white"/>
</g>
<mask id="mask1_235_300268" style="mask-type:alpha" maskUnits="userSpaceOnUse" x="33" y="74" width="34" height="6">
<path d="M36.4863 77.0267H63.5134" stroke="white" stroke-width="5" stroke-linecap="round" stroke-linejoin="round"/>
</mask>
<g mask="url(#mask1_235_300268)">
<line x1="29.9057" y1="115.708" x2="112.465" y2="33.1484" stroke="white"/>
<line x1="54.3671" y1="140.169" x2="136.927" y2="57.6099" stroke="white"/>
<line x1="5.44405" y1="91.2463" x2="88.0035" y2="8.6868" stroke="white"/>
<line x1="42.1374" y1="127.94" x2="124.697" y2="45.3802" stroke="white"/>
<line x1="-6.78788" y1="79.0145" x2="75.7716" y2="-3.54501" stroke="white"/>
<line x1="17.6738" y1="103.476" x2="100.233" y2="20.9165" stroke="white"/>
<line x1="20.7312" y1="106.533" x2="103.291" y2="23.9739" stroke="white"/>
<line x1="45.1948" y1="130.997" x2="127.754" y2="48.4377" stroke="white"/>
<line x1="-3.73026" y1="82.0719" x2="78.8292" y2="-0.487633" stroke="white"/>
<line x1="32.9631" y1="118.765" x2="115.523" y2="36.2058" stroke="white"/>
<line x1="57.4245" y1="143.227" x2="139.984" y2="60.6674" stroke="white"/>
<line x1="8.50143" y1="94.3037" x2="91.0609" y2="11.7442" stroke="white"/>
<line x1="26.8481" y1="112.65" x2="109.408" y2="30.091" stroke="white"/>
<line x1="51.3098" y1="137.112" x2="133.869" y2="54.5525" stroke="white"/>
<line x1="2.38668" y1="88.1888" x2="84.9462" y2="5.62931" stroke="white"/>
<line x1="39.0778" y1="124.88" x2="121.637" y2="42.3207" stroke="white"/>
<line x1="-9.84525" y1="75.957" x2="72.7142" y2="-6.6025" stroke="white"/>
<line x1="63.5417" y1="149.344" x2="146.101" y2="66.7843" stroke="white"/>
<line x1="14.6164" y1="100.419" x2="97.1759" y2="17.859" stroke="white"/>
<line x1="23.7907" y1="109.593" x2="106.35" y2="27.0335" stroke="white"/>
<line x1="48.2524" y1="134.055" x2="130.812" y2="51.495" stroke="white"/>
<line x1="-0.672889" y1="85.1294" x2="81.8866" y2="2.56986" stroke="white"/>
<line x1="36.0205" y1="121.823" x2="118.58" y2="39.2632" stroke="white"/>
<line x1="60.4821" y1="146.284" x2="143.042" y2="63.7248" stroke="white"/>
<line x1="11.5588" y1="97.3612" x2="94.1183" y2="14.8017" stroke="white"/>
<line x1="31.4343" y1="117.237" x2="113.994" y2="34.677" stroke="white"/>
<line x1="55.896" y1="141.698" x2="138.455" y2="59.1387" stroke="white"/>
<line x1="6.97286" y1="92.775" x2="89.5324" y2="10.2155" stroke="white"/>
<line x1="43.6662" y1="129.468" x2="126.226" y2="46.909" stroke="white"/>
<line x1="-5.25907" y1="80.5432" x2="77.3004" y2="-2.01632" stroke="white"/>
<line x1="19.2026" y1="105.005" x2="101.762" y2="22.4452" stroke="white"/>
<line x1="22.2619" y1="108.064" x2="104.821" y2="25.5048" stroke="white"/>
<line x1="46.7236" y1="132.526" x2="129.283" y2="49.9663" stroke="white"/>
<line x1="-2.2017" y1="83.6005" x2="80.3578" y2="1.04105" stroke="white"/>
<line x1="34.4917" y1="120.294" x2="117.051" y2="37.7345" stroke="white"/>
<line x1="58.9533" y1="144.756" x2="141.513" y2="62.1961" stroke="white"/>
<line x1="10.0302" y1="95.8325" x2="92.5897" y2="13.273" stroke="white"/>
<line x1="28.3769" y1="114.179" x2="110.936" y2="31.6197" stroke="white"/>
<line x1="52.8386" y1="138.641" x2="135.398" y2="56.0812" stroke="white"/>
<line x1="3.91525" y1="89.7176" x2="86.4747" y2="7.15812" stroke="white"/>
<line x1="40.6067" y1="126.409" x2="123.166" y2="43.8494" stroke="white"/>
<line x1="-8.31644" y1="77.4857" x2="74.243" y2="-5.07381" stroke="white"/>
<line x1="65.0703" y1="150.873" x2="147.63" y2="68.313" stroke="white"/>
<line x1="16.145" y1="101.947" x2="98.7045" y2="19.3879" stroke="white"/>
<line x1="25.3195" y1="111.122" x2="107.879" y2="28.5622" stroke="white"/>
<line x1="49.781" y1="135.583" x2="132.34" y2="53.0238" stroke="white"/>
<line x1="0.855675" y1="86.658" x2="83.4152" y2="4.09855" stroke="white"/>
<line x1="37.5493" y1="123.351" x2="120.109" y2="40.7919" stroke="white"/>
<line x1="-11.3741" y1="74.4283" x2="71.1854" y2="-8.13119" stroke="white"/>
<line x1="62.0129" y1="147.815" x2="144.572" y2="65.2557" stroke="white"/>
<line x1="13.0876" y1="98.8899" x2="95.6471" y2="16.3304" stroke="white"/>
</g>
<mask id="mask2_235_300268" style="mask-type:alpha" maskUnits="userSpaceOnUse" x="38" y="87" width="24" height="6">
<path d="M40.99 90H59.008" stroke="white" stroke-width="5" stroke-linecap="round" stroke-linejoin="round"/>
</mask>
<g mask="url(#mask2_235_300268)">
<line x1="23.4167" y1="144.897" x2="105.976" y2="62.3376" stroke="white"/>
<line x1="-25.5086" y1="95.9718" x2="57.0509" y2="13.4123" stroke="white"/>
<line x1="47.8781" y1="169.359" x2="130.438" y2="86.7991" stroke="white"/>
<line x1="-1.04496" y1="120.436" x2="81.5145" y2="37.876" stroke="white"/>
<line x1="35.6484" y1="157.129" x2="118.208" y2="74.5694" stroke="white"/>
<line x1="-13.2769" y1="108.204" x2="69.2826" y2="25.6442" stroke="white"/>
<line x1="11.1848" y1="132.665" x2="93.7443" y2="50.1058" stroke="white"/>
<line x1="14.2421" y1="135.723" x2="96.8016" y2="53.1631" stroke="white"/>
<line x1="38.7058" y1="160.186" x2="121.265" y2="77.6269" stroke="white"/>
<line x1="-10.2193" y1="111.261" x2="72.3402" y2="28.7016" stroke="white"/>
<line x1="26.4741" y1="147.955" x2="109.034" y2="65.3951" stroke="white"/>
<line x1="-22.449" y1="99.0313" x2="60.1105" y2="16.4718" stroke="white"/>
<line x1="50.9355" y1="172.416" x2="133.495" y2="89.8566" stroke="white"/>
<line x1="2.01241" y1="123.493" x2="84.5719" y2="40.9334" stroke="white"/>
<line x1="20.3591" y1="141.84" x2="102.919" y2="59.2802" stroke="white"/>
<line x1="-28.5662" y1="92.9144" x2="53.9933" y2="10.3549" stroke="white"/>
<line x1="44.8208" y1="166.301" x2="127.38" y2="83.7417" stroke="white"/>
<line x1="-4.10233" y1="117.378" x2="78.4572" y2="34.8185" stroke="white"/>
<line x1="32.5888" y1="154.069" x2="115.148" y2="71.5099" stroke="white"/>
<line x1="-16.3343" y1="105.146" x2="66.2252" y2="22.5867" stroke="white"/>
<line x1="8.1274" y1="129.608" x2="90.6869" y2="47.0483" stroke="white"/>
<line x1="17.3017" y1="138.782" x2="99.8612" y2="56.2227" stroke="white"/>
<line x1="-31.6236" y1="89.8569" x2="50.9359" y2="7.2974" stroke="white"/>
<line x1="41.7634" y1="163.244" x2="124.323" y2="80.6842" stroke="white"/>
<line x1="-7.1619" y1="114.319" x2="75.3976" y2="31.7591" stroke="white"/>
<line x1="29.5315" y1="151.012" x2="112.091" y2="68.4524" stroke="white"/>
<line x1="-19.3916" y1="102.089" x2="63.1679" y2="19.5293" stroke="white"/>
<line x1="5.06979" y1="126.55" x2="87.6293" y2="43.9909" stroke="white"/>
<line x1="24.9453" y1="146.426" x2="107.505" y2="63.8662" stroke="white"/>
<line x1="-23.9778" y1="97.5026" x2="58.5817" y2="14.9432" stroke="white"/>
<line x1="49.4069" y1="170.887" x2="131.966" y2="88.3279" stroke="white"/>
<line x1="0.483849" y1="121.964" x2="83.0433" y2="39.4047" stroke="white"/>
<line x1="37.1772" y1="158.658" x2="119.737" y2="76.0982" stroke="white"/>
<line x1="-11.7481" y1="109.732" x2="70.8114" y2="27.1729" stroke="white"/>
<line x1="12.7136" y1="134.194" x2="95.2731" y2="51.6344" stroke="white"/>
<line x1="15.7729" y1="137.254" x2="98.3324" y2="54.694" stroke="white"/>
<line x1="-33.1521" y1="88.3282" x2="49.4074" y2="5.76871" stroke="white"/>
<line x1="40.2346" y1="161.715" x2="122.794" y2="79.1556" stroke="white"/>
<line x1="-8.69071" y1="112.79" x2="73.8688" y2="30.2303" stroke="white"/>
<line x1="28.0026" y1="149.483" x2="110.562" y2="66.9237" stroke="white"/>
<line x1="-20.9204" y1="100.56" x2="61.639" y2="18.0005" stroke="white"/>
<line x1="52.4643" y1="173.945" x2="135.024" y2="91.3853" stroke="white"/>
<line x1="3.54122" y1="125.022" x2="86.1007" y2="42.4622" stroke="white"/>
<line x1="21.8879" y1="143.368" x2="104.447" y2="60.8089" stroke="white"/>
<line x1="-27.0374" y1="94.4431" x2="55.5221" y2="11.8836" stroke="white"/>
<line x1="46.3496" y1="167.83" x2="128.909" y2="85.2704" stroke="white"/>
<line x1="-2.57377" y1="118.907" x2="79.9857" y2="36.3473" stroke="white"/>
<line x1="34.1176" y1="155.598" x2="116.677" y2="73.0386" stroke="white"/>
<line x1="-14.8055" y1="106.675" x2="67.754" y2="24.1154" stroke="white"/>
<line x1="9.65597" y1="131.137" x2="92.2155" y2="48.5771" stroke="white"/>
<line x1="18.8305" y1="140.311" x2="101.39" y2="57.7514" stroke="white"/>
<line x1="-30.0948" y1="91.3857" x2="52.4647" y2="8.82621" stroke="white"/>
<line x1="43.292" y1="164.773" x2="125.851" y2="82.2131" stroke="white"/>
<line x1="-5.63334" y1="115.847" x2="76.9262" y2="33.2878" stroke="white"/>
<line x1="31.0603" y1="152.541" x2="113.62" y2="69.9811" stroke="white"/>
<line x1="-17.8631" y1="103.618" x2="64.6964" y2="21.058" stroke="white"/>
<line x1="6.5986" y1="128.079" x2="89.1581" y2="45.5196" stroke="white"/>
</g>
</g>
</svg>
