<svg width="100" height="101" viewBox="0 0 100 101" fill="none" xmlns="http://www.w3.org/2000/svg">
<g opacity="0.5">
<mask id="mask0_404_6028" style="mask-type:alpha" maskUnits="userSpaceOnUse" x="71" y="36" width="23" height="39">
<path d="M74.4023 71.5352L91.0021 55.0352L74.4023 38.5352" stroke="black" stroke-width="5" stroke-linecap="round" stroke-linejoin="round"/>
</mask>
<g mask="url(#mask0_404_6028)">
<line y1="-0.5" x2="107.244" y2="-0.5" transform="matrix(0.709234 -0.704973 0.709234 0.704973 30.9062 113.475)" stroke="white"/>
<line y1="-0.5" x2="107.244" y2="-0.5" transform="matrix(0.709234 -0.704973 0.709234 0.704973 8.36719 91.0742)" stroke="white"/>
<line y1="-0.5" x2="107.244" y2="-0.5" transform="matrix(0.709234 -0.704973 0.709234 0.704973 53.4375 135.877)" stroke="white"/>
<line y1="-0.5" x2="107.244" y2="-0.5" transform="matrix(0.709234 -0.704973 0.709234 0.704973 -2.89844 79.873)" stroke="white"/>
<line y1="-0.5" x2="107.244" y2="-0.5" transform="matrix(0.709234 -0.704973 0.709234 0.704973 42.1719 124.676)" stroke="white"/>
<line y1="-0.5" x2="107.244" y2="-0.5" transform="matrix(0.709234 -0.704973 0.709234 0.704973 19.6328 102.273)" stroke="white"/>
<line y1="-0.5" x2="107.244" y2="-0.5" transform="matrix(0.709234 -0.704973 0.709234 0.704973 64.7109 147.076)" stroke="white"/>
<line y1="-0.5" x2="107.244" y2="-0.5" transform="matrix(0.709234 -0.704973 0.709234 0.704973 67.5273 149.877)" stroke="white"/>
<line y1="-0.5" x2="107.244" y2="-0.5" transform="matrix(0.709234 -0.704973 0.709234 0.704973 22.4492 105.074)" stroke="white"/>
<line y1="-0.5" x2="107.244" y2="-0.5" transform="matrix(0.709234 -0.704973 0.709234 0.704973 -0.0820312 82.6738)" stroke="white"/>
<line y1="-0.5" x2="107.244" y2="-0.5" transform="matrix(0.709234 -0.704973 0.709234 0.704973 44.9883 127.475)" stroke="white"/>
<line y1="-0.5" x2="107.244" y2="-0.5" transform="matrix(0.709234 -0.704973 0.709234 0.704973 33.7227 116.275)" stroke="white"/>
<line y1="-0.5" x2="107.244" y2="-0.5" transform="matrix(0.709234 -0.704973 0.709234 0.704973 11.1836 93.873)" stroke="white"/>
<line y1="-0.5" x2="107.244" y2="-0.5" transform="matrix(0.709234 -0.704973 0.709234 0.704973 56.2578 138.676)" stroke="white"/>
<line y1="-0.5" x2="107.244" y2="-0.5" transform="matrix(0.709234 -0.704973 0.709234 0.704973 28.0898 110.674)" stroke="white"/>
<line y1="-0.5" x2="107.244" y2="-0.5" transform="matrix(0.709234 -0.704973 0.709234 0.704973 5.55078 88.2734)" stroke="white"/>
<line y1="-0.5" x2="107.244" y2="-0.5" transform="matrix(0.709234 -0.704973 0.709234 0.704973 50.6211 133.076)" stroke="white"/>
<line y1="-0.5" x2="107.244" y2="-0.5" transform="matrix(0.709234 -0.704973 0.709234 0.704973 39.3555 121.875)" stroke="white"/>
<line y1="-0.5" x2="107.244" y2="-0.5" transform="matrix(0.709234 -0.704973 0.709234 0.704973 16.8164 99.4746)" stroke="white"/>
<line y1="-0.5" x2="107.244" y2="-0.5" transform="matrix(0.709234 -0.704973 0.709234 0.704973 61.8945 144.277)" stroke="white"/>
<line y1="-0.5" x2="107.244" y2="-0.5" transform="matrix(0.709234 -0.704973 0.709234 0.704973 25.2734 107.875)" stroke="white"/>
<line y1="-0.5" x2="107.244" y2="-0.5" transform="matrix(0.709234 -0.704973 0.709234 0.704973 2.73438 85.4727)" stroke="white"/>
<line y1="-0.5" x2="107.244" y2="-0.5" transform="matrix(0.709234 -0.704973 0.709234 0.704973 47.8047 130.275)" stroke="white"/>
<line y1="-0.5" x2="107.244" y2="-0.5" transform="matrix(0.709234 -0.704973 0.709234 0.704973 36.5391 119.074)" stroke="white"/>
<line y1="-0.5" x2="107.244" y2="-0.5" transform="matrix(0.709234 -0.704973 0.709234 0.704973 14 96.6738)" stroke="white"/>
<line y1="-0.5" x2="107.244" y2="-0.5" transform="matrix(0.709234 -0.704973 0.709234 0.704973 59.0742 141.477)" stroke="white"/>
<line y1="-0.5" x2="107.244" y2="-0.5" transform="matrix(0.709234 -0.704973 0.709234 0.704973 32.3125 114.875)" stroke="white"/>
<line y1="-0.5" x2="107.244" y2="-0.5" transform="matrix(0.709234 -0.704973 0.709234 0.704973 9.77734 92.4746)" stroke="white"/>
<line y1="-0.5" x2="107.244" y2="-0.5" transform="matrix(0.709234 -0.704973 0.709234 0.704973 54.8477 137.275)" stroke="white"/>
<line y1="-0.5" x2="107.244" y2="-0.5" transform="matrix(0.709234 -0.704973 0.709234 0.704973 -1.49219 81.2734)" stroke="white"/>
<line y1="-0.5" x2="107.244" y2="-0.5" transform="matrix(0.709234 -0.704973 0.709234 0.704973 43.582 126.076)" stroke="white"/>
<line y1="-0.5" x2="107.244" y2="-0.5" transform="matrix(0.709234 -0.704973 0.709234 0.704973 21.043 103.674)" stroke="white"/>
<line y1="-0.5" x2="107.244" y2="-0.5" transform="matrix(0.709234 -0.704973 0.709234 0.704973 66.1172 148.477)" stroke="white"/>
<line y1="-0.5" x2="107.244" y2="-0.5" transform="matrix(0.709234 -0.704973 0.709234 0.704973 23.8633 106.475)" stroke="white"/>
<line y1="-0.5" x2="107.244" y2="-0.5" transform="matrix(0.709234 -0.704973 0.709234 0.704973 1.32422 84.0742)" stroke="white"/>
<line y1="-0.5" x2="107.244" y2="-0.5" transform="matrix(0.709234 -0.704973 0.709234 0.704973 46.3984 128.875)" stroke="white"/>
<line y1="-0.5" x2="107.244" y2="-0.5" transform="matrix(0.709234 -0.704973 0.709234 0.704973 35.1289 117.676)" stroke="white"/>
<line y1="-0.5" x2="107.244" y2="-0.5" transform="matrix(0.709234 -0.704973 0.709234 0.704973 12.5938 95.2734)" stroke="white"/>
<line y1="-0.5" x2="107.244" y2="-0.5" transform="matrix(0.709234 -0.704973 0.709234 0.704973 57.6641 140.076)" stroke="white"/>
<line y1="-0.5" x2="107.244" y2="-0.5" transform="matrix(0.709234 -0.704973 0.709234 0.704973 29.4961 112.074)" stroke="white"/>
<line y1="-0.5" x2="107.244" y2="-0.5" transform="matrix(0.709234 -0.704973 0.709234 0.704973 6.95703 89.6738)" stroke="white"/>
<line y1="-0.5" x2="107.244" y2="-0.5" transform="matrix(0.709234 -0.704973 0.709234 0.704973 52.0312 134.477)" stroke="white"/>
<line y1="-0.5" x2="107.244" y2="-0.5" transform="matrix(0.709234 -0.704973 0.709234 0.704973 40.7656 123.275)" stroke="white"/>
<line y1="-0.5" x2="107.244" y2="-0.5" transform="matrix(0.709234 -0.704973 0.709234 0.704973 18.2266 100.875)" stroke="white"/>
<line y1="-0.5" x2="107.244" y2="-0.5" transform="matrix(0.709234 -0.704973 0.709234 0.704973 63.3008 145.676)" stroke="white"/>
<line y1="-0.5" x2="107.244" y2="-0.5" transform="matrix(0.709234 -0.704973 0.709234 0.704973 26.6797 109.275)" stroke="white"/>
<line y1="-0.5" x2="107.244" y2="-0.5" transform="matrix(0.709234 -0.704973 0.709234 0.704973 4.14062 86.873)" stroke="white"/>
<line y1="-0.5" x2="107.244" y2="-0.5" transform="matrix(0.709234 -0.704973 0.709234 0.704973 49.2148 131.676)" stroke="white"/>
<line y1="-0.5" x2="107.244" y2="-0.5" transform="matrix(0.709234 -0.704973 0.709234 0.704973 37.9453 120.475)" stroke="white"/>
<line y1="-0.5" x2="107.244" y2="-0.5" transform="matrix(0.709234 -0.704973 0.709234 0.704973 15.4102 98.0742)" stroke="white"/>
<line y1="-0.5" x2="107.244" y2="-0.5" transform="matrix(0.709234 -0.704973 0.709234 0.704973 60.4844 142.877)" stroke="white"/>
</g>
<mask id="mask1_404_6028" style="mask-type:alpha" maskUnits="userSpaceOnUse" x="5" y="36" width="23" height="39">
<path d="M24.5997 38.5352L8 55.0352L24.5997 71.5352" stroke="black" stroke-width="5" stroke-linecap="round" stroke-linejoin="round"/>
</mask>
<g mask="url(#mask1_404_6028)">
<line y1="-0.5" x2="107.244" y2="-0.5" transform="matrix(0.709234 -0.704973 0.709234 0.704973 -14.1719 68.6719)" stroke="white"/>
<line y1="-0.5" x2="107.244" y2="-0.5" transform="matrix(0.709234 -0.704973 0.709234 0.704973 8.36719 91.0742)" stroke="white"/>
<line y1="-0.5" x2="107.244" y2="-0.5" transform="matrix(0.709234 -0.704973 0.709234 0.704973 -36.7031 46.2715)" stroke="white"/>
<line y1="-0.5" x2="107.244" y2="-0.5" transform="matrix(0.709234 -0.704973 0.709234 0.704973 -2.89844 79.873)" stroke="white"/>
<line y1="-0.5" x2="107.244" y2="-0.5" transform="matrix(0.709234 -0.704973 0.709234 0.704973 19.6328 102.273)" stroke="white"/>
<line y1="-0.5" x2="107.244" y2="-0.5" transform="matrix(0.709234 -0.704973 0.709234 0.704973 -25.4375 57.4727)" stroke="white"/>
<line y1="-0.5" x2="107.244" y2="-0.5" transform="matrix(0.709234 -0.704973 0.709234 0.704973 -22.6211 60.2715)" stroke="white"/>
<line y1="-0.5" x2="107.244" y2="-0.5" transform="matrix(0.709234 -0.704973 0.709234 0.704973 22.4492 105.074)" stroke="white"/>
<line y1="-0.5" x2="107.244" y2="-0.5" transform="matrix(0.709234 -0.704973 0.709234 0.704973 -0.0820312 82.6738)" stroke="white"/>
<line y1="-0.5" x2="107.244" y2="-0.5" transform="matrix(0.709234 -0.704973 0.709234 0.704973 -45.1562 37.8711)" stroke="white"/>
<line y1="-0.5" x2="107.244" y2="-0.5" transform="matrix(0.709234 -0.704973 0.709234 0.704973 -11.3516 71.4727)" stroke="white"/>
<line y1="-0.5" x2="107.244" y2="-0.5" transform="matrix(0.709234 -0.704973 0.709234 0.704973 11.1836 93.873)" stroke="white"/>
<line y1="-0.5" x2="107.244" y2="-0.5" transform="matrix(0.709234 -0.704973 0.709234 0.704973 -33.8867 49.0723)" stroke="white"/>
<line y1="-0.5" x2="107.244" y2="-0.5" transform="matrix(0.709234 -0.704973 0.709234 0.704973 -16.9883 65.873)" stroke="white"/>
<line y1="-0.5" x2="107.244" y2="-0.5" transform="matrix(0.709234 -0.704973 0.709234 0.704973 5.55078 88.2734)" stroke="white"/>
<line y1="-0.5" x2="107.244" y2="-0.5" transform="matrix(0.709234 -0.704973 0.709234 0.704973 -39.5234 43.4707)" stroke="white"/>
<line y1="-0.5" x2="107.244" y2="-0.5" transform="matrix(0.709234 -0.704973 0.709234 0.704973 -5.71484 77.0723)" stroke="white"/>
<line y1="-0.5" x2="107.244" y2="-0.5" transform="matrix(0.709234 -0.704973 0.709234 0.704973 16.8164 99.4746)" stroke="white"/>
<line y1="-0.5" x2="107.244" y2="-0.5" transform="matrix(0.709234 -0.704973 0.709234 0.704973 -28.2539 54.6719)" stroke="white"/>
<line y1="-0.5" x2="107.244" y2="-0.5" transform="matrix(0.709234 -0.704973 0.709234 0.704973 -19.8047 63.0723)" stroke="white"/>
<line y1="-0.5" x2="107.244" y2="-0.5" transform="matrix(0.709234 -0.704973 0.709234 0.704973 25.2734 107.875)" stroke="white"/>
<line y1="-0.5" x2="107.244" y2="-0.5" transform="matrix(0.709234 -0.704973 0.709234 0.704973 2.73438 85.4727)" stroke="white"/>
<line y1="-0.5" x2="107.244" y2="-0.5" transform="matrix(0.709234 -0.704973 0.709234 0.704973 -42.3398 40.6719)" stroke="white"/>
<line y1="-0.5" x2="107.244" y2="-0.5" transform="matrix(0.709234 -0.704973 0.709234 0.704973 -8.53516 74.2734)" stroke="white"/>
<line y1="-0.5" x2="107.244" y2="-0.5" transform="matrix(0.709234 -0.704973 0.709234 0.704973 14 96.6738)" stroke="white"/>
<line y1="-0.5" x2="107.244" y2="-0.5" transform="matrix(0.709234 -0.704973 0.709234 0.704973 -31.0703 51.8711)" stroke="white"/>
<line y1="-0.5" x2="107.244" y2="-0.5" transform="matrix(0.709234 -0.704973 0.709234 0.704973 -12.7578 70.0723)" stroke="white"/>
<line y1="-0.5" x2="107.244" y2="-0.5" transform="matrix(0.709234 -0.704973 0.709234 0.704973 9.77734 92.4746)" stroke="white"/>
<line y1="-0.5" x2="107.244" y2="-0.5" transform="matrix(0.709234 -0.704973 0.709234 0.704973 -35.2969 47.6719)" stroke="white"/>
<line y1="-0.5" x2="107.244" y2="-0.5" transform="matrix(0.709234 -0.704973 0.709234 0.704973 -1.49219 81.2734)" stroke="white"/>
<line y1="-0.5" x2="107.244" y2="-0.5" transform="matrix(0.709234 -0.704973 0.709234 0.704973 -46.5625 36.4707)" stroke="white"/>
<line y1="-0.5" x2="107.244" y2="-0.5" transform="matrix(0.709234 -0.704973 0.709234 0.704973 21.043 103.674)" stroke="white"/>
<line y1="-0.5" x2="107.244" y2="-0.5" transform="matrix(0.709234 -0.704973 0.709234 0.704973 -24.0312 58.8711)" stroke="white"/>
<line y1="-0.5" x2="107.244" y2="-0.5" transform="matrix(0.709234 -0.704973 0.709234 0.704973 -21.2109 61.6719)" stroke="white"/>
<line y1="-0.5" x2="107.244" y2="-0.5" transform="matrix(0.709234 -0.704973 0.709234 0.704973 23.8633 106.475)" stroke="white"/>
<line y1="-0.5" x2="107.244" y2="-0.5" transform="matrix(0.709234 -0.704973 0.709234 0.704973 1.32422 84.0742)" stroke="white"/>
<line y1="-0.5" x2="107.244" y2="-0.5" transform="matrix(0.709234 -0.704973 0.709234 0.704973 -43.7461 39.2715)" stroke="white"/>
<line y1="-0.5" x2="107.244" y2="-0.5" transform="matrix(0.709234 -0.704973 0.709234 0.704973 -9.94141 72.873)" stroke="white"/>
<line y1="-0.5" x2="107.244" y2="-0.5" transform="matrix(0.709234 -0.704973 0.709234 0.704973 12.5938 95.2734)" stroke="white"/>
<line y1="-0.5" x2="107.244" y2="-0.5" transform="matrix(0.709234 -0.704973 0.709234 0.704973 -32.4805 50.4707)" stroke="white"/>
<line y1="-0.5" x2="107.244" y2="-0.5" transform="matrix(0.709234 -0.704973 0.709234 0.704973 -15.5781 67.2734)" stroke="white"/>
<line y1="-0.5" x2="107.244" y2="-0.5" transform="matrix(0.709234 -0.704973 0.709234 0.704973 6.95703 89.6738)" stroke="white"/>
<line y1="-0.5" x2="107.244" y2="-0.5" transform="matrix(0.709234 -0.704973 0.709234 0.704973 -38.1133 44.8711)" stroke="white"/>
<line y1="-0.5" x2="107.244" y2="-0.5" transform="matrix(0.709234 -0.704973 0.709234 0.704973 -4.30859 78.4727)" stroke="white"/>
<line y1="-0.5" x2="107.244" y2="-0.5" transform="matrix(0.709234 -0.704973 0.709234 0.704973 18.2266 100.875)" stroke="white"/>
<line y1="-0.5" x2="107.244" y2="-0.5" transform="matrix(0.709234 -0.704973 0.709234 0.704973 -26.8477 56.0723)" stroke="white"/>
<line y1="-0.5" x2="107.244" y2="-0.5" transform="matrix(0.709234 -0.704973 0.709234 0.704973 -18.3945 64.4727)" stroke="white"/>
<line y1="-0.5" x2="107.244" y2="-0.5" transform="matrix(0.709234 -0.704973 0.709234 0.704973 26.6797 109.275)" stroke="white"/>
<line y1="-0.5" x2="107.244" y2="-0.5" transform="matrix(0.709234 -0.704973 0.709234 0.704973 4.14062 86.873)" stroke="white"/>
<line y1="-0.5" x2="107.244" y2="-0.5" transform="matrix(0.709234 -0.704973 0.709234 0.704973 -40.9297 42.0703)" stroke="white"/>
<line y1="-0.5" x2="107.244" y2="-0.5" transform="matrix(0.709234 -0.704973 0.709234 0.704973 -7.125 75.6738)" stroke="white"/>
<line y1="-0.5" x2="107.244" y2="-0.5" transform="matrix(0.709234 -0.704973 0.709234 0.704973 15.4102 98.0742)" stroke="white"/>
<line y1="-0.5" x2="107.244" y2="-0.5" transform="matrix(0.709234 -0.704973 0.709234 0.704973 -29.6641 53.2715)" stroke="white"/>
</g>
<mask id="mask2_404_6028" style="mask-type:alpha" maskUnits="userSpaceOnUse" x="36" y="19" width="27" height="72">
<path d="M59.8747 22.0352L39.125 88.0352" stroke="black" stroke-width="5" stroke-linecap="round" stroke-linejoin="round"/>
</mask>
<g mask="url(#mask2_404_6028)">
<line y1="-0.5" x2="107.244" y2="-0.5" transform="matrix(0.709234 -0.704973 0.709234 0.704973 -14.1719 68.6719)" stroke="white"/>
<line y1="-0.5" x2="107.244" y2="-0.5" transform="matrix(0.709234 -0.704973 0.709234 0.704973 30.9062 113.475)" stroke="white"/>
<line y1="-0.5" x2="107.244" y2="-0.5" transform="matrix(0.709234 -0.704973 0.709234 0.704973 8.36719 91.0742)" stroke="white"/>
<line y1="-0.5" x2="107.244" y2="-0.5" transform="matrix(0.709234 -0.704973 0.709234 0.704973 -36.7031 46.2715)" stroke="white"/>
<line y1="-0.5" x2="107.244" y2="-0.5" transform="matrix(0.709234 -0.704973 0.709234 0.704973 53.4375 135.877)" stroke="white"/>
<line y1="-0.5" x2="107.244" y2="-0.5" transform="matrix(0.709234 -0.704973 0.709234 0.704973 -2.89844 79.873)" stroke="white"/>
<line y1="-0.5" x2="107.244" y2="-0.5" transform="matrix(0.709234 -0.704973 0.709234 0.704973 42.1719 124.676)" stroke="white"/>
<line y1="-0.5" x2="107.244" y2="-0.5" transform="matrix(0.709234 -0.704973 0.709234 0.704973 19.6328 102.273)" stroke="white"/>
<line y1="-0.5" x2="107.244" y2="-0.5" transform="matrix(0.709234 -0.704973 0.709234 0.704973 -25.4375 57.4727)" stroke="white"/>
<line y1="-0.5" x2="107.244" y2="-0.5" transform="matrix(0.709234 -0.704973 0.709234 0.704973 -22.6211 60.2715)" stroke="white"/>
<line y1="-0.5" x2="107.244" y2="-0.5" transform="matrix(0.709234 -0.704973 0.709234 0.704973 22.4492 105.074)" stroke="white"/>
<line y1="-0.5" x2="107.244" y2="-0.5" transform="matrix(0.709234 -0.704973 0.709234 0.704973 -0.0820312 82.6738)" stroke="white"/>
<line y1="-0.5" x2="107.244" y2="-0.5" transform="matrix(0.709234 -0.704973 0.709234 0.704973 44.9883 127.475)" stroke="white"/>
<line y1="-0.5" x2="107.244" y2="-0.5" transform="matrix(0.709234 -0.704973 0.709234 0.704973 -11.3516 71.4727)" stroke="white"/>
<line y1="-0.5" x2="107.244" y2="-0.5" transform="matrix(0.709234 -0.704973 0.709234 0.704973 33.7227 116.275)" stroke="white"/>
<line y1="-0.5" x2="107.244" y2="-0.5" transform="matrix(0.709234 -0.704973 0.709234 0.704973 11.1836 93.873)" stroke="white"/>
<line y1="-0.5" x2="107.244" y2="-0.5" transform="matrix(0.709234 -0.704973 0.709234 0.704973 -33.8867 49.0723)" stroke="white"/>
<line y1="-0.5" x2="107.244" y2="-0.5" transform="matrix(0.709234 -0.704973 0.709234 0.704973 56.2578 138.676)" stroke="white"/>
<line y1="-0.5" x2="107.244" y2="-0.5" transform="matrix(0.709234 -0.704973 0.709234 0.704973 -16.9883 65.873)" stroke="white"/>
<line y1="-0.5" x2="107.244" y2="-0.5" transform="matrix(0.709234 -0.704973 0.709234 0.704973 28.0898 110.674)" stroke="white"/>
<line y1="-0.5" x2="107.244" y2="-0.5" transform="matrix(0.709234 -0.704973 0.709234 0.704973 5.55078 88.2734)" stroke="white"/>
<line y1="-0.5" x2="107.244" y2="-0.5" transform="matrix(0.709234 -0.704973 0.709234 0.704973 50.6211 133.076)" stroke="white"/>
<line y1="-0.5" x2="107.244" y2="-0.5" transform="matrix(0.709234 -0.704973 0.709234 0.704973 -5.71484 77.0723)" stroke="white"/>
<line y1="-0.5" x2="107.244" y2="-0.5" transform="matrix(0.709234 -0.704973 0.709234 0.704973 39.3555 121.875)" stroke="white"/>
<line y1="-0.5" x2="107.244" y2="-0.5" transform="matrix(0.709234 -0.704973 0.709234 0.704973 16.8164 99.4746)" stroke="white"/>
<line y1="-0.5" x2="107.244" y2="-0.5" transform="matrix(0.709234 -0.704973 0.709234 0.704973 -28.2539 54.6719)" stroke="white"/>
<line y1="-0.5" x2="107.244" y2="-0.5" transform="matrix(0.709234 -0.704973 0.709234 0.704973 61.8945 144.277)" stroke="white"/>
<line y1="-0.5" x2="107.244" y2="-0.5" transform="matrix(0.709234 -0.704973 0.709234 0.704973 -19.8047 63.0723)" stroke="white"/>
<line y1="-0.5" x2="107.244" y2="-0.5" transform="matrix(0.709234 -0.704973 0.709234 0.704973 25.2734 107.875)" stroke="white"/>
<line y1="-0.5" x2="107.244" y2="-0.5" transform="matrix(0.709234 -0.704973 0.709234 0.704973 2.73438 85.4727)" stroke="white"/>
<line y1="-0.5" x2="107.244" y2="-0.5" transform="matrix(0.709234 -0.704973 0.709234 0.704973 47.8047 130.275)" stroke="white"/>
<line y1="-0.5" x2="107.244" y2="-0.5" transform="matrix(0.709234 -0.704973 0.709234 0.704973 -8.53516 74.2734)" stroke="white"/>
<line y1="-0.5" x2="107.244" y2="-0.5" transform="matrix(0.709234 -0.704973 0.709234 0.704973 36.5391 119.074)" stroke="white"/>
<line y1="-0.5" x2="107.244" y2="-0.5" transform="matrix(0.709234 -0.704973 0.709234 0.704973 14 96.6738)" stroke="white"/>
<line y1="-0.5" x2="107.244" y2="-0.5" transform="matrix(0.709234 -0.704973 0.709234 0.704973 -31.0703 51.8711)" stroke="white"/>
<line y1="-0.5" x2="107.244" y2="-0.5" transform="matrix(0.709234 -0.704973 0.709234 0.704973 59.0742 141.477)" stroke="white"/>
<line y1="-0.5" x2="107.244" y2="-0.5" transform="matrix(0.709234 -0.704973 0.709234 0.704973 -12.7578 70.0723)" stroke="white"/>
<line y1="-0.5" x2="107.244" y2="-0.5" transform="matrix(0.709234 -0.704973 0.709234 0.704973 32.3125 114.875)" stroke="white"/>
<line y1="-0.5" x2="107.244" y2="-0.5" transform="matrix(0.709234 -0.704973 0.709234 0.704973 9.77734 92.4746)" stroke="white"/>
<line y1="-0.5" x2="107.244" y2="-0.5" transform="matrix(0.709234 -0.704973 0.709234 0.704973 -35.2969 47.6719)" stroke="white"/>
<line y1="-0.5" x2="107.244" y2="-0.5" transform="matrix(0.709234 -0.704973 0.709234 0.704973 54.8477 137.275)" stroke="white"/>
<line y1="-0.5" x2="107.244" y2="-0.5" transform="matrix(0.709234 -0.704973 0.709234 0.704973 -1.49219 81.2734)" stroke="white"/>
<line y1="-0.5" x2="107.244" y2="-0.5" transform="matrix(0.709234 -0.704973 0.709234 0.704973 43.582 126.076)" stroke="white"/>
<line y1="-0.5" x2="107.244" y2="-0.5" transform="matrix(0.709234 -0.704973 0.709234 0.704973 21.043 103.674)" stroke="white"/>
<line y1="-0.5" x2="107.244" y2="-0.5" transform="matrix(0.709234 -0.704973 0.709234 0.704973 -24.0312 58.8711)" stroke="white"/>
<line y1="-0.5" x2="107.244" y2="-0.5" transform="matrix(0.709234 -0.704973 0.709234 0.704973 -21.2109 61.6719)" stroke="white"/>
<line y1="-0.5" x2="107.244" y2="-0.5" transform="matrix(0.709234 -0.704973 0.709234 0.704973 23.8633 106.475)" stroke="white"/>
<line y1="-0.5" x2="107.244" y2="-0.5" transform="matrix(0.709234 -0.704973 0.709234 0.704973 1.32422 84.0742)" stroke="white"/>
<line y1="-0.5" x2="107.244" y2="-0.5" transform="matrix(0.709234 -0.704973 0.709234 0.704973 46.3984 128.875)" stroke="white"/>
<line y1="-0.5" x2="107.244" y2="-0.5" transform="matrix(0.709234 -0.704973 0.709234 0.704973 -9.94141 72.873)" stroke="white"/>
<line y1="-0.5" x2="107.244" y2="-0.5" transform="matrix(0.709234 -0.704973 0.709234 0.704973 35.1289 117.676)" stroke="white"/>
<line y1="-0.5" x2="107.244" y2="-0.5" transform="matrix(0.709234 -0.704973 0.709234 0.704973 12.5938 95.2734)" stroke="white"/>
<line y1="-0.5" x2="107.244" y2="-0.5" transform="matrix(0.709234 -0.704973 0.709234 0.704973 -32.4805 50.4707)" stroke="white"/>
<line y1="-0.5" x2="107.244" y2="-0.5" transform="matrix(0.709234 -0.704973 0.709234 0.704973 57.6641 140.076)" stroke="white"/>
<line y1="-0.5" x2="107.244" y2="-0.5" transform="matrix(0.709234 -0.704973 0.709234 0.704973 -15.5781 67.2734)" stroke="white"/>
<line y1="-0.5" x2="107.244" y2="-0.5" transform="matrix(0.709234 -0.704973 0.709234 0.704973 29.4961 112.074)" stroke="white"/>
<line y1="-0.5" x2="107.244" y2="-0.5" transform="matrix(0.709234 -0.704973 0.709234 0.704973 6.95703 89.6738)" stroke="white"/>
<line y1="-0.5" x2="107.244" y2="-0.5" transform="matrix(0.709234 -0.704973 0.709234 0.704973 -38.1133 44.8711)" stroke="white"/>
<line y1="-0.5" x2="107.244" y2="-0.5" transform="matrix(0.709234 -0.704973 0.709234 0.704973 52.0312 134.477)" stroke="white"/>
<line y1="-0.5" x2="107.244" y2="-0.5" transform="matrix(0.709234 -0.704973 0.709234 0.704973 -4.30859 78.4727)" stroke="white"/>
<line y1="-0.5" x2="107.244" y2="-0.5" transform="matrix(0.709234 -0.704973 0.709234 0.704973 40.7656 123.275)" stroke="white"/>
<line y1="-0.5" x2="107.244" y2="-0.5" transform="matrix(0.709234 -0.704973 0.709234 0.704973 18.2266 100.875)" stroke="white"/>
<line y1="-0.5" x2="107.244" y2="-0.5" transform="matrix(0.709234 -0.704973 0.709234 0.704973 -26.8477 56.0723)" stroke="white"/>
<line y1="-0.5" x2="107.244" y2="-0.5" transform="matrix(0.709234 -0.704973 0.709234 0.704973 -18.3945 64.4727)" stroke="white"/>
<line y1="-0.5" x2="107.244" y2="-0.5" transform="matrix(0.709234 -0.704973 0.709234 0.704973 26.6797 109.275)" stroke="white"/>
<line y1="-0.5" x2="107.244" y2="-0.5" transform="matrix(0.709234 -0.704973 0.709234 0.704973 4.14062 86.873)" stroke="white"/>
<line y1="-0.5" x2="107.244" y2="-0.5" transform="matrix(0.709234 -0.704973 0.709234 0.704973 49.2148 131.676)" stroke="white"/>
<line y1="-0.5" x2="107.244" y2="-0.5" transform="matrix(0.709234 -0.704973 0.709234 0.704973 -7.125 75.6738)" stroke="white"/>
<line y1="-0.5" x2="107.244" y2="-0.5" transform="matrix(0.709234 -0.704973 0.709234 0.704973 37.9453 120.475)" stroke="white"/>
<line y1="-0.5" x2="107.244" y2="-0.5" transform="matrix(0.709234 -0.704973 0.709234 0.704973 15.4102 98.0742)" stroke="white"/>
<line y1="-0.5" x2="107.244" y2="-0.5" transform="matrix(0.709234 -0.704973 0.709234 0.704973 -29.6641 53.2715)" stroke="white"/>
<line y1="-0.5" x2="107.244" y2="-0.5" transform="matrix(0.709234 -0.704973 0.709234 0.704973 60.4844 142.877)" stroke="white"/>
</g>
</g>
</svg>
