<svg width="100" height="101" viewBox="0 0 100 101" fill="none" xmlns="http://www.w3.org/2000/svg">
<g opacity="0.5">
<mask id="mask0_404_3977" style="mask-type:alpha" maskUnits="userSpaceOnUse" x="30" y="60" width="39" height="6">
<path d="M66 63.0352H33" stroke="white" stroke-width="5" stroke-linecap="round" stroke-linejoin="round"/>
</mask>
<g mask="url(#mask0_404_3977)">
<line y1="-0.5" x2="107.461" y2="-0.5" transform="matrix(0.703545 -0.710651 0.703545 0.710651 -0.585938 94.3086)" stroke="white"/>
<line y1="-0.5" x2="107.461" y2="-0.5" transform="matrix(0.703545 -0.710651 0.703545 0.710651 44.2188 139.564)" stroke="white"/>
<line y1="-0.5" x2="107.461" y2="-0.5" transform="matrix(0.703545 -0.710651 0.703545 0.710651 21.8203 116.938)" stroke="white"/>
<line y1="-0.5" x2="107.461" y2="-0.5" transform="matrix(0.703545 -0.710651 0.703545 0.710651 -22.9844 71.6816)" stroke="white"/>
<line y1="-0.5" x2="107.461" y2="-0.5" transform="matrix(0.703545 -0.710651 0.703545 0.710651 10.6172 105.623)" stroke="white"/>
<line y1="-0.5" x2="107.461" y2="-0.5" transform="matrix(0.703545 -0.710651 0.703545 0.710651 33.0195 128.25)" stroke="white"/>
<line y1="-0.5" x2="107.461" y2="-0.5" transform="matrix(0.703545 -0.710651 0.703545 0.710651 -11.7812 82.9961)" stroke="white"/>
<line y1="-0.5" x2="107.461" y2="-0.5" transform="matrix(0.703545 -0.710651 0.703545 0.710651 -8.98438 85.8242)" stroke="white"/>
<line y1="-0.5" x2="107.461" y2="-0.5" transform="matrix(0.703545 -0.710651 0.703545 0.710651 35.8203 131.078)" stroke="white"/>
<line y1="-0.5" x2="107.461" y2="-0.5" transform="matrix(0.703545 -0.710651 0.703545 0.710651 13.4141 108.451)" stroke="white"/>
<line y1="-0.5" x2="107.461" y2="-0.5" transform="matrix(0.703545 -0.710651 0.703545 0.710651 -31.3867 63.1973)" stroke="white"/>
<line y1="-0.5" x2="107.461" y2="-0.5" transform="matrix(0.703545 -0.710651 0.703545 0.710651 2.21875 97.1367)" stroke="white"/>
<line y1="-0.5" x2="107.461" y2="-0.5" transform="matrix(0.703545 -0.710651 0.703545 0.710651 47.0195 142.393)" stroke="white"/>
<line y1="-0.5" x2="107.461" y2="-0.5" transform="matrix(0.703545 -0.710651 0.703545 0.710651 24.6172 119.766)" stroke="white"/>
<line y1="-0.5" x2="107.461" y2="-0.5" transform="matrix(0.703545 -0.710651 0.703545 0.710651 -20.1875 74.5098)" stroke="white"/>
<line y1="-0.5" x2="107.461" y2="-0.5" transform="matrix(0.703545 -0.710651 0.703545 0.710651 -3.38672 91.4805)" stroke="white"/>
<line y1="-0.5" x2="107.461" y2="-0.5" transform="matrix(0.703545 -0.710651 0.703545 0.710651 41.4219 136.736)" stroke="white"/>
<line y1="-0.5" x2="107.461" y2="-0.5" transform="matrix(0.703545 -0.710651 0.703545 0.710651 19.0195 114.107)" stroke="white"/>
<line y1="-0.5" x2="107.461" y2="-0.5" transform="matrix(0.703545 -0.710651 0.703545 0.710651 -25.7812 68.8535)" stroke="white"/>
<line y1="-0.5" x2="107.461" y2="-0.5" transform="matrix(0.703545 -0.710651 0.703545 0.710651 7.82031 102.795)" stroke="white"/>
<line y1="-0.5" x2="107.461" y2="-0.5" transform="matrix(0.703545 -0.710651 0.703545 0.710651 30.2148 125.422)" stroke="white"/>
<line y1="-0.5" x2="107.461" y2="-0.5" transform="matrix(0.703545 -0.710651 0.703545 0.710651 -14.5859 80.168)" stroke="white"/>
<line y1="-0.5" x2="107.461" y2="-0.5" transform="matrix(0.703545 -0.710651 0.703545 0.710651 -6.1875 88.6523)" stroke="white"/>
<line y1="-0.5" x2="107.461" y2="-0.5" transform="matrix(0.703545 -0.710651 0.703545 0.710651 38.6172 133.906)" stroke="white"/>
<line y1="-0.5" x2="107.461" y2="-0.5" transform="matrix(0.703545 -0.710651 0.703545 0.710651 16.2148 111.279)" stroke="white"/>
<line y1="-0.5" x2="107.461" y2="-0.5" transform="matrix(0.703545 -0.710651 0.703545 0.710651 -28.5859 66.0254)" stroke="white"/>
<line y1="-0.5" x2="107.461" y2="-0.5" transform="matrix(0.703545 -0.710651 0.703545 0.710651 5.01953 99.9668)" stroke="white"/>
<line y1="-0.5" x2="107.461" y2="-0.5" transform="matrix(0.703545 -0.710651 0.703545 0.710651 27.4141 122.594)" stroke="white"/>
<line y1="-0.5" x2="107.461" y2="-0.5" transform="matrix(0.703545 -0.710651 0.703545 0.710651 -17.3828 77.3379)" stroke="white"/>
<line y1="-0.5" x2="107.461" y2="-0.5" transform="matrix(0.703545 -0.710651 0.703545 0.710651 0.820312 95.7227)" stroke="white"/>
<line y1="-0.5" x2="107.461" y2="-0.5" transform="matrix(0.703545 -0.710651 0.703545 0.710651 45.6172 140.979)" stroke="white"/>
<line y1="-0.5" x2="107.461" y2="-0.5" transform="matrix(0.703545 -0.710651 0.703545 0.710651 23.2148 118.352)" stroke="white"/>
<line y1="-0.5" x2="107.461" y2="-0.5" transform="matrix(0.703545 -0.710651 0.703545 0.710651 -21.5859 73.0957)" stroke="white"/>
<line y1="-0.5" x2="107.461" y2="-0.5" transform="matrix(0.703545 -0.710651 0.703545 0.710651 12.0156 107.037)" stroke="white"/>
<line y1="-0.5" x2="107.461" y2="-0.5" transform="matrix(0.703545 -0.710651 0.703545 0.710651 -32.7812 61.7832)" stroke="white"/>
<line y1="-0.5" x2="107.461" y2="-0.5" transform="matrix(0.703545 -0.710651 0.703545 0.710651 34.4141 129.664)" stroke="white"/>
<line y1="-0.5" x2="107.461" y2="-0.5" transform="matrix(0.703545 -0.710651 0.703545 0.710651 -10.3828 84.4102)" stroke="white"/>
<line y1="-0.5" x2="107.461" y2="-0.5" transform="matrix(0.703545 -0.710651 0.703545 0.710651 -7.58594 87.2383)" stroke="white"/>
<line y1="-0.5" x2="107.461" y2="-0.5" transform="matrix(0.703545 -0.710651 0.703545 0.710651 37.2188 132.492)" stroke="white"/>
<line y1="-0.5" x2="107.461" y2="-0.5" transform="matrix(0.703545 -0.710651 0.703545 0.710651 14.8203 109.865)" stroke="white"/>
<line y1="-0.5" x2="107.461" y2="-0.5" transform="matrix(0.703545 -0.710651 0.703545 0.710651 -29.9844 64.6113)" stroke="white"/>
<line y1="-0.5" x2="107.461" y2="-0.5" transform="matrix(0.703545 -0.710651 0.703545 0.710651 3.61719 98.5527)" stroke="white"/>
<line y1="-0.5" x2="107.461" y2="-0.5" transform="matrix(0.703545 -0.710651 0.703545 0.710651 26.0195 121.18)" stroke="white"/>
<line y1="-0.5" x2="107.461" y2="-0.5" transform="matrix(0.703545 -0.710651 0.703545 0.710651 -18.7812 75.9238)" stroke="white"/>
<line y1="-0.5" x2="107.461" y2="-0.5" transform="matrix(0.703545 -0.710651 0.703545 0.710651 -1.98438 92.8945)" stroke="white"/>
<line y1="-0.5" x2="107.461" y2="-0.5" transform="matrix(0.703545 -0.710651 0.703545 0.710651 42.8203 138.15)" stroke="white"/>
<line y1="-0.5" x2="107.461" y2="-0.5" transform="matrix(0.703545 -0.710651 0.703545 0.710651 20.4141 115.521)" stroke="white"/>
<line y1="-0.5" x2="107.461" y2="-0.5" transform="matrix(0.703545 -0.710651 0.703545 0.710651 -24.3867 70.2676)" stroke="white"/>
<line y1="-0.5" x2="107.461" y2="-0.5" transform="matrix(0.703545 -0.710651 0.703545 0.710651 9.21484 104.209)" stroke="white"/>
<line y1="-0.5" x2="107.461" y2="-0.5" transform="matrix(0.703545 -0.710651 0.703545 0.710651 31.6172 126.836)" stroke="white"/>
<line y1="-0.5" x2="107.461" y2="-0.5" transform="matrix(0.703545 -0.710651 0.703545 0.710651 -13.1875 81.582)" stroke="white"/>
<line y1="-0.5" x2="107.461" y2="-0.5" transform="matrix(0.703545 -0.710651 0.703545 0.710651 -4.78125 90.0664)" stroke="white"/>
<line y1="-0.5" x2="107.461" y2="-0.5" transform="matrix(0.703545 -0.710651 0.703545 0.710651 40.0195 135.322)" stroke="white"/>
<line y1="-0.5" x2="107.461" y2="-0.5" transform="matrix(0.703545 -0.710651 0.703545 0.710651 17.6172 112.693)" stroke="white"/>
<line y1="-0.5" x2="107.461" y2="-0.5" transform="matrix(0.703545 -0.710651 0.703545 0.710651 -27.1875 67.4395)" stroke="white"/>
<line y1="-0.5" x2="107.461" y2="-0.5" transform="matrix(0.703545 -0.710651 0.703545 0.710651 6.41797 101.381)" stroke="white"/>
<line y1="-0.5" x2="107.461" y2="-0.5" transform="matrix(0.703545 -0.710651 0.703545 0.710651 28.8203 124.008)" stroke="white"/>
<line y1="-0.5" x2="107.461" y2="-0.5" transform="matrix(0.703545 -0.710651 0.703545 0.710651 -15.9844 78.752)" stroke="white"/>
</g>
<mask id="mask1_404_3977" style="mask-type:alpha" maskUnits="userSpaceOnUse" x="30" y="46" width="39" height="6">
<path d="M66 49.0352H33" stroke="white" stroke-width="5" stroke-linecap="round" stroke-linejoin="round"/>
</mask>
<g mask="url(#mask1_404_3977)">
<line y1="-0.5" x2="107.461" y2="-0.5" transform="matrix(0.703545 -0.710651 0.703545 0.710651 -0.582031 80.3086)" stroke="white"/>
<line y1="-0.5" x2="107.461" y2="-0.5" transform="matrix(0.703545 -0.710651 0.703545 0.710651 44.2227 125.564)" stroke="white"/>
<line y1="-0.5" x2="107.461" y2="-0.5" transform="matrix(0.703545 -0.710651 0.703545 0.710651 21.8203 102.938)" stroke="white"/>
<line y1="-0.5" x2="107.461" y2="-0.5" transform="matrix(0.703545 -0.710651 0.703545 0.710651 -22.9805 57.6816)" stroke="white"/>
<line y1="-0.5" x2="107.461" y2="-0.5" transform="matrix(0.703545 -0.710651 0.703545 0.710651 10.6211 91.623)" stroke="white"/>
<line y1="-0.5" x2="107.461" y2="-0.5" transform="matrix(0.703545 -0.710651 0.703545 0.710651 33.0195 114.25)" stroke="white"/>
<line y1="-0.5" x2="107.461" y2="-0.5" transform="matrix(0.703545 -0.710651 0.703545 0.710651 -11.7812 68.9961)" stroke="white"/>
<line y1="-0.5" x2="107.461" y2="-0.5" transform="matrix(0.703545 -0.710651 0.703545 0.710651 -8.98438 71.8242)" stroke="white"/>
<line y1="-0.5" x2="107.461" y2="-0.5" transform="matrix(0.703545 -0.710651 0.703545 0.710651 35.8203 117.078)" stroke="white"/>
<line y1="-0.5" x2="107.461" y2="-0.5" transform="matrix(0.703545 -0.710651 0.703545 0.710651 13.418 94.4512)" stroke="white"/>
<line y1="-0.5" x2="107.461" y2="-0.5" transform="matrix(0.703545 -0.710651 0.703545 0.710651 -31.3828 49.1973)" stroke="white"/>
<line y1="-0.5" x2="107.461" y2="-0.5" transform="matrix(0.703545 -0.710651 0.703545 0.710651 2.21875 83.1367)" stroke="white"/>
<line y1="-0.5" x2="107.461" y2="-0.5" transform="matrix(0.703545 -0.710651 0.703545 0.710651 47.0234 128.393)" stroke="white"/>
<line y1="-0.5" x2="107.461" y2="-0.5" transform="matrix(0.703545 -0.710651 0.703545 0.710651 24.6211 105.766)" stroke="white"/>
<line y1="-0.5" x2="107.461" y2="-0.5" transform="matrix(0.703545 -0.710651 0.703545 0.710651 -20.1836 60.5098)" stroke="white"/>
<line y1="-0.5" x2="107.461" y2="-0.5" transform="matrix(0.703545 -0.710651 0.703545 0.710651 -3.38281 77.4805)" stroke="white"/>
<line y1="-0.5" x2="107.461" y2="-0.5" transform="matrix(0.703545 -0.710651 0.703545 0.710651 41.4219 122.736)" stroke="white"/>
<line y1="-0.5" x2="107.461" y2="-0.5" transform="matrix(0.703545 -0.710651 0.703545 0.710651 19.0195 100.107)" stroke="white"/>
<line y1="-0.5" x2="107.461" y2="-0.5" transform="matrix(0.703545 -0.710651 0.703545 0.710651 -25.7812 54.8535)" stroke="white"/>
<line y1="-0.5" x2="107.461" y2="-0.5" transform="matrix(0.703545 -0.710651 0.703545 0.710651 7.82031 88.7949)" stroke="white"/>
<line y1="-0.5" x2="107.461" y2="-0.5" transform="matrix(0.703545 -0.710651 0.703545 0.710651 30.2148 111.422)" stroke="white"/>
<line y1="-0.5" x2="107.461" y2="-0.5" transform="matrix(0.703545 -0.710651 0.703545 0.710651 -14.582 66.168)" stroke="white"/>
<line y1="-0.5" x2="107.461" y2="-0.5" transform="matrix(0.703545 -0.710651 0.703545 0.710651 -6.1875 74.6523)" stroke="white"/>
<line y1="-0.5" x2="107.461" y2="-0.5" transform="matrix(0.703545 -0.710651 0.703545 0.710651 38.6211 119.906)" stroke="white"/>
<line y1="-0.5" x2="107.461" y2="-0.5" transform="matrix(0.703545 -0.710651 0.703545 0.710651 16.2188 97.2793)" stroke="white"/>
<line y1="-0.5" x2="107.461" y2="-0.5" transform="matrix(0.703545 -0.710651 0.703545 0.710651 -28.582 52.0254)" stroke="white"/>
<line y1="-0.5" x2="107.461" y2="-0.5" transform="matrix(0.703545 -0.710651 0.703545 0.710651 5.01953 85.9668)" stroke="white"/>
<line y1="-0.5" x2="107.461" y2="-0.5" transform="matrix(0.703545 -0.710651 0.703545 0.710651 27.418 108.594)" stroke="white"/>
<line y1="-0.5" x2="107.461" y2="-0.5" transform="matrix(0.703545 -0.710651 0.703545 0.710651 -17.3828 63.3379)" stroke="white"/>
<line y1="-0.5" x2="107.461" y2="-0.5" transform="matrix(0.703545 -0.710651 0.703545 0.710651 0.820312 81.7227)" stroke="white"/>
<line y1="-0.5" x2="107.461" y2="-0.5" transform="matrix(0.703545 -0.710651 0.703545 0.710651 45.6211 126.979)" stroke="white"/>
<line y1="-0.5" x2="107.461" y2="-0.5" transform="matrix(0.703545 -0.710651 0.703545 0.710651 23.2188 104.352)" stroke="white"/>
<line y1="-0.5" x2="107.461" y2="-0.5" transform="matrix(0.703545 -0.710651 0.703545 0.710651 -21.582 59.0957)" stroke="white"/>
<line y1="-0.5" x2="107.461" y2="-0.5" transform="matrix(0.703545 -0.710651 0.703545 0.710651 12.0156 93.0371)" stroke="white"/>
<line y1="-0.5" x2="107.461" y2="-0.5" transform="matrix(0.703545 -0.710651 0.703545 0.710651 -32.7812 47.7832)" stroke="white"/>
<line y1="-0.5" x2="107.461" y2="-0.5" transform="matrix(0.703545 -0.710651 0.703545 0.710651 34.418 115.664)" stroke="white"/>
<line y1="-0.5" x2="107.461" y2="-0.5" transform="matrix(0.703545 -0.710651 0.703545 0.710651 -10.3828 70.4102)" stroke="white"/>
<line y1="-0.5" x2="107.461" y2="-0.5" transform="matrix(0.703545 -0.710651 0.703545 0.710651 -7.58203 73.2383)" stroke="white"/>
<line y1="-0.5" x2="107.461" y2="-0.5" transform="matrix(0.703545 -0.710651 0.703545 0.710651 37.2227 118.492)" stroke="white"/>
<line y1="-0.5" x2="107.461" y2="-0.5" transform="matrix(0.703545 -0.710651 0.703545 0.710651 14.8203 95.8652)" stroke="white"/>
<line y1="-0.5" x2="107.461" y2="-0.5" transform="matrix(0.703545 -0.710651 0.703545 0.710651 -29.9805 50.6113)" stroke="white"/>
<line y1="-0.5" x2="107.461" y2="-0.5" transform="matrix(0.703545 -0.710651 0.703545 0.710651 3.62109 84.5527)" stroke="white"/>
<line y1="-0.5" x2="107.461" y2="-0.5" transform="matrix(0.703545 -0.710651 0.703545 0.710651 26.0195 107.18)" stroke="white"/>
<line y1="-0.5" x2="107.461" y2="-0.5" transform="matrix(0.703545 -0.710651 0.703545 0.710651 -18.7812 61.9238)" stroke="white"/>
<line y1="-0.5" x2="107.461" y2="-0.5" transform="matrix(0.703545 -0.710651 0.703545 0.710651 -1.98438 78.8945)" stroke="white"/>
<line y1="-0.5" x2="107.461" y2="-0.5" transform="matrix(0.703545 -0.710651 0.703545 0.710651 42.8203 124.15)" stroke="white"/>
<line y1="-0.5" x2="107.461" y2="-0.5" transform="matrix(0.703545 -0.710651 0.703545 0.710651 20.4141 101.523)" stroke="white"/>
<line y1="-0.5" x2="107.461" y2="-0.5" transform="matrix(0.703545 -0.710651 0.703545 0.710651 -24.3867 56.2676)" stroke="white"/>
<line y1="-0.5" x2="107.461" y2="-0.5" transform="matrix(0.703545 -0.710651 0.703545 0.710651 9.21875 90.209)" stroke="white"/>
<line y1="-0.5" x2="107.461" y2="-0.5" transform="matrix(0.703545 -0.710651 0.703545 0.710651 31.6172 112.836)" stroke="white"/>
<line y1="-0.5" x2="107.461" y2="-0.5" transform="matrix(0.703545 -0.710651 0.703545 0.710651 -13.1836 67.582)" stroke="white"/>
<line y1="-0.5" x2="107.461" y2="-0.5" transform="matrix(0.703545 -0.710651 0.703545 0.710651 -4.78125 76.0664)" stroke="white"/>
<line y1="-0.5" x2="107.461" y2="-0.5" transform="matrix(0.703545 -0.710651 0.703545 0.710651 40.0234 121.322)" stroke="white"/>
<line y1="-0.5" x2="107.461" y2="-0.5" transform="matrix(0.703545 -0.710651 0.703545 0.710651 17.6211 98.6934)" stroke="white"/>
<line y1="-0.5" x2="107.461" y2="-0.5" transform="matrix(0.703545 -0.710651 0.703545 0.710651 -27.1836 53.4395)" stroke="white"/>
<line y1="-0.5" x2="107.461" y2="-0.5" transform="matrix(0.703545 -0.710651 0.703545 0.710651 6.42188 87.3809)" stroke="white"/>
<line y1="-0.5" x2="107.461" y2="-0.5" transform="matrix(0.703545 -0.710651 0.703545 0.710651 28.8203 110.008)" stroke="white"/>
<line y1="-0.5" x2="107.461" y2="-0.5" transform="matrix(0.703545 -0.710651 0.703545 0.710651 -15.9844 64.752)" stroke="white"/>
</g>
<mask id="mask2_404_3977" style="mask-type:alpha" maskUnits="userSpaceOnUse" x="30" y="74" width="39" height="6">
<path d="M66 77.0352H33" stroke="white" stroke-width="5" stroke-linecap="round" stroke-linejoin="round"/>
</mask>
<g mask="url(#mask2_404_3977)">
<line y1="-0.5" x2="107.461" y2="-0.5" transform="matrix(0.703545 -0.710651 0.703545 0.710651 -0.585938 91.6426)" stroke="white"/>
<line y1="-0.5" x2="107.461" y2="-0.5" transform="matrix(0.703545 -0.710651 0.703545 0.710651 44.2188 136.898)" stroke="white"/>
<line y1="-0.5" x2="107.461" y2="-0.5" transform="matrix(0.703545 -0.710651 0.703545 0.710651 21.8203 114.271)" stroke="white"/>
<line y1="-0.5" x2="107.461" y2="-0.5" transform="matrix(0.703545 -0.710651 0.703545 0.710651 10.6172 102.957)" stroke="white"/>
<line y1="-0.5" x2="107.461" y2="-0.5" transform="matrix(0.703545 -0.710651 0.703545 0.710651 55.4219 148.211)" stroke="white"/>
<line y1="-0.5" x2="107.461" y2="-0.5" transform="matrix(0.703545 -0.710651 0.703545 0.710651 33.0195 125.584)" stroke="white"/>
<line y1="-0.5" x2="107.461" y2="-0.5" transform="matrix(0.703545 -0.710651 0.703545 0.710651 -11.7812 80.3301)" stroke="white"/>
<line y1="-0.5" x2="107.461" y2="-0.5" transform="matrix(0.703545 -0.710651 0.703545 0.710651 -8.98438 83.1582)" stroke="white"/>
<line y1="-0.5" x2="107.461" y2="-0.5" transform="matrix(0.703545 -0.710651 0.703545 0.710651 35.8203 128.412)" stroke="white"/>
<line y1="-0.5" x2="107.461" y2="-0.5" transform="matrix(0.703545 -0.710651 0.703545 0.710651 13.4141 105.785)" stroke="white"/>
<line y1="-0.5" x2="107.461" y2="-0.5" transform="matrix(0.703545 -0.710651 0.703545 0.710651 58.2188 151.041)" stroke="white"/>
<line y1="-0.5" x2="107.461" y2="-0.5" transform="matrix(0.703545 -0.710651 0.703545 0.710651 2.21875 94.4707)" stroke="white"/>
<line y1="-0.5" x2="107.461" y2="-0.5" transform="matrix(0.703545 -0.710651 0.703545 0.710651 47.0195 139.727)" stroke="white"/>
<line y1="-0.5" x2="107.461" y2="-0.5" transform="matrix(0.703545 -0.710651 0.703545 0.710651 24.6172 117.1)" stroke="white"/>
<line y1="-0.5" x2="107.461" y2="-0.5" transform="matrix(0.703545 -0.710651 0.703545 0.710651 -3.38672 88.8145)" stroke="white"/>
<line y1="-0.5" x2="107.461" y2="-0.5" transform="matrix(0.703545 -0.710651 0.703545 0.710651 41.4219 134.07)" stroke="white"/>
<line y1="-0.5" x2="107.461" y2="-0.5" transform="matrix(0.703545 -0.710651 0.703545 0.710651 19.0195 111.441)" stroke="white"/>
<line y1="-0.5" x2="107.461" y2="-0.5" transform="matrix(0.703545 -0.710651 0.703545 0.710651 7.82031 100.129)" stroke="white"/>
<line y1="-0.5" x2="107.461" y2="-0.5" transform="matrix(0.703545 -0.710651 0.703545 0.710651 52.6172 145.383)" stroke="white"/>
<line y1="-0.5" x2="107.461" y2="-0.5" transform="matrix(0.703545 -0.710651 0.703545 0.710651 30.2148 122.756)" stroke="white"/>
<line y1="-0.5" x2="107.461" y2="-0.5" transform="matrix(0.703545 -0.710651 0.703545 0.710651 -14.5859 77.502)" stroke="white"/>
<line y1="-0.5" x2="107.461" y2="-0.5" transform="matrix(0.703545 -0.710651 0.703545 0.710651 -6.1875 85.9863)" stroke="white"/>
<line y1="-0.5" x2="107.461" y2="-0.5" transform="matrix(0.703545 -0.710651 0.703545 0.710651 38.6172 131.24)" stroke="white"/>
<line y1="-0.5" x2="107.461" y2="-0.5" transform="matrix(0.703545 -0.710651 0.703545 0.710651 16.2148 108.613)" stroke="white"/>
<line y1="-0.5" x2="107.461" y2="-0.5" transform="matrix(0.703545 -0.710651 0.703545 0.710651 61.0195 153.869)" stroke="white"/>
<line y1="-0.5" x2="107.461" y2="-0.5" transform="matrix(0.703545 -0.710651 0.703545 0.710651 5.01953 97.3008)" stroke="white"/>
<line y1="-0.5" x2="107.461" y2="-0.5" transform="matrix(0.703545 -0.710651 0.703545 0.710651 49.8203 142.555)" stroke="white"/>
<line y1="-0.5" x2="107.461" y2="-0.5" transform="matrix(0.703545 -0.710651 0.703545 0.710651 27.4141 119.928)" stroke="white"/>
<line y1="-0.5" x2="107.461" y2="-0.5" transform="matrix(0.703545 -0.710651 0.703545 0.710651 -17.3828 74.6719)" stroke="white"/>
<line y1="-0.5" x2="107.461" y2="-0.5" transform="matrix(0.703545 -0.710651 0.703545 0.710651 0.820312 93.0566)" stroke="white"/>
<line y1="-0.5" x2="107.461" y2="-0.5" transform="matrix(0.703545 -0.710651 0.703545 0.710651 45.6172 138.312)" stroke="white"/>
<line y1="-0.5" x2="107.461" y2="-0.5" transform="matrix(0.703545 -0.710651 0.703545 0.710651 23.2148 115.686)" stroke="white"/>
<line y1="-0.5" x2="107.461" y2="-0.5" transform="matrix(0.703545 -0.710651 0.703545 0.710651 12.0156 104.371)" stroke="white"/>
<line y1="-0.5" x2="107.461" y2="-0.5" transform="matrix(0.703545 -0.710651 0.703545 0.710651 56.8203 149.625)" stroke="white"/>
<line y1="-0.5" x2="107.461" y2="-0.5" transform="matrix(0.703545 -0.710651 0.703545 0.710651 34.4141 126.998)" stroke="white"/>
<line y1="-0.5" x2="107.461" y2="-0.5" transform="matrix(0.703545 -0.710651 0.703545 0.710651 -10.3828 81.7441)" stroke="white"/>
<line y1="-0.5" x2="107.461" y2="-0.5" transform="matrix(0.703545 -0.710651 0.703545 0.710651 -7.58594 84.5723)" stroke="white"/>
<line y1="-0.5" x2="107.461" y2="-0.5" transform="matrix(0.703545 -0.710651 0.703545 0.710651 37.2188 129.826)" stroke="white"/>
<line y1="-0.5" x2="107.461" y2="-0.5" transform="matrix(0.703545 -0.710651 0.703545 0.710651 14.8203 107.199)" stroke="white"/>
<line y1="-0.5" x2="107.461" y2="-0.5" transform="matrix(0.703545 -0.710651 0.703545 0.710651 59.6172 152.455)" stroke="white"/>
<line y1="-0.5" x2="107.461" y2="-0.5" transform="matrix(0.703545 -0.710651 0.703545 0.710651 3.61719 95.8867)" stroke="white"/>
<line y1="-0.5" x2="107.461" y2="-0.5" transform="matrix(0.703545 -0.710651 0.703545 0.710651 48.418 141.141)" stroke="white"/>
<line y1="-0.5" x2="107.461" y2="-0.5" transform="matrix(0.703545 -0.710651 0.703545 0.710651 26.0195 118.514)" stroke="white"/>
<line y1="-0.5" x2="107.461" y2="-0.5" transform="matrix(0.703545 -0.710651 0.703545 0.710651 -1.98438 90.2285)" stroke="white"/>
<line y1="-0.5" x2="107.461" y2="-0.5" transform="matrix(0.703545 -0.710651 0.703545 0.710651 42.8203 135.484)" stroke="white"/>
<line y1="-0.5" x2="107.461" y2="-0.5" transform="matrix(0.703545 -0.710651 0.703545 0.710651 20.4141 112.855)" stroke="white"/>
<line y1="-0.5" x2="107.461" y2="-0.5" transform="matrix(0.703545 -0.710651 0.703545 0.710651 9.21484 101.543)" stroke="white"/>
<line y1="-0.5" x2="107.461" y2="-0.5" transform="matrix(0.703545 -0.710651 0.703545 0.710651 54.0195 146.797)" stroke="white"/>
<line y1="-0.5" x2="107.461" y2="-0.5" transform="matrix(0.703545 -0.710651 0.703545 0.710651 31.6172 124.17)" stroke="white"/>
<line y1="-0.5" x2="107.461" y2="-0.5" transform="matrix(0.703545 -0.710651 0.703545 0.710651 -13.1875 78.916)" stroke="white"/>
<line y1="-0.5" x2="107.461" y2="-0.5" transform="matrix(0.703545 -0.710651 0.703545 0.710651 -4.78125 87.4004)" stroke="white"/>
<line y1="-0.5" x2="107.461" y2="-0.5" transform="matrix(0.703545 -0.710651 0.703545 0.710651 40.0195 132.656)" stroke="white"/>
<line y1="-0.5" x2="107.461" y2="-0.5" transform="matrix(0.703545 -0.710651 0.703545 0.710651 17.6172 110.027)" stroke="white"/>
<line y1="-0.5" x2="107.461" y2="-0.5" transform="matrix(0.703545 -0.710651 0.703545 0.710651 62.4219 155.283)" stroke="white"/>
<line y1="-0.5" x2="107.461" y2="-0.5" transform="matrix(0.703545 -0.710651 0.703545 0.710651 6.41797 98.7148)" stroke="white"/>
<line y1="-0.5" x2="107.461" y2="-0.5" transform="matrix(0.703545 -0.710651 0.703545 0.710651 51.2188 143.969)" stroke="white"/>
<line y1="-0.5" x2="107.461" y2="-0.5" transform="matrix(0.703545 -0.710651 0.703545 0.710651 28.8203 121.342)" stroke="white"/>
<line y1="-0.5" x2="107.461" y2="-0.5" transform="matrix(0.703545 -0.710651 0.703545 0.710651 -15.9844 76.0859)" stroke="white"/>
</g>
<mask id="mask3_404_3977" style="mask-type:alpha" maskUnits="userSpaceOnUse" x="56" y="10" width="31" height="31">
<path d="M58.6641 13.0352V29.7018C58.6641 31.912 59.542 34.0316 61.1048 35.5944C62.6676 37.1572 64.7873 38.0352 66.9974 38.0352H83.6641" stroke="white" stroke-width="5" stroke-linecap="round" stroke-linejoin="round"/>
</mask>
<g mask="url(#mask3_404_3977)">
<line x1="-0.615272" y1="89.789" x2="75.7523" y2="13.4215" stroke="white"/>
<line x1="22.0136" y1="112.416" x2="98.3812" y2="36.0484" stroke="white"/>
<line x1="10.7011" y1="101.103" x2="87.0687" y2="24.7359" stroke="white"/>
<line x1="-11.9278" y1="78.4746" x2="64.4398" y2="2.10704" stroke="white"/>
<line x1="-9.09965" y1="81.3027" x2="67.2679" y2="4.93517" stroke="white"/>
<line x1="13.5293" y1="103.932" x2="89.8968" y2="27.5641" stroke="white"/>
<line x1="2.21285" y1="92.6171" x2="78.5804" y2="16.2496" stroke="white"/>
<line x1="24.8418" y1="115.244" x2="101.209" y2="38.8766" stroke="white"/>
<line x1="-20.4121" y1="69.9902" x2="55.9554" y2="-6.37733" stroke="white"/>
<line x1="-3.4434" y1="86.9609" x2="72.9241" y2="10.5934" stroke="white"/>
<line x1="19.1855" y1="109.588" x2="95.553" y2="33.2203" stroke="white"/>
<line x1="7.8691" y1="98.2734" x2="84.2366" y2="21.9059" stroke="white"/>
<line x1="-14.7559" y1="75.6464" x2="61.6116" y2="-0.721084" stroke="white"/>
<line x1="-6.27152" y1="84.1328" x2="70.096" y2="7.76524" stroke="white"/>
<line x1="16.3574" y1="106.76" x2="92.7249" y2="30.3922" stroke="white"/>
<line x1="5.04098" y1="95.4453" x2="81.4085" y2="19.0777" stroke="white"/>
<line x1="-17.584" y1="72.8183" x2="58.7835" y2="-3.54921" stroke="white"/>
<line x1="0.802697" y1="91.2031" x2="77.1702" y2="14.8356" stroke="white"/>
<line x1="23.4277" y1="113.83" x2="99.7952" y2="37.4625" stroke="white"/>
<line x1="12.1152" y1="102.518" x2="88.4827" y2="26.15" stroke="white"/>
<line x1="-10.5137" y1="79.8886" x2="65.8538" y2="3.5211" stroke="white"/>
<line x1="-7.68558" y1="82.7187" x2="68.6819" y2="6.35118" stroke="white"/>
<line x1="14.9433" y1="105.346" x2="91.3109" y2="28.9781" stroke="white"/>
<line x1="3.62692" y1="94.0312" x2="79.9944" y2="17.6637" stroke="white"/>
<line x1="26.2558" y1="116.658" x2="102.623" y2="40.2906" stroke="white"/>
<line x1="-18.9981" y1="71.4043" x2="57.3694" y2="-4.96327" stroke="white"/>
<line x1="-2.02933" y1="88.375" x2="74.3382" y2="12.0074" stroke="white"/>
<line x1="20.5996" y1="111.002" x2="96.9671" y2="34.6344" stroke="white"/>
<line x1="9.28317" y1="99.6875" x2="85.6507" y2="23.3199" stroke="white"/>
<line x1="-13.3418" y1="77.0605" x2="63.0257" y2="0.692978" stroke="white"/>
<line x1="-4.85746" y1="85.5468" x2="71.5101" y2="9.17931" stroke="white"/>
<line x1="17.7714" y1="108.174" x2="94.139" y2="31.8063" stroke="white"/>
<line x1="6.45504" y1="96.8593" x2="82.8226" y2="20.4918" stroke="white"/>
<line x1="-16.17" y1="74.2324" x2="60.1976" y2="-2.13515" stroke="white"/>
</g>
<mask id="mask4_404_3977" style="mask-type:alpha" maskUnits="userSpaceOnUse" x="14" y="10" width="73" height="89">
<path d="M62.8333 13.0352H25.3333C23.1232 13.0352 21.0036 13.9131 19.4408 15.4759C17.878 17.0387 17 19.1584 17 21.3685V88.0352C17 90.2453 17.878 92.3649 19.4408 93.9277C21.0036 95.4905 23.1232 96.3685 25.3333 96.3685H75.3333C77.5435 96.3685 79.6631 95.4905 81.2259 93.9277C82.7887 92.3649 83.6667 90.2453 83.6667 88.0352V33.8685L62.8333 13.0352Z" stroke="white" stroke-width="5" stroke-linecap="round" stroke-linejoin="round"/>
</mask>
<g mask="url(#mask4_404_3977)">
<line x1="-0.615272" y1="89.789" x2="75.7523" y2="13.4215" stroke="white"/>
<line x1="-45.8692" y1="44.5332" x2="30.4984" y2="-31.8344" stroke="white"/>
<line x1="44.6386" y1="135.043" x2="121.006" y2="58.6754" stroke="white"/>
<line x1="22.0136" y1="112.416" x2="98.3812" y2="36.0484" stroke="white"/>
<line x1="-23.2403" y1="67.1621" x2="53.1273" y2="-9.20546" stroke="white"/>
<line x1="67.2675" y1="157.672" x2="143.635" y2="81.3043" stroke="white"/>
<line x1="10.7011" y1="101.103" x2="87.0687" y2="24.7359" stroke="white"/>
<line x1="-34.5528" y1="55.8476" x2="41.8148" y2="-20.5199" stroke="white"/>
<line x1="55.955" y1="146.357" x2="132.323" y2="69.9899" stroke="white"/>
<line x1="33.3261" y1="123.73" x2="109.694" y2="47.3629" stroke="white"/>
<line x1="-11.9278" y1="78.4746" x2="64.4398" y2="2.10704" stroke="white"/>
<line x1="78.58" y1="168.984" x2="154.948" y2="92.6168" stroke="white"/>
<line x1="-9.09965" y1="81.3027" x2="67.2679" y2="4.93517" stroke="white"/>
<line x1="81.4082" y1="171.812" x2="157.776" y2="95.4449" stroke="white"/>
<line x1="-54.3536" y1="36.0488" x2="22.014" y2="-40.3187" stroke="white"/>
<line x1="36.1543" y1="126.559" x2="112.522" y2="50.191" stroke="white"/>
<line x1="13.5293" y1="103.932" x2="89.8968" y2="27.5641" stroke="white"/>
<line x1="-31.7286" y1="58.6757" x2="44.639" y2="-17.6918" stroke="white"/>
<line x1="58.7832" y1="149.186" x2="135.151" y2="72.818" stroke="white"/>
<line x1="2.21285" y1="92.6171" x2="78.5804" y2="16.2496" stroke="white"/>
<line x1="-43.0411" y1="47.3632" x2="33.3265" y2="-29.0043" stroke="white"/>
<line x1="47.4707" y1="137.873" x2="123.838" y2="61.5055" stroke="white"/>
<line x1="24.8418" y1="115.244" x2="101.209" y2="38.8766" stroke="white"/>
<line x1="-20.4121" y1="69.9902" x2="55.9554" y2="-6.37733" stroke="white"/>
<line x1="70.0957" y1="160.5" x2="146.463" y2="84.1324" stroke="white"/>
<line x1="-3.4434" y1="86.9609" x2="72.9241" y2="10.5934" stroke="white"/>
<line x1="-48.6973" y1="41.705" x2="27.6702" y2="-34.6625" stroke="white"/>
<line x1="41.8105" y1="132.215" x2="118.178" y2="55.8473" stroke="white"/>
<line x1="19.1855" y1="109.588" x2="95.553" y2="33.2203" stroke="white"/>
<line x1="-26.0684" y1="64.3339" x2="50.2991" y2="-12.0336" stroke="white"/>
<line x1="64.4394" y1="154.842" x2="140.807" y2="78.4742" stroke="white"/>
<line x1="7.8691" y1="98.2734" x2="84.2366" y2="21.9059" stroke="white"/>
<line x1="-37.3848" y1="53.0195" x2="38.9827" y2="-23.348" stroke="white"/>
<line x1="53.1269" y1="143.529" x2="129.494" y2="67.1617" stroke="white"/>
<line x1="30.498" y1="120.902" x2="106.866" y2="44.5348" stroke="white"/>
<line x1="-14.7559" y1="75.6464" x2="61.6116" y2="-0.721084" stroke="white"/>
<line x1="75.7519" y1="166.156" x2="152.119" y2="89.7887" stroke="white"/>
<line x1="-6.27152" y1="84.1328" x2="70.096" y2="7.76524" stroke="white"/>
<line x1="84.2402" y1="174.643" x2="160.608" y2="98.275" stroke="white"/>
<line x1="-51.5254" y1="38.8769" x2="24.8421" y2="-37.4906" stroke="white"/>
<line x1="38.9824" y1="129.387" x2="115.35" y2="53.0191" stroke="white"/>
<line x1="16.3574" y1="106.76" x2="92.7249" y2="30.3922" stroke="white"/>
<line x1="-28.9004" y1="61.5039" x2="47.4671" y2="-14.8637" stroke="white"/>
<line x1="61.6113" y1="152.014" x2="137.979" y2="75.6461" stroke="white"/>
<line x1="5.04098" y1="95.4453" x2="81.4085" y2="19.0777" stroke="white"/>
<line x1="-40.2129" y1="50.1914" x2="36.1546" y2="-26.1762" stroke="white"/>
<line x1="50.2988" y1="140.701" x2="126.666" y2="64.3336" stroke="white"/>
<line x1="27.6699" y1="118.072" x2="104.037" y2="41.7047" stroke="white"/>
<line x1="-17.584" y1="72.8183" x2="58.7835" y2="-3.54921" stroke="white"/>
<line x1="72.9238" y1="163.328" x2="149.291" y2="86.9606" stroke="white"/>
<line x1="0.802697" y1="91.2031" x2="77.1702" y2="14.8356" stroke="white"/>
<line x1="-44.4551" y1="45.9492" x2="31.9124" y2="-30.4184" stroke="white"/>
<line x1="46.0527" y1="136.457" x2="122.42" y2="60.0895" stroke="white"/>
<line x1="23.4277" y1="113.83" x2="99.7952" y2="37.4625" stroke="white"/>
<line x1="-21.8262" y1="68.5761" x2="54.5413" y2="-7.7914" stroke="white"/>
<line x1="68.6816" y1="159.086" x2="145.049" y2="82.7184" stroke="white"/>
<line x1="12.1152" y1="102.518" x2="88.4827" y2="26.15" stroke="white"/>
<line x1="-33.1426" y1="57.2617" x2="43.2249" y2="-19.1059" stroke="white"/>
<line x1="57.3691" y1="147.771" x2="133.737" y2="71.4039" stroke="white"/>
<line x1="34.7402" y1="125.144" x2="111.108" y2="48.777" stroke="white"/>
<line x1="-10.5137" y1="79.8886" x2="65.8538" y2="3.5211" stroke="white"/>
<line x1="79.9941" y1="170.398" x2="156.362" y2="94.0309" stroke="white"/>
<line x1="-7.68558" y1="82.7187" x2="68.6819" y2="6.35118" stroke="white"/>
<line x1="82.8261" y1="173.228" x2="159.194" y2="96.8609" stroke="white"/>
<line x1="-52.9395" y1="37.4629" x2="23.428" y2="-38.9047" stroke="white"/>
<line x1="37.5722" y1="127.973" x2="113.94" y2="51.6051" stroke="white"/>
<line x1="14.9433" y1="105.346" x2="91.3109" y2="28.9781" stroke="white"/>
<line x1="-30.3145" y1="60.0898" x2="46.053" y2="-16.2777" stroke="white"/>
<line x1="60.1972" y1="150.6" x2="136.565" y2="74.232" stroke="white"/>
<line x1="3.62692" y1="94.0312" x2="79.9944" y2="17.6637" stroke="white"/>
<line x1="-41.627" y1="48.7773" x2="34.7405" y2="-27.5902" stroke="white"/>
<line x1="48.8847" y1="139.287" x2="125.252" y2="62.9195" stroke="white"/>
<line x1="26.2558" y1="116.658" x2="102.623" y2="40.2906" stroke="white"/>
<line x1="-18.9981" y1="71.4043" x2="57.3694" y2="-4.96327" stroke="white"/>
<line x1="71.5097" y1="161.914" x2="147.877" y2="85.5465" stroke="white"/>
<line x1="-2.02933" y1="88.375" x2="74.3382" y2="12.0074" stroke="white"/>
<line x1="-47.2832" y1="43.1191" x2="29.0843" y2="-33.2484" stroke="white"/>
<line x1="43.2246" y1="133.629" x2="119.592" y2="57.2613" stroke="white"/>
<line x1="20.5996" y1="111.002" x2="96.9671" y2="34.6344" stroke="white"/>
<line x1="-24.6543" y1="65.748" x2="51.7132" y2="-10.6195" stroke="white"/>
<line x1="65.8535" y1="156.258" x2="142.221" y2="79.8902" stroke="white"/>
<line x1="9.28317" y1="99.6875" x2="85.6507" y2="23.3199" stroke="white"/>
<line x1="-35.9668" y1="54.4336" x2="40.4007" y2="-21.934" stroke="white"/>
<line x1="54.541" y1="144.943" x2="130.909" y2="68.5758" stroke="white"/>
<line x1="31.9121" y1="122.316" x2="108.28" y2="45.9488" stroke="white"/>
<line x1="-13.3418" y1="77.0605" x2="63.0257" y2="0.692978" stroke="white"/>
<line x1="77.166" y1="167.57" x2="153.534" y2="91.2027" stroke="white"/>
<line x1="-4.85746" y1="85.5468" x2="71.5101" y2="9.17931" stroke="white"/>
<line x1="-50.1114" y1="40.291" x2="26.2562" y2="-36.0766" stroke="white"/>
<line x1="40.3964" y1="130.801" x2="116.764" y2="54.4332" stroke="white"/>
<line x1="17.7714" y1="108.174" x2="94.139" y2="31.8063" stroke="white"/>
<line x1="-27.4864" y1="62.9179" x2="48.8812" y2="-13.4496" stroke="white"/>
<line x1="63.0254" y1="153.428" x2="139.393" y2="77.0602" stroke="white"/>
<line x1="6.45504" y1="96.8593" x2="82.8226" y2="20.4918" stroke="white"/>
<line x1="-38.7989" y1="51.6054" x2="37.5687" y2="-24.7621" stroke="white"/>
<line x1="51.7129" y1="142.115" x2="128.08" y2="65.7477" stroke="white"/>
<line x1="29.0839" y1="119.488" x2="105.451" y2="43.1207" stroke="white"/>
<line x1="-16.17" y1="74.2324" x2="60.1976" y2="-2.13515" stroke="white"/>
<line x1="74.3418" y1="164.742" x2="150.709" y2="88.3746" stroke="white"/>
</g>
</g>
</svg>
