<svg width="100" height="101" viewBox="0 0 100 101" fill="none" xmlns="http://www.w3.org/2000/svg">
<g opacity="0.5">
<mask id="mask0_404_6424" style="mask-type:alpha" maskUnits="userSpaceOnUse" x="7" y="12" width="86" height="86">
<path d="M50 95.0352C72.0914 95.0352 90 77.1265 90 55.0352C90 32.9438 72.0914 15.0352 50 15.0352C27.9086 15.0352 10 32.9438 10 55.0352C10 77.1265 27.9086 95.0352 50 95.0352Z" stroke="black" stroke-width="5" stroke-linecap="round" stroke-linejoin="round"/>
</mask>
<g mask="url(#mask0_404_6424)">
<line x1="-21.3262" y1="63.7461" x2="51.9866" y2="-9.56677" stroke="white"/>
<line x1="65.5644" y1="150.635" x2="138.877" y2="77.3219" stroke="white"/>
<line x1="-64.7715" y1="20.3007" x2="8.54131" y2="-53.0121" stroke="white"/>
<line x1="22.123" y1="107.191" x2="95.4358" y2="33.8785" stroke="white"/>
<line x1="0.396447" y1="85.4687" x2="73.7093" y2="12.1559" stroke="white"/>
<line x1="-43.045" y1="42.0234" x2="30.2679" y2="-31.2894" stroke="white"/>
<line x1="43.8418" y1="128.912" x2="117.155" y2="55.5992" stroke="white"/>
<line x1="-10.4629" y1="74.6074" x2="62.8499" y2="1.29455" stroke="white"/>
<line x1="76.4238" y1="161.496" x2="149.737" y2="88.1832" stroke="white"/>
<line x1="-53.9082" y1="31.1621" x2="19.4046" y2="-42.1508" stroke="white"/>
<line x1="32.9785" y1="118.051" x2="106.291" y2="44.7379" stroke="white"/>
<line x1="11.2597" y1="96.33" x2="84.5726" y2="23.0172" stroke="white"/>
<line x1="-32.1856" y1="52.8847" x2="41.1272" y2="-20.4281" stroke="white"/>
<line x1="54.705" y1="139.773" x2="128.018" y2="66.4606" stroke="white"/>
<line x1="-29.4707" y1="55.5996" x2="43.8421" y2="-17.7133" stroke="white"/>
<line x1="57.4199" y1="142.488" x2="130.733" y2="69.1754" stroke="white"/>
<line x1="13.9746" y1="99.0449" x2="87.2874" y2="25.7321" stroke="white"/>
<line x1="-7.74808" y1="77.3222" x2="65.5647" y2="4.0094" stroke="white"/>
<line x1="79.1386" y1="164.211" x2="152.451" y2="90.8981" stroke="white"/>
<line x1="-51.1895" y1="33.8769" x2="22.1233" y2="-39.4359" stroke="white"/>
<line x1="35.6933" y1="120.768" x2="109.006" y2="47.4547" stroke="white"/>
<line x1="-18.6075" y1="66.4609" x2="54.7054" y2="-6.85193" stroke="white"/>
<line x1="68.2793" y1="153.35" x2="141.592" y2="80.0367" stroke="white"/>
<line x1="-62.0528" y1="23.0156" x2="11.2601" y2="-50.2972" stroke="white"/>
<line x1="24.8339" y1="109.906" x2="98.1468" y2="36.5934" stroke="white"/>
<line x1="3.1152" y1="88.1836" x2="76.428" y2="14.8707" stroke="white"/>
<line x1="-40.334" y1="44.7382" x2="32.9788" y2="-28.5746" stroke="white"/>
<line x1="46.5566" y1="131.629" x2="119.869" y2="58.316" stroke="white"/>
<line x1="-24.0411" y1="61.0312" x2="49.2718" y2="-12.2816" stroke="white"/>
<line x1="62.8496" y1="147.92" x2="136.162" y2="74.6071" stroke="white"/>
<line x1="19.4043" y1="104.475" x2="92.7171" y2="31.1617" stroke="white"/>
<line x1="-2.3184" y1="82.7519" x2="70.9944" y2="9.43909" stroke="white"/>
<line x1="84.5683" y1="169.643" x2="157.881" y2="96.3297" stroke="white"/>
<line x1="-45.7637" y1="39.3086" x2="27.5491" y2="-34.0043" stroke="white"/>
<line x1="41.1269" y1="126.197" x2="114.44" y2="52.8844" stroke="white"/>
<line x1="-13.1778" y1="71.8925" x2="60.1351" y2="-1.42029" stroke="white"/>
<line x1="73.7089" y1="158.781" x2="147.022" y2="85.4684" stroke="white"/>
<line x1="-56.627" y1="28.4472" x2="16.6858" y2="-44.8656" stroke="white"/>
<line x1="30.2636" y1="115.336" x2="103.576" y2="42.0231" stroke="white"/>
<line x1="8.54098" y1="93.6132" x2="81.8538" y2="20.3004" stroke="white"/>
<line x1="-34.9004" y1="50.1699" x2="38.4124" y2="-23.1429" stroke="white"/>
<line x1="51.9902" y1="137.059" x2="125.303" y2="63.7457" stroke="white"/>
<line x1="-26.7559" y1="58.3144" x2="46.5569" y2="-14.9984" stroke="white"/>
<line x1="60.1347" y1="145.205" x2="133.448" y2="71.8922" stroke="white"/>
<line x1="16.6894" y1="101.76" x2="90.0022" y2="28.4469" stroke="white"/>
<line x1="-5.03324" y1="80.0371" x2="68.2796" y2="6.72424" stroke="white"/>
<line x1="81.8535" y1="166.928" x2="155.166" y2="93.6149" stroke="white"/>
<line x1="-48.4746" y1="36.5937" x2="24.8382" y2="-36.7191" stroke="white"/>
<line x1="38.4121" y1="123.482" x2="111.725" y2="50.1696" stroke="white"/>
<line x1="-15.8926" y1="69.1757" x2="57.4202" y2="-4.13709" stroke="white"/>
<line x1="70.9941" y1="156.066" x2="144.307" y2="82.7535" stroke="white"/>
<line x1="-59.3418" y1="25.7324" x2="13.971" y2="-47.5804" stroke="white"/>
<line x1="27.5488" y1="112.621" x2="100.862" y2="39.3082" stroke="white"/>
<line x1="5.82613" y1="90.8984" x2="79.139" y2="17.5856" stroke="white"/>
<line x1="-37.6192" y1="47.4531" x2="35.6937" y2="-25.8597" stroke="white"/>
<line x1="49.2714" y1="134.344" x2="122.584" y2="61.0309" stroke="white"/>
<line x1="-19.9668" y1="65.1035" x2="53.346" y2="-8.20935" stroke="white"/>
<line x1="66.9199" y1="151.992" x2="140.233" y2="78.6793" stroke="white"/>
<line x1="-63.4121" y1="21.6582" x2="9.90068" y2="-51.6547" stroke="white"/>
<line x1="23.4785" y1="108.549" x2="96.7913" y2="35.236" stroke="white"/>
<line x1="1.75582" y1="86.8261" x2="75.0686" y2="13.5133" stroke="white"/>
<line x1="-41.6895" y1="43.3808" x2="31.6233" y2="-29.932" stroke="white"/>
<line x1="45.1972" y1="130.269" x2="118.51" y2="56.9567" stroke="white"/>
<line x1="-9.10355" y1="75.9648" x2="64.2093" y2="2.65198" stroke="white"/>
<line x1="77.7832" y1="162.853" x2="151.096" y2="89.5406" stroke="white"/>
<line x1="-52.5489" y1="32.5195" x2="20.764" y2="-40.7933" stroke="white"/>
<line x1="34.3379" y1="119.41" x2="107.651" y2="46.0973" stroke="white"/>
<line x1="12.6152" y1="97.6875" x2="85.928" y2="24.3746" stroke="white"/>
<line x1="-30.8262" y1="54.2421" x2="42.4866" y2="-19.0707" stroke="white"/>
<line x1="56.0605" y1="141.131" x2="129.373" y2="67.818" stroke="white"/>
<line x1="-28.1153" y1="56.957" x2="45.1976" y2="-16.3558" stroke="white"/>
<line x1="58.7754" y1="143.848" x2="132.088" y2="70.5348" stroke="white"/>
<line x1="15.3339" y1="100.402" x2="88.6468" y2="27.0895" stroke="white"/>
<line x1="-6.39262" y1="78.6796" x2="66.9202" y2="5.36682" stroke="white"/>
<line x1="80.498" y1="165.568" x2="153.811" y2="92.2555" stroke="white"/>
<line x1="-49.834" y1="35.2343" x2="23.4788" y2="-38.0785" stroke="white"/>
<line x1="37.0527" y1="122.125" x2="110.366" y2="48.8121" stroke="white"/>
<line x1="-17.252" y1="67.8183" x2="56.0608" y2="-5.49451" stroke="white"/>
<line x1="69.6386" y1="154.709" x2="142.951" y2="81.3961" stroke="white"/>
<line x1="-60.6973" y1="24.375" x2="12.6155" y2="-48.9379" stroke="white"/>
<line x1="26.1933" y1="111.264" x2="99.5061" y2="37.9508" stroke="white"/>
<line x1="4.47067" y1="89.541" x2="77.7835" y2="16.2281" stroke="white"/>
<line x1="-38.9746" y1="46.0957" x2="34.3382" y2="-27.2172" stroke="white"/>
<line x1="47.9121" y1="132.986" x2="121.225" y2="59.6735" stroke="white"/>
<line x1="-22.6817" y1="62.3886" x2="50.6312" y2="-10.9242" stroke="white"/>
<line x1="64.205" y1="149.277" x2="137.518" y2="75.9645" stroke="white"/>
<line x1="-66.127" y1="18.9433" x2="7.18584" y2="-54.3695" stroke="white"/>
<line x1="20.7636" y1="105.832" x2="94.0765" y2="32.5192" stroke="white"/>
<line x1="-0.959022" y1="84.1113" x2="72.3538" y2="10.7985" stroke="white"/>
<line x1="85.9316" y1="171" x2="159.244" y2="97.6871" stroke="white"/>
<line x1="-44.4043" y1="40.666" x2="28.9085" y2="-32.6469" stroke="white"/>
<line x1="42.4824" y1="127.555" x2="115.795" y2="54.2418" stroke="white"/>
<line x1="-11.8184" y1="73.25" x2="61.4944" y2="-0.0628678" stroke="white"/>
<line x1="75.0683" y1="160.139" x2="148.381" y2="86.8258" stroke="white"/>
<line x1="-55.2637" y1="29.8046" x2="18.0491" y2="-43.5082" stroke="white"/>
<line x1="31.623" y1="116.693" x2="104.936" y2="43.3805" stroke="white"/>
<line x1="9.90035" y1="94.9707" x2="83.2132" y2="21.6578" stroke="white"/>
<line x1="-33.545" y1="51.5273" x2="39.7679" y2="-21.7855" stroke="white"/>
<line x1="53.3457" y1="138.416" x2="126.658" y2="65.1031" stroke="white"/>
<line x1="-25.3965" y1="59.6718" x2="47.9163" y2="-13.641" stroke="white"/>
<line x1="61.4902" y1="146.562" x2="134.803" y2="73.2496" stroke="white"/>
<line x1="18.0488" y1="103.117" x2="91.3616" y2="29.8043" stroke="white"/>
<line x1="-3.67777" y1="81.3945" x2="69.6351" y2="8.08166" stroke="white"/>
<line x1="83.2129" y1="168.285" x2="156.526" y2="94.9723" stroke="white"/>
<line x1="-47.1192" y1="37.9511" x2="26.1937" y2="-35.3617" stroke="white"/>
<line x1="39.7675" y1="124.84" x2="113.08" y2="51.527" stroke="white"/>
<line x1="-14.5371" y1="70.5332" x2="58.7757" y2="-2.77966" stroke="white"/>
<line x1="72.3496" y1="157.424" x2="145.662" y2="84.111" stroke="white"/>
<line x1="-57.9825" y1="27.0898" x2="15.3304" y2="-46.223" stroke="white"/>
<line x1="28.9082" y1="113.978" x2="102.221" y2="40.6656" stroke="white"/>
<line x1="7.18551" y1="92.2558" x2="80.4983" y2="18.943" stroke="white"/>
<line x1="-36.2598" y1="48.8125" x2="37.053" y2="-24.5004" stroke="white"/>
<line x1="50.6308" y1="135.701" x2="123.944" y2="62.3883" stroke="white"/>
</g>
<mask id="mask1_404_6424" style="mask-type:alpha" maskUnits="userSpaceOnUse" x="31" y="12" width="38" height="86">
<path d="M50 15.0352C39.7289 25.8198 34 40.1421 34 55.0352C34 69.9282 39.7289 84.2505 50 95.0352C60.2711 84.2505 66 69.9282 66 55.0352C66 40.1421 60.2711 25.8198 50 15.0352Z" stroke="black" stroke-width="5" stroke-linecap="round" stroke-linejoin="round"/>
</mask>
<g mask="url(#mask1_404_6424)">
<line x1="-21.3262" y1="63.7461" x2="51.9866" y2="-9.56677" stroke="white"/>
<line x1="65.5644" y1="150.635" x2="138.877" y2="77.3219" stroke="white"/>
<line x1="22.123" y1="107.191" x2="95.4358" y2="33.8785" stroke="white"/>
<line x1="0.396447" y1="85.4687" x2="73.7093" y2="12.1559" stroke="white"/>
<line x1="43.8418" y1="128.912" x2="117.155" y2="55.5992" stroke="white"/>
<line x1="-10.4629" y1="74.6074" x2="62.8499" y2="1.29455" stroke="white"/>
<line x1="32.9785" y1="118.051" x2="106.291" y2="44.7379" stroke="white"/>
<line x1="11.2597" y1="96.33" x2="84.5726" y2="23.0172" stroke="white"/>
<line x1="-32.1856" y1="52.8847" x2="41.1272" y2="-20.4281" stroke="white"/>
<line x1="54.705" y1="139.773" x2="128.018" y2="66.4606" stroke="white"/>
<line x1="-29.4707" y1="55.5996" x2="43.8421" y2="-17.7133" stroke="white"/>
<line x1="57.4199" y1="142.488" x2="130.733" y2="69.1754" stroke="white"/>
<line x1="13.9746" y1="99.0449" x2="87.2874" y2="25.7321" stroke="white"/>
<line x1="-7.74808" y1="77.3222" x2="65.5647" y2="4.0094" stroke="white"/>
<line x1="35.6933" y1="120.768" x2="109.006" y2="47.4547" stroke="white"/>
<line x1="-18.6075" y1="66.4609" x2="54.7054" y2="-6.85193" stroke="white"/>
<line x1="68.2793" y1="153.35" x2="141.592" y2="80.0367" stroke="white"/>
<line x1="24.8339" y1="109.906" x2="98.1468" y2="36.5934" stroke="white"/>
<line x1="3.1152" y1="88.1836" x2="76.428" y2="14.8707" stroke="white"/>
<line x1="-40.334" y1="44.7382" x2="32.9788" y2="-28.5746" stroke="white"/>
<line x1="46.5566" y1="131.629" x2="119.869" y2="58.316" stroke="white"/>
<line x1="-24.0411" y1="61.0312" x2="49.2718" y2="-12.2816" stroke="white"/>
<line x1="62.8496" y1="147.92" x2="136.162" y2="74.6071" stroke="white"/>
<line x1="19.4043" y1="104.475" x2="92.7171" y2="31.1617" stroke="white"/>
<line x1="-2.3184" y1="82.7519" x2="70.9944" y2="9.43909" stroke="white"/>
<line x1="41.1269" y1="126.197" x2="114.44" y2="52.8844" stroke="white"/>
<line x1="-13.1778" y1="71.8925" x2="60.1351" y2="-1.42029" stroke="white"/>
<line x1="30.2636" y1="115.336" x2="103.576" y2="42.0231" stroke="white"/>
<line x1="8.54098" y1="93.6132" x2="81.8538" y2="20.3004" stroke="white"/>
<line x1="-34.9004" y1="50.1699" x2="38.4124" y2="-23.1429" stroke="white"/>
<line x1="51.9902" y1="137.059" x2="125.303" y2="63.7457" stroke="white"/>
<line x1="-26.7559" y1="58.3144" x2="46.5569" y2="-14.9984" stroke="white"/>
<line x1="60.1347" y1="145.205" x2="133.448" y2="71.8922" stroke="white"/>
<line x1="16.6894" y1="101.76" x2="90.0022" y2="28.4469" stroke="white"/>
<line x1="-5.03324" y1="80.0371" x2="68.2796" y2="6.72424" stroke="white"/>
<line x1="38.4121" y1="123.482" x2="111.725" y2="50.1696" stroke="white"/>
<line x1="-15.8926" y1="69.1757" x2="57.4202" y2="-4.13709" stroke="white"/>
<line x1="27.5488" y1="112.621" x2="100.862" y2="39.3082" stroke="white"/>
<line x1="5.82613" y1="90.8984" x2="79.139" y2="17.5856" stroke="white"/>
<line x1="-37.6192" y1="47.4531" x2="35.6937" y2="-25.8597" stroke="white"/>
<line x1="49.2714" y1="134.344" x2="122.584" y2="61.0309" stroke="white"/>
<line x1="-19.9668" y1="65.1035" x2="53.346" y2="-8.20935" stroke="white"/>
<line x1="66.9199" y1="151.992" x2="140.233" y2="78.6793" stroke="white"/>
<line x1="23.4785" y1="108.549" x2="96.7913" y2="35.236" stroke="white"/>
<line x1="1.75582" y1="86.8261" x2="75.0686" y2="13.5133" stroke="white"/>
<line x1="-41.6895" y1="43.3808" x2="31.6233" y2="-29.932" stroke="white"/>
<line x1="45.1972" y1="130.269" x2="118.51" y2="56.9567" stroke="white"/>
<line x1="-9.10355" y1="75.9648" x2="64.2093" y2="2.65198" stroke="white"/>
<line x1="34.3379" y1="119.41" x2="107.651" y2="46.0973" stroke="white"/>
<line x1="12.6152" y1="97.6875" x2="85.928" y2="24.3746" stroke="white"/>
<line x1="-30.8262" y1="54.2421" x2="42.4866" y2="-19.0707" stroke="white"/>
<line x1="56.0605" y1="141.131" x2="129.373" y2="67.818" stroke="white"/>
<line x1="-28.1153" y1="56.957" x2="45.1976" y2="-16.3558" stroke="white"/>
<line x1="58.7754" y1="143.848" x2="132.088" y2="70.5348" stroke="white"/>
<line x1="15.3339" y1="100.402" x2="88.6468" y2="27.0895" stroke="white"/>
<line x1="-6.39262" y1="78.6796" x2="66.9202" y2="5.36682" stroke="white"/>
<line x1="37.0527" y1="122.125" x2="110.366" y2="48.8121" stroke="white"/>
<line x1="-17.252" y1="67.8183" x2="56.0608" y2="-5.49451" stroke="white"/>
<line x1="26.1933" y1="111.264" x2="99.5061" y2="37.9508" stroke="white"/>
<line x1="4.47067" y1="89.541" x2="77.7835" y2="16.2281" stroke="white"/>
<line x1="-38.9746" y1="46.0957" x2="34.3382" y2="-27.2172" stroke="white"/>
<line x1="47.9121" y1="132.986" x2="121.225" y2="59.6735" stroke="white"/>
<line x1="-22.6817" y1="62.3886" x2="50.6312" y2="-10.9242" stroke="white"/>
<line x1="64.205" y1="149.277" x2="137.518" y2="75.9645" stroke="white"/>
<line x1="20.7636" y1="105.832" x2="94.0765" y2="32.5192" stroke="white"/>
<line x1="-0.959022" y1="84.1113" x2="72.3538" y2="10.7985" stroke="white"/>
<line x1="42.4824" y1="127.555" x2="115.795" y2="54.2418" stroke="white"/>
<line x1="-11.8184" y1="73.25" x2="61.4944" y2="-0.0628678" stroke="white"/>
<line x1="31.623" y1="116.693" x2="104.936" y2="43.3805" stroke="white"/>
<line x1="9.90035" y1="94.9707" x2="83.2132" y2="21.6578" stroke="white"/>
<line x1="-33.545" y1="51.5273" x2="39.7679" y2="-21.7855" stroke="white"/>
<line x1="53.3457" y1="138.416" x2="126.658" y2="65.1031" stroke="white"/>
<line x1="-25.3965" y1="59.6718" x2="47.9163" y2="-13.641" stroke="white"/>
<line x1="61.4902" y1="146.562" x2="134.803" y2="73.2496" stroke="white"/>
<line x1="18.0488" y1="103.117" x2="91.3616" y2="29.8043" stroke="white"/>
<line x1="-3.67777" y1="81.3945" x2="69.6351" y2="8.08166" stroke="white"/>
<line x1="39.7675" y1="124.84" x2="113.08" y2="51.527" stroke="white"/>
<line x1="-14.5371" y1="70.5332" x2="58.7757" y2="-2.77966" stroke="white"/>
<line x1="28.9082" y1="113.978" x2="102.221" y2="40.6656" stroke="white"/>
<line x1="7.18551" y1="92.2558" x2="80.4983" y2="18.943" stroke="white"/>
<line x1="-36.2598" y1="48.8125" x2="37.053" y2="-24.5004" stroke="white"/>
<line x1="50.6308" y1="135.701" x2="123.944" y2="62.3883" stroke="white"/>
</g>
<mask id="mask2_404_6424" style="mask-type:alpha" maskUnits="userSpaceOnUse" x="7" y="52" width="86" height="6">
<path d="M10 55.0352H90" stroke="black" stroke-width="5" stroke-linecap="round" stroke-linejoin="round"/>
</mask>
<g mask="url(#mask2_404_6424)">
<line x1="-21.3262" y1="63.7461" x2="51.9866" y2="-9.56677" stroke="white"/>
<line x1="22.123" y1="107.191" x2="95.4358" y2="33.8785" stroke="white"/>
<line x1="0.396447" y1="85.4687" x2="73.7093" y2="12.1559" stroke="white"/>
<line x1="43.8418" y1="128.912" x2="117.155" y2="55.5992" stroke="white"/>
<line x1="-10.4629" y1="74.6074" x2="62.8499" y2="1.29455" stroke="white"/>
<line x1="32.9785" y1="118.051" x2="106.291" y2="44.7379" stroke="white"/>
<line x1="11.2597" y1="96.33" x2="84.5726" y2="23.0172" stroke="white"/>
<line x1="-32.1856" y1="52.8847" x2="41.1272" y2="-20.4281" stroke="white"/>
<line x1="-29.4707" y1="55.5996" x2="43.8421" y2="-17.7133" stroke="white"/>
<line x1="13.9746" y1="99.0449" x2="87.2874" y2="25.7321" stroke="white"/>
<line x1="-7.74808" y1="77.3222" x2="65.5647" y2="4.0094" stroke="white"/>
<line x1="35.6933" y1="120.768" x2="109.006" y2="47.4547" stroke="white"/>
<line x1="-18.6075" y1="66.4609" x2="54.7054" y2="-6.85193" stroke="white"/>
<line x1="24.8339" y1="109.906" x2="98.1468" y2="36.5934" stroke="white"/>
<line x1="3.1152" y1="88.1836" x2="76.428" y2="14.8707" stroke="white"/>
<line x1="-24.0411" y1="61.0312" x2="49.2718" y2="-12.2816" stroke="white"/>
<line x1="19.4043" y1="104.475" x2="92.7171" y2="31.1617" stroke="white"/>
<line x1="-2.3184" y1="82.7519" x2="70.9944" y2="9.43909" stroke="white"/>
<line x1="41.1269" y1="126.197" x2="114.44" y2="52.8844" stroke="white"/>
<line x1="-13.1778" y1="71.8925" x2="60.1351" y2="-1.42029" stroke="white"/>
<line x1="30.2636" y1="115.336" x2="103.576" y2="42.0231" stroke="white"/>
<line x1="8.54098" y1="93.6132" x2="81.8538" y2="20.3004" stroke="white"/>
<line x1="-26.7559" y1="58.3144" x2="46.5569" y2="-14.9984" stroke="white"/>
<line x1="16.6894" y1="101.76" x2="90.0022" y2="28.4469" stroke="white"/>
<line x1="-5.03324" y1="80.0371" x2="68.2796" y2="6.72424" stroke="white"/>
<line x1="38.4121" y1="123.482" x2="111.725" y2="50.1696" stroke="white"/>
<line x1="-15.8926" y1="69.1757" x2="57.4202" y2="-4.13709" stroke="white"/>
<line x1="27.5488" y1="112.621" x2="100.862" y2="39.3082" stroke="white"/>
<line x1="5.82613" y1="90.8984" x2="79.139" y2="17.5856" stroke="white"/>
<line x1="-19.9668" y1="65.1035" x2="53.346" y2="-8.20935" stroke="white"/>
<line x1="23.4785" y1="108.549" x2="96.7913" y2="35.236" stroke="white"/>
<line x1="1.75582" y1="86.8261" x2="75.0686" y2="13.5133" stroke="white"/>
<line x1="45.1972" y1="130.269" x2="118.51" y2="56.9567" stroke="white"/>
<line x1="-9.10355" y1="75.9648" x2="64.2093" y2="2.65198" stroke="white"/>
<line x1="34.3379" y1="119.41" x2="107.651" y2="46.0973" stroke="white"/>
<line x1="12.6152" y1="97.6875" x2="85.928" y2="24.3746" stroke="white"/>
<line x1="-30.8262" y1="54.2421" x2="42.4866" y2="-19.0707" stroke="white"/>
<line x1="-28.1153" y1="56.957" x2="45.1976" y2="-16.3558" stroke="white"/>
<line x1="15.3339" y1="100.402" x2="88.6468" y2="27.0895" stroke="white"/>
<line x1="-6.39262" y1="78.6796" x2="66.9202" y2="5.36682" stroke="white"/>
<line x1="37.0527" y1="122.125" x2="110.366" y2="48.8121" stroke="white"/>
<line x1="-17.252" y1="67.8183" x2="56.0608" y2="-5.49451" stroke="white"/>
<line x1="26.1933" y1="111.264" x2="99.5061" y2="37.9508" stroke="white"/>
<line x1="4.47067" y1="89.541" x2="77.7835" y2="16.2281" stroke="white"/>
<line x1="-22.6817" y1="62.3886" x2="50.6312" y2="-10.9242" stroke="white"/>
<line x1="20.7636" y1="105.832" x2="94.0765" y2="32.5192" stroke="white"/>
<line x1="-0.959022" y1="84.1113" x2="72.3538" y2="10.7985" stroke="white"/>
<line x1="42.4824" y1="127.555" x2="115.795" y2="54.2418" stroke="white"/>
<line x1="-11.8184" y1="73.25" x2="61.4944" y2="-0.0628678" stroke="white"/>
<line x1="31.623" y1="116.693" x2="104.936" y2="43.3805" stroke="white"/>
<line x1="9.90035" y1="94.9707" x2="83.2132" y2="21.6578" stroke="white"/>
<line x1="-25.3965" y1="59.6718" x2="47.9163" y2="-13.641" stroke="white"/>
<line x1="18.0488" y1="103.117" x2="91.3616" y2="29.8043" stroke="white"/>
<line x1="-3.67777" y1="81.3945" x2="69.6351" y2="8.08166" stroke="white"/>
<line x1="39.7675" y1="124.84" x2="113.08" y2="51.527" stroke="white"/>
<line x1="-14.5371" y1="70.5332" x2="58.7757" y2="-2.77966" stroke="white"/>
<line x1="28.9082" y1="113.978" x2="102.221" y2="40.6656" stroke="white"/>
<line x1="7.18551" y1="92.2558" x2="80.4983" y2="18.943" stroke="white"/>
</g>
</g>
</svg>
