<svg width="100" height="101" viewBox="0 0 100 101" fill="none" xmlns="http://www.w3.org/2000/svg">
<g opacity="0.5">
<mask id="mask0_404_6819" style="mask-type:alpha" maskUnits="userSpaceOnUse" x="47" y="12" width="46" height="46">
<path d="M86.1752 54.9514C88.3882 54.9514 90.2043 53.1508 89.9838 50.9491C89.0595 41.7423 84.9808 33.1384 78.439 26.5961C71.8973 20.0539 63.2951 15.9758 54.0909 15.0533C51.8859 14.8328 50.0898 16.6494 50.0898 18.8631V50.9451C50.0898 52.0087 50.5122 53.0287 51.2641 53.7808C52.0159 54.5329 53.0356 54.9554 54.0989 54.9554L86.1752 54.9514Z" stroke="black" stroke-width="5" stroke-linecap="round" stroke-linejoin="round"/>
</mask>
<g mask="url(#mask0_404_6819)">
<line y1="-0.5" x2="103.93" y2="-0.5" transform="matrix(0.706999 -0.707214 0.706999 0.707214 -22.9609 56.5254)" stroke="white"/>
<line y1="-0.5" x2="103.93" y2="-0.5" transform="matrix(0.706999 -0.707214 0.706999 0.707214 20.5859 100.08)" stroke="white"/>
<line y1="-0.5" x2="103.93" y2="-0.5" transform="matrix(0.706999 -0.707214 0.706999 0.707214 -1.1875 78.3027)" stroke="white"/>
<line y1="-0.5" x2="103.93" y2="-0.5" transform="matrix(0.706999 -0.707214 0.706999 0.707214 42.3555 121.859)" stroke="white"/>
<line y1="-0.5" x2="103.93" y2="-0.5" transform="matrix(0.706999 -0.707214 0.706999 0.707214 -12.0742 67.4141)" stroke="white"/>
<line y1="-0.5" x2="103.93" y2="-0.5" transform="matrix(0.706999 -0.707214 0.706999 0.707214 31.4688 110.971)" stroke="white"/>
<line y1="-0.5" x2="103.93" y2="-0.5" transform="matrix(0.706999 -0.707214 0.706999 0.707214 9.69531 89.1914)" stroke="white"/>
<line y1="-0.5" x2="103.93" y2="-0.5" transform="matrix(0.706999 -0.707214 0.706999 0.707214 12.418 91.9141)" stroke="white"/>
<line y1="-0.5" x2="103.93" y2="-0.5" transform="matrix(0.706999 -0.707214 0.706999 0.707214 -9.35156 70.1348)" stroke="white"/>
<line y1="-0.5" x2="103.93" y2="-0.5" transform="matrix(0.706999 -0.707214 0.706999 0.707214 34.1914 113.691)" stroke="white"/>
<line y1="-0.5" x2="103.93" y2="-0.5" transform="matrix(0.706999 -0.707214 0.706999 0.707214 -20.2344 59.2461)" stroke="white"/>
<line y1="-0.5" x2="103.93" y2="-0.5" transform="matrix(0.706999 -0.707214 0.706999 0.707214 23.3047 102.803)" stroke="white"/>
<line y1="-0.5" x2="103.93" y2="-0.5" transform="matrix(0.706999 -0.707214 0.706999 0.707214 1.53516 81.0254)" stroke="white"/>
<line y1="-0.5" x2="103.93" y2="-0.5" transform="matrix(0.706999 -0.707214 0.706999 0.707214 45.0742 124.58)" stroke="white"/>
<line y1="-0.5" x2="103.93" y2="-0.5" transform="matrix(0.706999 -0.707214 0.706999 0.707214 -25.6836 53.8027)" stroke="white"/>
<line y1="-0.5" x2="103.93" y2="-0.5" transform="matrix(0.706999 -0.707214 0.706999 0.707214 17.8633 97.3594)" stroke="white"/>
<line y1="-0.5" x2="103.93" y2="-0.5" transform="matrix(0.706999 -0.707214 0.706999 0.707214 -3.91016 75.5801)" stroke="white"/>
<line y1="-0.5" x2="103.93" y2="-0.5" transform="matrix(0.706999 -0.707214 0.706999 0.707214 39.6328 119.137)" stroke="white"/>
<line y1="-0.5" x2="103.93" y2="-0.5" transform="matrix(0.706999 -0.707214 0.706999 0.707214 -14.793 64.6914)" stroke="white"/>
<line y1="-0.5" x2="103.93" y2="-0.5" transform="matrix(0.706999 -0.707214 0.706999 0.707214 28.75 108.248)" stroke="white"/>
<line y1="-0.5" x2="103.93" y2="-0.5" transform="matrix(0.706999 -0.707214 0.706999 0.707214 6.97656 86.4688)" stroke="white"/>
<line y1="-0.5" x2="103.93" y2="-0.5" transform="matrix(0.706999 -0.707214 0.706999 0.707214 50.5195 130.025)" stroke="white"/>
<line y1="-0.5" x2="103.93" y2="-0.5" transform="matrix(0.706999 -0.707214 0.706999 0.707214 15.1445 94.6367)" stroke="white"/>
<line y1="-0.5" x2="103.93" y2="-0.5" transform="matrix(0.706999 -0.707214 0.706999 0.707214 -6.62891 72.8574)" stroke="white"/>
<line y1="-0.5" x2="103.93" y2="-0.5" transform="matrix(0.706999 -0.707214 0.706999 0.707214 36.9102 116.414)" stroke="white"/>
<line y1="-0.5" x2="103.93" y2="-0.5" transform="matrix(0.706999 -0.707214 0.706999 0.707214 -17.5156 61.9688)" stroke="white"/>
<line y1="-0.5" x2="103.93" y2="-0.5" transform="matrix(0.706999 -0.707214 0.706999 0.707214 26.0273 105.525)" stroke="white"/>
<line y1="-0.5" x2="103.93" y2="-0.5" transform="matrix(0.706999 -0.707214 0.706999 0.707214 4.25391 83.748)" stroke="white"/>
<line y1="-0.5" x2="103.93" y2="-0.5" transform="matrix(0.706999 -0.707214 0.706999 0.707214 47.7969 127.303)" stroke="white"/>
<line y1="-0.5" x2="103.93" y2="-0.5" transform="matrix(0.706999 -0.707214 0.706999 0.707214 -21.5977 57.8848)" stroke="white"/>
<line y1="-0.5" x2="103.93" y2="-0.5" transform="matrix(0.706999 -0.707214 0.706999 0.707214 21.9453 101.441)" stroke="white"/>
<line y1="-0.5" x2="103.93" y2="-0.5" transform="matrix(0.706999 -0.707214 0.706999 0.707214 0.171875 79.6641)" stroke="white"/>
<line y1="-0.5" x2="103.93" y2="-0.5" transform="matrix(0.706999 -0.707214 0.706999 0.707214 43.7148 123.221)" stroke="white"/>
<line y1="-0.5" x2="103.93" y2="-0.5" transform="matrix(0.706999 -0.707214 0.706999 0.707214 -10.7109 68.7754)" stroke="white"/>
<line y1="-0.5" x2="103.93" y2="-0.5" transform="matrix(0.706999 -0.707214 0.706999 0.707214 32.832 112.33)" stroke="white"/>
<line y1="-0.5" x2="103.93" y2="-0.5" transform="matrix(0.706999 -0.707214 0.706999 0.707214 11.0586 90.5527)" stroke="white"/>
<line y1="-0.5" x2="103.93" y2="-0.5" transform="matrix(0.706999 -0.707214 0.706999 0.707214 13.7812 93.2754)" stroke="white"/>
<line y1="-0.5" x2="103.93" y2="-0.5" transform="matrix(0.706999 -0.707214 0.706999 0.707214 -7.99219 71.4961)" stroke="white"/>
<line y1="-0.5" x2="103.93" y2="-0.5" transform="matrix(0.706999 -0.707214 0.706999 0.707214 35.5508 115.053)" stroke="white"/>
<line y1="-0.5" x2="103.93" y2="-0.5" transform="matrix(0.706999 -0.707214 0.706999 0.707214 -18.875 60.6074)" stroke="white"/>
<line y1="-0.5" x2="103.93" y2="-0.5" transform="matrix(0.706999 -0.707214 0.706999 0.707214 24.668 104.164)" stroke="white"/>
<line y1="-0.5" x2="103.93" y2="-0.5" transform="matrix(0.706999 -0.707214 0.706999 0.707214 2.89453 82.3867)" stroke="white"/>
<line y1="-0.5" x2="103.93" y2="-0.5" transform="matrix(0.706999 -0.707214 0.706999 0.707214 46.4375 125.941)" stroke="white"/>
<line y1="-0.5" x2="103.93" y2="-0.5" transform="matrix(0.706999 -0.707214 0.706999 0.707214 -24.3203 55.1641)" stroke="white"/>
<line y1="-0.5" x2="103.93" y2="-0.5" transform="matrix(0.706999 -0.707214 0.706999 0.707214 19.2227 98.7188)" stroke="white"/>
<line y1="-0.5" x2="103.93" y2="-0.5" transform="matrix(0.706999 -0.707214 0.706999 0.707214 -2.54688 76.9414)" stroke="white"/>
<line y1="-0.5" x2="103.93" y2="-0.5" transform="matrix(0.706999 -0.707214 0.706999 0.707214 40.9922 120.498)" stroke="white"/>
<line y1="-0.5" x2="103.93" y2="-0.5" transform="matrix(0.706999 -0.707214 0.706999 0.707214 -13.4336 66.0527)" stroke="white"/>
<line y1="-0.5" x2="103.93" y2="-0.5" transform="matrix(0.706999 -0.707214 0.706999 0.707214 30.1094 109.609)" stroke="white"/>
<line y1="-0.5" x2="103.93" y2="-0.5" transform="matrix(0.706999 -0.707214 0.706999 0.707214 8.33594 87.8301)" stroke="white"/>
<line y1="-0.5" x2="103.93" y2="-0.5" transform="matrix(0.706999 -0.707214 0.706999 0.707214 51.8828 131.387)" stroke="white"/>
<line y1="-0.5" x2="103.93" y2="-0.5" transform="matrix(0.706999 -0.707214 0.706999 0.707214 16.5039 95.998)" stroke="white"/>
<line y1="-0.5" x2="103.93" y2="-0.5" transform="matrix(0.706999 -0.707214 0.706999 0.707214 -5.26953 74.2188)" stroke="white"/>
<line y1="-0.5" x2="103.93" y2="-0.5" transform="matrix(0.706999 -0.707214 0.706999 0.707214 38.2734 117.775)" stroke="white"/>
<line y1="-0.5" x2="103.93" y2="-0.5" transform="matrix(0.706999 -0.707214 0.706999 0.707214 -16.1523 63.3301)" stroke="white"/>
<line y1="-0.5" x2="103.93" y2="-0.5" transform="matrix(0.706999 -0.707214 0.706999 0.707214 27.3867 106.887)" stroke="white"/>
<line y1="-0.5" x2="103.93" y2="-0.5" transform="matrix(0.706999 -0.707214 0.706999 0.707214 5.61328 85.1074)" stroke="white"/>
<line y1="-0.5" x2="103.93" y2="-0.5" transform="matrix(0.706999 -0.707214 0.706999 0.707214 49.1602 128.664)" stroke="white"/>
</g>
<mask id="mask1_404_6819" style="mask-type:alpha" maskUnits="userSpaceOnUse" x="7" y="15" width="83" height="83">
<path d="M87.0153 70.5517C84.4648 76.5851 80.4756 81.9016 75.3966 86.0365C70.3175 90.1714 64.3031 92.9988 57.8793 94.2715C51.4555 95.5442 44.8178 95.2234 38.5466 93.3372C32.2753 91.4509 26.5615 88.0568 21.9045 83.4513C17.2476 78.8459 13.7894 73.1694 11.8323 66.9182C9.87515 60.667 9.47868 54.0314 10.6775 47.5915C11.8764 41.1516 14.634 35.1035 18.7094 29.976C22.7848 24.8485 28.0538 20.7977 34.0559 18.1777" stroke="black" stroke-width="5" stroke-linecap="round" stroke-linejoin="round"/>
</mask>
<g mask="url(#mask1_404_6819)">
<line y1="-0.5" x2="103.93" y2="-0.5" transform="matrix(0.706999 -0.707214 0.706999 0.707214 -22.9648 56.5254)" stroke="white"/>
<line y1="-0.5" x2="103.93" y2="-0.5" transform="matrix(0.706999 -0.707214 0.706999 0.707214 64.125 143.637)" stroke="white"/>
<line y1="-0.5" x2="103.93" y2="-0.5" transform="matrix(0.706999 -0.707214 0.706999 0.707214 20.582 100.08)" stroke="white"/>
<line y1="-0.5" x2="103.93" y2="-0.5" transform="matrix(0.706999 -0.707214 0.706999 0.707214 -1.19141 78.3027)" stroke="white"/>
<line y1="-0.5" x2="103.93" y2="-0.5" transform="matrix(0.706999 -0.707214 0.706999 0.707214 85.8945 165.414)" stroke="white"/>
<line y1="-0.5" x2="103.93" y2="-0.5" transform="matrix(0.706999 -0.707214 0.706999 0.707214 -44.7344 34.7461)" stroke="white"/>
<line y1="-0.5" x2="103.93" y2="-0.5" transform="matrix(0.706999 -0.707214 0.706999 0.707214 42.3516 121.859)" stroke="white"/>
<line y1="-0.5" x2="103.93" y2="-0.5" transform="matrix(0.706999 -0.707214 0.706999 0.707214 -12.0781 67.4141)" stroke="white"/>
<line y1="-0.5" x2="103.93" y2="-0.5" transform="matrix(0.706999 -0.707214 0.706999 0.707214 75.0078 154.525)" stroke="white"/>
<line y1="-0.5" x2="103.93" y2="-0.5" transform="matrix(0.706999 -0.707214 0.706999 0.707214 -55.6172 23.8574)" stroke="white"/>
<line y1="-0.5" x2="103.93" y2="-0.5" transform="matrix(0.706999 -0.707214 0.706999 0.707214 31.4648 110.971)" stroke="white"/>
<line y1="-0.5" x2="103.93" y2="-0.5" transform="matrix(0.706999 -0.707214 0.706999 0.707214 9.69141 89.1914)" stroke="white"/>
<line y1="-0.5" x2="103.93" y2="-0.5" transform="matrix(0.706999 -0.707214 0.706999 0.707214 -33.8477 45.6348)" stroke="white"/>
<line y1="-0.5" x2="103.93" y2="-0.5" transform="matrix(0.706999 -0.707214 0.706999 0.707214 53.2383 132.748)" stroke="white"/>
<line y1="-0.5" x2="103.93" y2="-0.5" transform="matrix(0.706999 -0.707214 0.706999 0.707214 -31.1289 48.3574)" stroke="white"/>
<line y1="-0.5" x2="103.93" y2="-0.5" transform="matrix(0.706999 -0.707214 0.706999 0.707214 55.9609 135.471)" stroke="white"/>
<line y1="-0.5" x2="103.93" y2="-0.5" transform="matrix(0.706999 -0.707214 0.706999 0.707214 12.4141 91.9141)" stroke="white"/>
<line y1="-0.5" x2="103.93" y2="-0.5" transform="matrix(0.706999 -0.707214 0.706999 0.707214 -9.35547 70.1348)" stroke="white"/>
<line y1="-0.5" x2="103.93" y2="-0.5" transform="matrix(0.706999 -0.707214 0.706999 0.707214 77.7305 157.248)" stroke="white"/>
<line y1="-0.5" x2="103.93" y2="-0.5" transform="matrix(0.706999 -0.707214 0.706999 0.707214 -52.8984 26.5801)" stroke="white"/>
<line y1="-0.5" x2="103.93" y2="-0.5" transform="matrix(0.706999 -0.707214 0.706999 0.707214 34.1875 113.691)" stroke="white"/>
<line y1="-0.5" x2="103.93" y2="-0.5" transform="matrix(0.706999 -0.707214 0.706999 0.707214 -20.2383 59.2461)" stroke="white"/>
<line y1="-0.5" x2="103.93" y2="-0.5" transform="matrix(0.706999 -0.707214 0.706999 0.707214 66.8438 146.359)" stroke="white"/>
<line y1="-0.5" x2="103.93" y2="-0.5" transform="matrix(0.706999 -0.707214 0.706999 0.707214 -63.7852 15.6914)" stroke="white"/>
<line y1="-0.5" x2="103.93" y2="-0.5" transform="matrix(0.706999 -0.707214 0.706999 0.707214 23.3008 102.803)" stroke="white"/>
<line y1="-0.5" x2="103.93" y2="-0.5" transform="matrix(0.706999 -0.707214 0.706999 0.707214 1.53125 81.0254)" stroke="white"/>
<line y1="-0.5" x2="103.93" y2="-0.5" transform="matrix(0.706999 -0.707214 0.706999 0.707214 88.6172 168.137)" stroke="white"/>
<line y1="-0.5" x2="103.93" y2="-0.5" transform="matrix(0.706999 -0.707214 0.706999 0.707214 -42.0117 37.4688)" stroke="white"/>
<line y1="-0.5" x2="103.93" y2="-0.5" transform="matrix(0.706999 -0.707214 0.706999 0.707214 45.0703 124.58)" stroke="white"/>
<line y1="-0.5" x2="103.93" y2="-0.5" transform="matrix(0.706999 -0.707214 0.706999 0.707214 -25.6875 53.8027)" stroke="white"/>
<line y1="-0.5" x2="103.93" y2="-0.5" transform="matrix(0.706999 -0.707214 0.706999 0.707214 61.4023 140.914)" stroke="white"/>
<line y1="-0.5" x2="103.93" y2="-0.5" transform="matrix(0.706999 -0.707214 0.706999 0.707214 17.8594 97.3594)" stroke="white"/>
<line y1="-0.5" x2="103.93" y2="-0.5" transform="matrix(0.706999 -0.707214 0.706999 0.707214 -3.91406 75.5801)" stroke="white"/>
<line y1="-0.5" x2="103.93" y2="-0.5" transform="matrix(0.706999 -0.707214 0.706999 0.707214 83.1719 162.693)" stroke="white"/>
<line y1="-0.5" x2="103.93" y2="-0.5" transform="matrix(0.706999 -0.707214 0.706999 0.707214 -47.4531 32.0234)" stroke="white"/>
<line y1="-0.5" x2="103.93" y2="-0.5" transform="matrix(0.706999 -0.707214 0.706999 0.707214 39.6289 119.137)" stroke="white"/>
<line y1="-0.5" x2="103.93" y2="-0.5" transform="matrix(0.706999 -0.707214 0.706999 0.707214 -14.7969 64.6914)" stroke="white"/>
<line y1="-0.5" x2="103.93" y2="-0.5" transform="matrix(0.706999 -0.707214 0.706999 0.707214 72.2852 151.803)" stroke="white"/>
<line y1="-0.5" x2="103.93" y2="-0.5" transform="matrix(0.706999 -0.707214 0.706999 0.707214 -58.3438 21.1348)" stroke="white"/>
<line y1="-0.5" x2="103.93" y2="-0.5" transform="matrix(0.706999 -0.707214 0.706999 0.707214 28.7461 108.248)" stroke="white"/>
<line y1="-0.5" x2="103.93" y2="-0.5" transform="matrix(0.706999 -0.707214 0.706999 0.707214 6.97266 86.4688)" stroke="white"/>
<line y1="-0.5" x2="103.93" y2="-0.5" transform="matrix(0.706999 -0.707214 0.706999 0.707214 -36.5703 42.9141)" stroke="white"/>
<line y1="-0.5" x2="103.93" y2="-0.5" transform="matrix(0.706999 -0.707214 0.706999 0.707214 50.5156 130.025)" stroke="white"/>
<line y1="-0.5" x2="103.93" y2="-0.5" transform="matrix(0.706999 -0.707214 0.706999 0.707214 -28.4062 51.0801)" stroke="white"/>
<line y1="-0.5" x2="103.93" y2="-0.5" transform="matrix(0.706999 -0.707214 0.706999 0.707214 58.6797 138.191)" stroke="white"/>
<line y1="-0.5" x2="103.93" y2="-0.5" transform="matrix(0.706999 -0.707214 0.706999 0.707214 15.1406 94.6367)" stroke="white"/>
<line y1="-0.5" x2="103.93" y2="-0.5" transform="matrix(0.706999 -0.707214 0.706999 0.707214 -6.63281 72.8574)" stroke="white"/>
<line y1="-0.5" x2="103.93" y2="-0.5" transform="matrix(0.706999 -0.707214 0.706999 0.707214 80.4492 159.971)" stroke="white"/>
<line y1="-0.5" x2="103.93" y2="-0.5" transform="matrix(0.706999 -0.707214 0.706999 0.707214 -50.1758 29.3027)" stroke="white"/>
<line y1="-0.5" x2="103.93" y2="-0.5" transform="matrix(0.706999 -0.707214 0.706999 0.707214 36.9062 116.414)" stroke="white"/>
<line y1="-0.5" x2="103.93" y2="-0.5" transform="matrix(0.706999 -0.707214 0.706999 0.707214 -17.5195 61.9688)" stroke="white"/>
<line y1="-0.5" x2="103.93" y2="-0.5" transform="matrix(0.706999 -0.707214 0.706999 0.707214 69.5664 149.082)" stroke="white"/>
<line y1="-0.5" x2="103.93" y2="-0.5" transform="matrix(0.706999 -0.707214 0.706999 0.707214 -61.0625 18.4121)" stroke="white"/>
<line y1="-0.5" x2="103.93" y2="-0.5" transform="matrix(0.706999 -0.707214 0.706999 0.707214 26.0234 105.525)" stroke="white"/>
<line y1="-0.5" x2="103.93" y2="-0.5" transform="matrix(0.706999 -0.707214 0.706999 0.707214 4.25 83.748)" stroke="white"/>
<line y1="-0.5" x2="103.93" y2="-0.5" transform="matrix(0.706999 -0.707214 0.706999 0.707214 -39.293 40.1914)" stroke="white"/>
<line y1="-0.5" x2="103.93" y2="-0.5" transform="matrix(0.706999 -0.707214 0.706999 0.707214 47.793 127.303)" stroke="white"/>
<line y1="-0.5" x2="103.93" y2="-0.5" transform="matrix(0.706999 -0.707214 0.706999 0.707214 -21.6016 57.8848)" stroke="white"/>
<line y1="-0.5" x2="103.93" y2="-0.5" transform="matrix(0.706999 -0.707214 0.706999 0.707214 65.4844 144.998)" stroke="white"/>
<line y1="-0.5" x2="103.93" y2="-0.5" transform="matrix(0.706999 -0.707214 0.706999 0.707214 21.9414 101.441)" stroke="white"/>
<line y1="-0.5" x2="103.93" y2="-0.5" transform="matrix(0.706999 -0.707214 0.706999 0.707214 0.167969 79.6641)" stroke="white"/>
<line y1="-0.5" x2="103.93" y2="-0.5" transform="matrix(0.706999 -0.707214 0.706999 0.707214 87.2578 166.775)" stroke="white"/>
<line y1="-0.5" x2="103.93" y2="-0.5" transform="matrix(0.706999 -0.707214 0.706999 0.707214 -43.375 36.1074)" stroke="white"/>
<line y1="-0.5" x2="103.93" y2="-0.5" transform="matrix(0.706999 -0.707214 0.706999 0.707214 43.7109 123.221)" stroke="white"/>
<line y1="-0.5" x2="103.93" y2="-0.5" transform="matrix(0.706999 -0.707214 0.706999 0.707214 -10.7148 68.7754)" stroke="white"/>
<line y1="-0.5" x2="103.93" y2="-0.5" transform="matrix(0.706999 -0.707214 0.706999 0.707214 76.3672 155.887)" stroke="white"/>
<line y1="-0.5" x2="103.93" y2="-0.5" transform="matrix(0.706999 -0.707214 0.706999 0.707214 -54.2578 25.2188)" stroke="white"/>
<line y1="-0.5" x2="103.93" y2="-0.5" transform="matrix(0.706999 -0.707214 0.706999 0.707214 32.8281 112.33)" stroke="white"/>
<line y1="-0.5" x2="103.93" y2="-0.5" transform="matrix(0.706999 -0.707214 0.706999 0.707214 11.0547 90.5527)" stroke="white"/>
<line y1="-0.5" x2="103.93" y2="-0.5" transform="matrix(0.706999 -0.707214 0.706999 0.707214 -32.4883 46.9961)" stroke="white"/>
<line y1="-0.5" x2="103.93" y2="-0.5" transform="matrix(0.706999 -0.707214 0.706999 0.707214 54.5977 134.109)" stroke="white"/>
<line y1="-0.5" x2="103.93" y2="-0.5" transform="matrix(0.706999 -0.707214 0.706999 0.707214 -29.7656 49.7188)" stroke="white"/>
<line y1="-0.5" x2="103.93" y2="-0.5" transform="matrix(0.706999 -0.707214 0.706999 0.707214 57.3203 136.83)" stroke="white"/>
<line y1="-0.5" x2="103.93" y2="-0.5" transform="matrix(0.706999 -0.707214 0.706999 0.707214 13.7773 93.2754)" stroke="white"/>
<line y1="-0.5" x2="103.93" y2="-0.5" transform="matrix(0.706999 -0.707214 0.706999 0.707214 -7.99609 71.4961)" stroke="white"/>
<line y1="-0.5" x2="103.93" y2="-0.5" transform="matrix(0.706999 -0.707214 0.706999 0.707214 79.0898 158.609)" stroke="white"/>
<line y1="-0.5" x2="103.93" y2="-0.5" transform="matrix(0.706999 -0.707214 0.706999 0.707214 -51.5352 27.9414)" stroke="white"/>
<line y1="-0.5" x2="103.93" y2="-0.5" transform="matrix(0.706999 -0.707214 0.706999 0.707214 35.5469 115.053)" stroke="white"/>
<line y1="-0.5" x2="103.93" y2="-0.5" transform="matrix(0.706999 -0.707214 0.706999 0.707214 -18.8789 60.6074)" stroke="white"/>
<line y1="-0.5" x2="103.93" y2="-0.5" transform="matrix(0.706999 -0.707214 0.706999 0.707214 68.2031 147.721)" stroke="white"/>
<line y1="-0.5" x2="103.93" y2="-0.5" transform="matrix(0.706999 -0.707214 0.706999 0.707214 -62.4258 17.0527)" stroke="white"/>
<line y1="-0.5" x2="103.93" y2="-0.5" transform="matrix(0.706999 -0.707214 0.706999 0.707214 24.6641 104.164)" stroke="white"/>
<line y1="-0.5" x2="103.93" y2="-0.5" transform="matrix(0.706999 -0.707214 0.706999 0.707214 2.89062 82.3867)" stroke="white"/>
<line y1="-0.5" x2="103.93" y2="-0.5" transform="matrix(0.706999 -0.707214 0.706999 0.707214 89.9766 169.498)" stroke="white"/>
<line y1="-0.5" x2="103.93" y2="-0.5" transform="matrix(0.706999 -0.707214 0.706999 0.707214 -40.6523 38.8301)" stroke="white"/>
<line y1="-0.5" x2="103.93" y2="-0.5" transform="matrix(0.706999 -0.707214 0.706999 0.707214 46.4336 125.941)" stroke="white"/>
<line y1="-0.5" x2="103.93" y2="-0.5" transform="matrix(0.706999 -0.707214 0.706999 0.707214 -24.3242 55.1641)" stroke="white"/>
<line y1="-0.5" x2="103.93" y2="-0.5" transform="matrix(0.706999 -0.707214 0.706999 0.707214 62.7617 142.275)" stroke="white"/>
<line y1="-0.5" x2="103.93" y2="-0.5" transform="matrix(0.706999 -0.707214 0.706999 0.707214 19.2188 98.7188)" stroke="white"/>
<line y1="-0.5" x2="103.93" y2="-0.5" transform="matrix(0.706999 -0.707214 0.706999 0.707214 -2.55078 76.9414)" stroke="white"/>
<line y1="-0.5" x2="103.93" y2="-0.5" transform="matrix(0.706999 -0.707214 0.706999 0.707214 84.5352 164.053)" stroke="white"/>
<line y1="-0.5" x2="103.93" y2="-0.5" transform="matrix(0.706999 -0.707214 0.706999 0.707214 -46.0938 33.3848)" stroke="white"/>
<line y1="-0.5" x2="103.93" y2="-0.5" transform="matrix(0.706999 -0.707214 0.706999 0.707214 40.9883 120.498)" stroke="white"/>
<line y1="-0.5" x2="103.93" y2="-0.5" transform="matrix(0.706999 -0.707214 0.706999 0.707214 -13.4375 66.0527)" stroke="white"/>
<line y1="-0.5" x2="103.93" y2="-0.5" transform="matrix(0.706999 -0.707214 0.706999 0.707214 73.6484 153.164)" stroke="white"/>
<line y1="-0.5" x2="103.93" y2="-0.5" transform="matrix(0.706999 -0.707214 0.706999 0.707214 -56.9805 22.4961)" stroke="white"/>
<line y1="-0.5" x2="103.93" y2="-0.5" transform="matrix(0.706999 -0.707214 0.706999 0.707214 30.1055 109.609)" stroke="white"/>
<line y1="-0.5" x2="103.93" y2="-0.5" transform="matrix(0.706999 -0.707214 0.706999 0.707214 8.33203 87.8301)" stroke="white"/>
<line y1="-0.5" x2="103.93" y2="-0.5" transform="matrix(0.706999 -0.707214 0.706999 0.707214 -35.2109 44.2754)" stroke="white"/>
<line y1="-0.5" x2="103.93" y2="-0.5" transform="matrix(0.706999 -0.707214 0.706999 0.707214 51.8789 131.387)" stroke="white"/>
<line y1="-0.5" x2="103.93" y2="-0.5" transform="matrix(0.706999 -0.707214 0.706999 0.707214 -27.0469 52.4414)" stroke="white"/>
<line y1="-0.5" x2="103.93" y2="-0.5" transform="matrix(0.706999 -0.707214 0.706999 0.707214 60.043 139.553)" stroke="white"/>
<line y1="-0.5" x2="103.93" y2="-0.5" transform="matrix(0.706999 -0.707214 0.706999 0.707214 16.5 95.998)" stroke="white"/>
<line y1="-0.5" x2="103.93" y2="-0.5" transform="matrix(0.706999 -0.707214 0.706999 0.707214 -5.27344 74.2188)" stroke="white"/>
<line y1="-0.5" x2="103.93" y2="-0.5" transform="matrix(0.706999 -0.707214 0.706999 0.707214 81.8086 161.332)" stroke="white"/>
<line y1="-0.5" x2="103.93" y2="-0.5" transform="matrix(0.706999 -0.707214 0.706999 0.707214 -48.8164 30.6641)" stroke="white"/>
<line y1="-0.5" x2="103.93" y2="-0.5" transform="matrix(0.706999 -0.707214 0.706999 0.707214 38.2695 117.775)" stroke="white"/>
<line y1="-0.5" x2="103.93" y2="-0.5" transform="matrix(0.706999 -0.707214 0.706999 0.707214 -16.1562 63.3301)" stroke="white"/>
<line y1="-0.5" x2="103.93" y2="-0.5" transform="matrix(0.706999 -0.707214 0.706999 0.707214 70.9258 150.441)" stroke="white"/>
<line y1="-0.5" x2="103.93" y2="-0.5" transform="matrix(0.706999 -0.707214 0.706999 0.707214 -59.7031 19.7734)" stroke="white"/>
<line y1="-0.5" x2="103.93" y2="-0.5" transform="matrix(0.706999 -0.707214 0.706999 0.707214 27.3828 106.887)" stroke="white"/>
<line y1="-0.5" x2="103.93" y2="-0.5" transform="matrix(0.706999 -0.707214 0.706999 0.707214 5.60938 85.1074)" stroke="white"/>
<line y1="-0.5" x2="103.93" y2="-0.5" transform="matrix(0.706999 -0.707214 0.706999 0.707214 -37.9297 41.5527)" stroke="white"/>
<line y1="-0.5" x2="103.93" y2="-0.5" transform="matrix(0.706999 -0.707214 0.706999 0.707214 49.1562 128.664)" stroke="white"/>
</g>
</g>
</svg>
