<svg width="100" height="101" viewBox="0 0 100 101" fill="none" xmlns="http://www.w3.org/2000/svg">
<g opacity="0.5">
<mask id="mask0_404_3582" style="mask-type:alpha" maskUnits="userSpaceOnUse" x="20" y="7" width="60" height="60">
<path d="M63.5134 64.1244C64.4143 59.6199 66.6666 56.4667 70.2702 52.8631C74.7747 48.8091 77.027 42.9532 77.027 37.0973C77.027 29.9293 74.1795 23.0549 69.1109 17.9863C64.0424 12.9178 57.1679 10.0703 49.9999 10.0703C42.8319 10.0703 35.9575 12.9178 30.8889 17.9863C25.8204 23.0549 22.9729 29.9293 22.9729 37.0973C22.9729 41.6018 23.8738 47.0073 29.7297 52.8631C32.8828 56.0163 35.5855 59.6199 36.4864 64.1244" stroke="white" stroke-width="5" stroke-linecap="round" stroke-linejoin="round"/>
</mask>
<g mask="url(#mask0_404_3582)">
<line x1="34.2302" y1="122.266" x2="116.79" y2="39.7061" stroke="white"/>
<line x1="-14.6951" y1="73.3398" x2="67.8644" y2="-9.21969" stroke="white"/>
<line x1="58.6919" y1="146.727" x2="141.251" y2="64.167" stroke="white"/>
<line x1="9.76852" y1="97.8037" x2="92.328" y2="15.2442" stroke="white"/>
<line x1="46.4621" y1="134.497" x2="129.022" y2="51.9375" stroke="white"/>
<line x1="-2.46317" y1="85.5722" x2="80.0963" y2="3.01273" stroke="white"/>
<line x1="21.9983" y1="110.033" x2="104.558" y2="27.4737" stroke="white"/>
<line x1="25.0559" y1="113.091" x2="107.615" y2="30.5313" stroke="white"/>
<line x1="-23.8672" y1="64.1679" x2="58.6923" y2="-18.3916" stroke="white"/>
<line x1="49.5195" y1="137.555" x2="132.079" y2="54.9952" stroke="white"/>
<line x1="0.594201" y1="88.6289" x2="83.1537" y2="6.06937" stroke="white"/>
<line x1="37.2876" y1="125.323" x2="119.847" y2="42.7637" stroke="white"/>
<line x1="-11.6355" y1="76.3994" x2="70.924" y2="-6.16012" stroke="white"/>
<line x1="12.8261" y1="100.861" x2="95.3856" y2="18.3018" stroke="white"/>
<line x1="31.1728" y1="119.208" x2="113.732" y2="36.6485" stroke="white"/>
<line x1="-17.7525" y1="70.2822" x2="64.807" y2="-12.2773" stroke="white"/>
<line x1="55.6342" y1="143.67" x2="138.194" y2="61.1104" stroke="white"/>
<line x1="6.71114" y1="94.7461" x2="89.2706" y2="12.1866" stroke="white"/>
<line x1="43.4026" y1="131.437" x2="125.962" y2="48.878" stroke="white"/>
<line x1="-5.52079" y1="82.5146" x2="77.0387" y2="-0.0448844" stroke="white"/>
<line x1="18.9409" y1="106.977" x2="101.5" y2="24.417" stroke="white"/>
<line x1="28.1152" y1="116.15" x2="110.675" y2="33.5909" stroke="white"/>
<line x1="-20.8099" y1="67.2255" x2="61.7496" y2="-15.3339" stroke="white"/>
<line x1="52.5769" y1="140.612" x2="135.136" y2="58.0528" stroke="white"/>
<line x1="3.65157" y1="91.6865" x2="86.2111" y2="9.12699" stroke="white"/>
<line x1="40.3449" y1="128.38" x2="122.904" y2="45.8204" stroke="white"/>
<line x1="-8.57816" y1="79.457" x2="73.9813" y2="-3.1025" stroke="white"/>
<line x1="15.8835" y1="103.919" x2="98.443" y2="21.3594" stroke="white"/>
<line x1="35.759" y1="123.794" x2="118.318" y2="41.2344" stroke="white"/>
<line x1="-13.1643" y1="74.8711" x2="69.3951" y2="-7.68844" stroke="white"/>
<line x1="60.2204" y1="148.256" x2="142.78" y2="65.6963" stroke="white"/>
<line x1="11.2973" y1="99.332" x2="93.8568" y2="16.7725" stroke="white"/>
<line x1="47.9907" y1="136.026" x2="130.55" y2="53.4668" stroke="white"/>
<line x1="-0.934608" y1="87.1005" x2="81.6249" y2="4.54105" stroke="white"/>
<line x1="23.5271" y1="111.562" x2="106.087" y2="29.003" stroke="white"/>
<line x1="26.5866" y1="114.622" x2="109.146" y2="32.0625" stroke="white"/>
<line x1="-22.3387" y1="65.6963" x2="60.2208" y2="-16.8632" stroke="white"/>
<line x1="51.0481" y1="139.083" x2="133.608" y2="56.5235" stroke="white"/>
<line x1="2.12301" y1="90.1582" x2="84.6825" y2="7.59867" stroke="white"/>
<line x1="38.8164" y1="126.852" x2="121.376" y2="44.292" stroke="white"/>
<line x1="-10.1067" y1="77.9287" x2="72.4528" y2="-4.63082" stroke="white"/>
<line x1="14.3547" y1="102.39" x2="96.9142" y2="19.8301" stroke="white"/>
<line x1="32.7014" y1="120.736" x2="115.261" y2="38.1768" stroke="white"/>
<line x1="-16.2239" y1="71.8115" x2="66.3356" y2="-10.748" stroke="white"/>
<line x1="57.163" y1="145.198" x2="139.723" y2="62.6387" stroke="white"/>
<line x1="8.23995" y1="96.2754" x2="90.7994" y2="13.7159" stroke="white"/>
<line x1="44.9311" y1="132.967" x2="127.491" y2="50.4073" stroke="white"/>
<line x1="-3.99198" y1="84.0429" x2="78.5675" y2="1.48344" stroke="white"/>
<line x1="20.4697" y1="108.505" x2="103.029" y2="25.9454" stroke="white"/>
<line x1="29.644" y1="117.68" x2="112.203" y2="35.1202" stroke="white"/>
<line x1="-19.2813" y1="68.7539" x2="63.2782" y2="-13.8056" stroke="white"/>
<line x1="54.1057" y1="142.141" x2="136.665" y2="59.5811" stroke="white"/>
<line x1="5.18038" y1="93.2158" x2="87.7399" y2="10.6563" stroke="white"/>
<line x1="41.8737" y1="129.909" x2="124.433" y2="47.3496" stroke="white"/>
<line x1="-7.04935" y1="80.9853" x2="75.5101" y2="-1.57418" stroke="white"/>
<line x1="17.4121" y1="105.447" x2="99.9716" y2="22.8877" stroke="white"/>
</g>
<mask id="mask1_404_3582" style="mask-type:alpha" maskUnits="userSpaceOnUse" x="33" y="74" width="34" height="6">
<path d="M36.4863 77.0967H63.5134" stroke="white" stroke-width="5" stroke-linecap="round" stroke-linejoin="round"/>
</mask>
<g mask="url(#mask1_404_3582)">
<line x1="29.9057" y1="115.778" x2="112.465" y2="33.2188" stroke="white"/>
<line x1="54.3671" y1="140.24" x2="136.927" y2="57.6807" stroke="white"/>
<line x1="5.44405" y1="91.3164" x2="88.0035" y2="8.75687" stroke="white"/>
<line x1="42.1374" y1="128.01" x2="124.697" y2="45.4502" stroke="white"/>
<line x1="-6.78788" y1="79.0849" x2="75.7716" y2="-3.47457" stroke="white"/>
<line x1="17.6738" y1="103.546" x2="100.233" y2="20.9864" stroke="white"/>
<line x1="20.7312" y1="106.603" x2="103.291" y2="24.044" stroke="white"/>
<line x1="45.1948" y1="131.067" x2="127.754" y2="48.5079" stroke="white"/>
<line x1="-3.73026" y1="82.1425" x2="78.8292" y2="-0.416955" stroke="white"/>
<line x1="32.9631" y1="118.836" x2="115.523" y2="36.2764" stroke="white"/>
<line x1="57.4245" y1="143.297" x2="139.984" y2="60.7373" stroke="white"/>
<line x1="8.50143" y1="94.374" x2="91.0609" y2="11.8145" stroke="white"/>
<line x1="26.8481" y1="112.721" x2="109.408" y2="30.1612" stroke="white"/>
<line x1="51.3098" y1="137.183" x2="133.869" y2="54.6231" stroke="white"/>
<line x1="2.38668" y1="88.2588" x2="84.9462" y2="5.69926" stroke="white"/>
<line x1="39.0778" y1="124.95" x2="121.637" y2="42.3907" stroke="white"/>
<line x1="-9.84525" y1="76.0273" x2="72.7142" y2="-6.53219" stroke="white"/>
<line x1="63.5417" y1="149.414" x2="146.101" y2="66.8545" stroke="white"/>
<line x1="14.6164" y1="100.489" x2="97.1759" y2="17.9297" stroke="white"/>
<line x1="23.7907" y1="109.663" x2="106.35" y2="27.1036" stroke="white"/>
<line x1="48.2524" y1="134.125" x2="130.812" y2="51.5655" stroke="white"/>
<line x1="-0.672889" y1="85.1992" x2="81.8866" y2="2.63969" stroke="white"/>
<line x1="36.0205" y1="121.894" x2="118.58" y2="39.334" stroke="white"/>
<line x1="60.4821" y1="146.354" x2="143.042" y2="63.795" stroke="white"/>
<line x1="11.5588" y1="97.4316" x2="94.1183" y2="14.8721" stroke="white"/>
<line x1="31.4343" y1="117.307" x2="113.994" y2="34.7471" stroke="white"/>
<line x1="55.896" y1="141.769" x2="138.455" y2="59.209" stroke="white"/>
<line x1="6.97286" y1="92.8457" x2="89.5324" y2="10.2862" stroke="white"/>
<line x1="43.6662" y1="129.539" x2="126.226" y2="46.9795" stroke="white"/>
<line x1="-5.25907" y1="80.6132" x2="77.3004" y2="-1.94625" stroke="white"/>
<line x1="19.2026" y1="105.075" x2="101.762" y2="22.5157" stroke="white"/>
<line x1="22.2619" y1="108.135" x2="104.821" y2="25.5752" stroke="white"/>
<line x1="46.7236" y1="132.597" x2="129.283" y2="50.0371" stroke="white"/>
<line x1="-2.2017" y1="83.6709" x2="80.3578" y2="1.11137" stroke="white"/>
<line x1="34.4917" y1="120.364" x2="117.051" y2="37.8047" stroke="white"/>
<line x1="58.9533" y1="144.826" x2="141.513" y2="62.2666" stroke="white"/>
<line x1="10.0302" y1="95.9023" x2="92.5897" y2="13.3428" stroke="white"/>
<line x1="28.3769" y1="114.249" x2="110.936" y2="31.6895" stroke="white"/>
<line x1="52.8386" y1="138.711" x2="135.398" y2="56.1514" stroke="white"/>
<line x1="3.91525" y1="89.788" x2="86.4747" y2="7.22855" stroke="white"/>
<line x1="40.6067" y1="126.479" x2="123.166" y2="43.92" stroke="white"/>
<line x1="-8.31644" y1="77.5556" x2="74.243" y2="-5.00387" stroke="white"/>
<line x1="65.0703" y1="150.943" x2="147.63" y2="68.3838" stroke="white"/>
<line x1="16.145" y1="102.018" x2="98.7045" y2="19.458" stroke="white"/>
<line x1="25.3195" y1="111.192" x2="107.879" y2="28.6329" stroke="white"/>
<line x1="49.781" y1="135.653" x2="132.34" y2="53.0938" stroke="white"/>
<line x1="0.855675" y1="86.7285" x2="83.4152" y2="4.16898" stroke="white"/>
<line x1="37.5493" y1="123.422" x2="120.109" y2="40.8623" stroke="white"/>
<line x1="-11.3741" y1="74.499" x2="71.1854" y2="-8.06051" stroke="white"/>
<line x1="62.0129" y1="147.886" x2="144.572" y2="65.3262" stroke="white"/>
<line x1="13.0876" y1="98.9599" x2="95.6471" y2="16.4004" stroke="white"/>
</g>
<mask id="mask2_404_3582" style="mask-type:alpha" maskUnits="userSpaceOnUse" x="38" y="87" width="24" height="6">
<path d="M40.99 90.0703H59.008" stroke="white" stroke-width="5" stroke-linecap="round" stroke-linejoin="round"/>
</mask>
<g mask="url(#mask2_404_3582)">
<line x1="23.4167" y1="144.968" x2="105.976" y2="62.4082" stroke="white"/>
<line x1="-25.5086" y1="96.042" x2="57.0509" y2="13.4825" stroke="white"/>
<line x1="47.8781" y1="169.43" x2="130.438" y2="86.8702" stroke="white"/>
<line x1="-1.04496" y1="120.506" x2="81.5145" y2="37.9463" stroke="white"/>
<line x1="35.6484" y1="157.199" x2="118.208" y2="74.6397" stroke="white"/>
<line x1="-13.2769" y1="108.274" x2="69.2826" y2="25.7149" stroke="white"/>
<line x1="11.1848" y1="132.735" x2="93.7443" y2="50.1758" stroke="white"/>
<line x1="14.2421" y1="135.793" x2="96.8016" y2="53.2334" stroke="white"/>
<line x1="38.7058" y1="160.257" x2="121.265" y2="77.6973" stroke="white"/>
<line x1="-10.2193" y1="111.332" x2="72.3402" y2="28.7725" stroke="white"/>
<line x1="26.4741" y1="148.025" x2="109.034" y2="65.4659" stroke="white"/>
<line x1="-22.449" y1="99.1015" x2="60.1105" y2="16.542" stroke="white"/>
<line x1="50.9355" y1="172.486" x2="133.495" y2="89.9268" stroke="white"/>
<line x1="2.01241" y1="123.563" x2="84.5719" y2="41.0039" stroke="white"/>
<line x1="20.3591" y1="141.91" x2="102.919" y2="59.3506" stroke="white"/>
<line x1="-28.5662" y1="92.9853" x2="53.9933" y2="10.4258" stroke="white"/>
<line x1="44.8208" y1="166.372" x2="127.38" y2="83.8125" stroke="white"/>
<line x1="-4.10233" y1="117.448" x2="78.4572" y2="34.8887" stroke="white"/>
<line x1="32.5888" y1="154.14" x2="115.148" y2="71.5801" stroke="white"/>
<line x1="-16.3343" y1="105.217" x2="66.2252" y2="22.6573" stroke="white"/>
<line x1="8.1274" y1="129.679" x2="90.6869" y2="47.1192" stroke="white"/>
<line x1="17.3017" y1="138.853" x2="99.8612" y2="56.293" stroke="white"/>
<line x1="-31.6236" y1="89.9277" x2="50.9359" y2="7.3682" stroke="white"/>
<line x1="41.7634" y1="163.314" x2="124.323" y2="80.7549" stroke="white"/>
<line x1="-7.1619" y1="114.389" x2="75.3976" y2="31.8291" stroke="white"/>
<line x1="29.5315" y1="151.083" x2="112.091" y2="68.5235" stroke="white"/>
<line x1="-19.3916" y1="102.159" x2="63.1679" y2="19.5996" stroke="white"/>
<line x1="5.06979" y1="126.621" x2="87.6293" y2="44.0616" stroke="white"/>
<line x1="24.9453" y1="146.496" x2="107.505" y2="63.9366" stroke="white"/>
<line x1="-23.9778" y1="97.5732" x2="58.5817" y2="15.0137" stroke="white"/>
<line x1="49.4069" y1="170.958" x2="131.966" y2="88.3985" stroke="white"/>
<line x1="0.483849" y1="122.035" x2="83.0433" y2="39.4756" stroke="white"/>
<line x1="37.1772" y1="158.728" x2="119.737" y2="76.169" stroke="white"/>
<line x1="-11.7481" y1="109.803" x2="70.8114" y2="27.2432" stroke="white"/>
<line x1="12.7136" y1="134.265" x2="95.2731" y2="51.7051" stroke="white"/>
<line x1="15.7729" y1="137.324" x2="98.3324" y2="54.7647" stroke="white"/>
<line x1="-33.1521" y1="88.3984" x2="49.4074" y2="5.8389" stroke="white"/>
<line x1="40.2346" y1="161.786" x2="122.794" y2="79.2266" stroke="white"/>
<line x1="-8.69071" y1="112.86" x2="73.8688" y2="30.3008" stroke="white"/>
<line x1="28.0026" y1="149.554" x2="110.562" y2="66.9942" stroke="white"/>
<line x1="-20.9204" y1="100.631" x2="61.639" y2="18.0713" stroke="white"/>
<line x1="52.4643" y1="174.016" x2="135.024" y2="91.4561" stroke="white"/>
<line x1="3.54122" y1="125.092" x2="86.1007" y2="42.5323" stroke="white"/>
<line x1="21.8879" y1="143.438" x2="104.447" y2="60.8789" stroke="white"/>
<line x1="-27.0374" y1="94.5136" x2="55.5221" y2="11.9541" stroke="white"/>
<line x1="46.3496" y1="167.9" x2="128.909" y2="85.3409" stroke="white"/>
<line x1="-2.57377" y1="118.978" x2="79.9857" y2="36.418" stroke="white"/>
<line x1="34.1176" y1="155.669" x2="116.677" y2="73.1094" stroke="white"/>
<line x1="-14.8055" y1="106.745" x2="67.754" y2="24.1856" stroke="white"/>
<line x1="9.65597" y1="131.207" x2="92.2155" y2="48.6475" stroke="white"/>
<line x1="18.8305" y1="140.382" x2="101.39" y2="57.8223" stroke="white"/>
<line x1="-30.0948" y1="91.456" x2="52.4647" y2="8.89652" stroke="white"/>
<line x1="43.292" y1="164.843" x2="125.851" y2="82.2832" stroke="white"/>
<line x1="-5.63334" y1="115.918" x2="76.9262" y2="33.3584" stroke="white"/>
<line x1="31.0603" y1="152.611" x2="113.62" y2="70.0518" stroke="white"/>
<line x1="-17.8631" y1="103.688" x2="64.6964" y2="21.1289" stroke="white"/>
<line x1="6.5986" y1="128.149" x2="89.1581" y2="45.5899" stroke="white"/>
</g>
</g>
</svg>
