<svg width="342" height="70" viewBox="0 0 342 70" fill="none" xmlns="http://www.w3.org/2000/svg">
<path d="M0.14502 32.3235V70H9.74012C9.07264 63.2471 13.6338 56.6176 15.9978 54.1471C19.669 49.0412 27.9569 46.3922 31.642 45.7059C39.6518 44.3882 47.4948 48.451 50.415 50.6471C58.9254 56.4118 60.914 65.951 60.8445 70H71.0653V0H62.7218C60.2187 11.2 55.8383 17.5686 53.961 19.3529C46.1181 28.7412 35.8138 33.5588 31.642 34.7941C15.4555 39.7353 3.89962 35.2059 0.14502 32.3235Z" fill="white"/>
<path d="M106.72 68.3059C92.2522 68.3059 81.77 58.7846 81.77 43.3586C81.77 27.8588 92.1045 18.2637 106.72 18.2637C119.491 18.2637 128.571 25.866 128.571 37.0849C128.571 37.6015 128.497 38.561 128.423 39.4468H120.598C120.672 38.7825 120.672 38.192 120.672 37.823C120.672 30.3683 114.84 25.6445 107.016 25.6445C97.567 25.6445 90.7758 32.5087 90.7758 43.3586C90.7758 54.2085 97.8623 60.9251 107.016 60.9251C115.136 60.9251 120.82 56.2751 120.82 49.2633V48.0824H128.718V49.78C128.718 60.7774 119.565 68.3059 106.72 68.3059Z" fill="white"/>
<path d="M160.143 68.3059C146.043 68.3059 134.971 58.7846 134.971 43.0634C134.971 27.6374 146.043 18.2637 160.143 18.2637C174.316 18.2637 185.388 27.6374 185.388 43.0634C185.388 58.7846 174.316 68.3059 160.143 68.3059ZM160.143 60.9251C169.148 60.9251 176.383 54.2085 176.383 43.0634C176.383 32.2135 169.148 25.6445 160.143 25.6445C151.211 25.6445 143.977 32.2135 143.977 43.0634C143.977 54.2085 151.211 60.9251 160.143 60.9251Z" fill="white"/>
<path d="M216.587 68.3059C202.488 68.3059 191.415 58.7846 191.415 43.0634C191.415 27.6374 202.488 18.2637 216.587 18.2637C230.76 18.2637 241.833 27.6374 241.833 43.0634C241.833 58.7846 230.76 68.3059 216.587 68.3059ZM216.587 60.9251C225.593 60.9251 232.827 54.2085 232.827 43.0634C232.827 32.2135 225.593 25.6445 216.587 25.6445C207.655 25.6445 200.421 32.2135 200.421 43.0634C200.421 54.2085 207.655 60.9251 216.587 60.9251Z" fill="white"/>
<path d="M249.558 67.5678V19.0018H270.891C283.367 19.0018 289.789 24.3898 289.789 33.0992C289.789 39.3729 287.057 43.6538 281.373 44.6872V44.8348C287.279 45.7205 289.493 49.8538 289.493 55.6846V67.5678H280.562V55.8323C280.562 50.9609 278.568 48.3038 272.072 48.3038H258.416V67.5678H249.558ZM258.416 42.4729H271.039C278.199 42.4729 281.3 39.3729 281.3 34.2063C281.3 29.335 277.904 26.3826 270.818 26.3826H258.416V42.4729Z" fill="white"/>
<path d="M298.217 67.5678V19.0018H316.819C332.026 19.0018 341.401 27.785 341.401 43.211C341.401 58.7846 332.543 67.5678 318.37 67.5678H298.217ZM307.075 60.187H318.222C326.932 60.187 332.616 54.3561 332.616 43.211C332.616 32.1397 326.489 26.3826 317.188 26.3826H307.075V60.187Z" fill="white"/>
<rect x="201.747" y="1.70508" width="28.1033" height="5.96527" fill="white"/>
</svg>
