<svg width="100" height="101" viewBox="0 0 100 101" fill="none" xmlns="http://www.w3.org/2000/svg">
<g opacity="0.5">
<mask id="mask0_404_5292" style="mask-type:alpha" maskUnits="userSpaceOnUse" x="20" y="39" width="32" height="32">
<path d="M23 55.0345C23 51.4983 24.3959 48.1069 26.8807 45.6064C29.3656 43.1059 32.7357 41.7012 36.2497 41.7012H49.4994V68.3679H36.2497C32.7357 68.3679 29.3656 66.9631 26.8807 64.4626C24.3959 61.9621 23 58.5707 23 55.0345Z" stroke="black" stroke-width="5" stroke-linecap="round" stroke-linejoin="round"/>
</mask>
<g mask="url(#mask0_404_5292)">
<line y1="-0.5" x2="98.4337" y2="-0.5" transform="matrix(0.704878 -0.709328 0.704878 0.709328 -6.30859 71.8184)" stroke="white"/>
<line y1="-0.5" x2="98.4337" y2="-0.5" transform="matrix(0.704878 -0.709328 0.704878 0.709328 34.8086 113.193)" stroke="white"/>
<line y1="-0.5" x2="98.4337" y2="-0.5" transform="matrix(0.704878 -0.709328 0.704878 0.709328 14.25 92.5059)" stroke="white"/>
<line y1="-0.5" x2="98.4337" y2="-0.5" transform="matrix(0.704878 -0.709328 0.704878 0.709328 -26.8633 51.1309)" stroke="white"/>
<line y1="-0.5" x2="98.4337" y2="-0.5" transform="matrix(0.704878 -0.709328 0.704878 0.709328 3.97266 82.1621)" stroke="white"/>
<line y1="-0.5" x2="98.4337" y2="-0.5" transform="matrix(0.704878 -0.709328 0.704878 0.709328 -37.1445 40.7871)" stroke="white"/>
<line y1="-0.5" x2="98.4337" y2="-0.5" transform="matrix(0.704878 -0.709328 0.704878 0.709328 45.0901 123.539)" stroke="white"/>
<line y1="-0.5" x2="98.4337" y2="-0.5" transform="matrix(0.704878 -0.709328 0.704878 0.709328 24.5273 102.85)" stroke="white"/>
<line y1="-0.5" x2="98.4337" y2="-0.5" transform="matrix(0.704878 -0.709328 0.704878 0.709328 -16.5898 61.4746)" stroke="white"/>
<line y1="-0.5" x2="98.4337" y2="-0.5" transform="matrix(0.704878 -0.709328 0.704878 0.709328 -14.0195 64.0605)" stroke="white"/>
<line y1="-0.5" x2="98.4337" y2="-0.5" transform="matrix(0.704878 -0.709328 0.704878 0.709328 27.0977 105.436)" stroke="white"/>
<line y1="-0.5" x2="98.4337" y2="-0.5" transform="matrix(0.704878 -0.709328 0.704878 0.709328 6.54297 84.748)" stroke="white"/>
<line y1="-0.5" x2="98.4337" y2="-0.5" transform="matrix(0.704878 -0.709328 0.704878 0.709328 -34.5742 43.373)" stroke="white"/>
<line y1="-0.5" x2="98.4337" y2="-0.5" transform="matrix(0.704878 -0.709328 0.704878 0.709328 47.6562 126.125)" stroke="white"/>
<line y1="-0.5" x2="98.4337" y2="-0.5" transform="matrix(0.704878 -0.709328 0.704878 0.709328 -3.73828 74.4043)" stroke="white"/>
<line y1="-0.5" x2="98.4337" y2="-0.5" transform="matrix(0.704878 -0.709328 0.704878 0.709328 37.3789 115.779)" stroke="white"/>
<line y1="-0.5" x2="98.4337" y2="-0.5" transform="matrix(0.704878 -0.709328 0.704878 0.709328 16.8164 95.0918)" stroke="white"/>
<line y1="-0.5" x2="98.4337" y2="-0.5" transform="matrix(0.704878 -0.709328 0.704878 0.709328 -24.2969 53.7168)" stroke="white"/>
<line y1="-0.5" x2="98.4337" y2="-0.5" transform="matrix(0.704878 -0.709328 0.704878 0.709328 -8.87891 69.2324)" stroke="white"/>
<line y1="-0.5" x2="98.4337" y2="-0.5" transform="matrix(0.704878 -0.709328 0.704878 0.709328 32.2383 110.607)" stroke="white"/>
<line y1="-0.5" x2="98.4337" y2="-0.5" transform="matrix(0.704878 -0.709328 0.704878 0.709328 11.6836 89.9199)" stroke="white"/>
<line y1="-0.5" x2="98.4337" y2="-0.5" transform="matrix(0.704878 -0.709328 0.704878 0.709328 -29.4336 48.5449)" stroke="white"/>
<line y1="-0.5" x2="98.4337" y2="-0.5" transform="matrix(0.704878 -0.709328 0.704878 0.709328 1.40234 79.5762)" stroke="white"/>
<line y1="-0.5" x2="98.4337" y2="-0.5" transform="matrix(0.704878 -0.709328 0.704878 0.709328 42.5198 120.951)" stroke="white"/>
<line y1="-0.5" x2="98.4337" y2="-0.5" transform="matrix(0.704878 -0.709328 0.704878 0.709328 21.957 100.264)" stroke="white"/>
<line y1="-0.5" x2="98.4337" y2="-0.5" transform="matrix(0.704878 -0.709328 0.704878 0.709328 -19.1602 58.8887)" stroke="white"/>
<line y1="-0.5" x2="98.4337" y2="-0.5" transform="matrix(0.704878 -0.709328 0.704878 0.709328 -11.4492 66.6465)" stroke="white"/>
<line y1="-0.5" x2="98.4337" y2="-0.5" transform="matrix(0.704878 -0.709328 0.704878 0.709328 29.668 108.021)" stroke="white"/>
<line y1="-0.5" x2="98.4337" y2="-0.5" transform="matrix(0.704878 -0.709328 0.704878 0.709328 9.11328 87.334)" stroke="white"/>
<line y1="-0.5" x2="98.4337" y2="-0.5" transform="matrix(0.704878 -0.709328 0.704878 0.709328 -32.0039 45.959)" stroke="white"/>
<line y1="-0.5" x2="98.4337" y2="-0.5" transform="matrix(0.704878 -0.709328 0.704878 0.709328 50.2268 128.709)" stroke="white"/>
<line y1="-0.5" x2="98.4337" y2="-0.5" transform="matrix(0.704878 -0.709328 0.704878 0.709328 -1.16797 76.9902)" stroke="white"/>
<line y1="-0.5" x2="98.4337" y2="-0.5" transform="matrix(0.704878 -0.709328 0.704878 0.709328 39.9492 118.365)" stroke="white"/>
<line y1="-0.5" x2="98.4337" y2="-0.5" transform="matrix(0.704878 -0.709328 0.704878 0.709328 19.3867 97.6777)" stroke="white"/>
<line y1="-0.5" x2="98.4337" y2="-0.5" transform="matrix(0.704878 -0.709328 0.704878 0.709328 -21.7266 56.3027)" stroke="white"/>
<line y1="-0.5" x2="98.4337" y2="-0.5" transform="matrix(0.704878 -0.709328 0.704878 0.709328 -5.01953 73.1113)" stroke="white"/>
<line y1="-0.5" x2="98.4337" y2="-0.5" transform="matrix(0.704878 -0.709328 0.704878 0.709328 36.094 114.486)" stroke="white"/>
<line y1="-0.5" x2="98.4337" y2="-0.5" transform="matrix(0.704878 -0.709328 0.704878 0.709328 15.5352 93.7988)" stroke="white"/>
<line y1="-0.5" x2="98.4337" y2="-0.5" transform="matrix(0.704878 -0.709328 0.704878 0.709328 -25.582 52.4238)" stroke="white"/>
<line y1="-0.5" x2="98.4337" y2="-0.5" transform="matrix(0.704878 -0.709328 0.704878 0.709328 5.25781 83.4551)" stroke="white"/>
<line y1="-0.5" x2="98.4337" y2="-0.5" transform="matrix(0.704878 -0.709328 0.704878 0.709328 -35.8594 42.0801)" stroke="white"/>
<line y1="-0.5" x2="98.4337" y2="-0.5" transform="matrix(0.704878 -0.709328 0.704878 0.709328 46.3711 124.83)" stroke="white"/>
<line y1="-0.5" x2="98.4337" y2="-0.5" transform="matrix(0.704878 -0.709328 0.704878 0.709328 25.8125 104.143)" stroke="white"/>
<line y1="-0.5" x2="98.4337" y2="-0.5" transform="matrix(0.704878 -0.709328 0.704878 0.709328 -15.3047 62.7676)" stroke="white"/>
<line y1="-0.5" x2="98.4337" y2="-0.5" transform="matrix(0.704878 -0.709328 0.704878 0.709328 -12.7344 65.3535)" stroke="white"/>
<line y1="-0.5" x2="98.4337" y2="-0.5" transform="matrix(0.704878 -0.709328 0.704878 0.709328 28.3867 106.729)" stroke="white"/>
<line y1="-0.5" x2="98.4337" y2="-0.5" transform="matrix(0.704878 -0.709328 0.704878 0.709328 7.82812 86.041)" stroke="white"/>
<line y1="-0.5" x2="98.4337" y2="-0.5" transform="matrix(0.704878 -0.709328 0.704878 0.709328 -33.2891 44.666)" stroke="white"/>
<line y1="-0.5" x2="98.4337" y2="-0.5" transform="matrix(0.704878 -0.709328 0.704878 0.709328 48.9414 127.416)" stroke="white"/>
<line y1="-0.5" x2="98.4337" y2="-0.5" transform="matrix(0.704878 -0.709328 0.704878 0.709328 -2.45312 75.6973)" stroke="white"/>
<line y1="-0.5" x2="98.4337" y2="-0.5" transform="matrix(0.704878 -0.709328 0.704878 0.709328 38.6643 117.072)" stroke="white"/>
<line y1="-0.5" x2="98.4337" y2="-0.5" transform="matrix(0.704878 -0.709328 0.704878 0.709328 18.1016 96.3848)" stroke="white"/>
<line y1="-0.5" x2="98.4337" y2="-0.5" transform="matrix(0.704878 -0.709328 0.704878 0.709328 -23.0117 55.0098)" stroke="white"/>
<line y1="-0.5" x2="98.4337" y2="-0.5" transform="matrix(0.704878 -0.709328 0.704878 0.709328 -7.59375 70.5254)" stroke="white"/>
<line y1="-0.5" x2="98.4337" y2="-0.5" transform="matrix(0.704878 -0.709328 0.704878 0.709328 33.5234 111.9)" stroke="white"/>
<line y1="-0.5" x2="98.4337" y2="-0.5" transform="matrix(0.704878 -0.709328 0.704878 0.709328 12.9648 91.2129)" stroke="white"/>
<line y1="-0.5" x2="98.4337" y2="-0.5" transform="matrix(0.704878 -0.709328 0.704878 0.709328 -28.1484 49.8379)" stroke="white"/>
<line y1="-0.5" x2="98.4337" y2="-0.5" transform="matrix(0.704878 -0.709328 0.704878 0.709328 2.6875 80.8691)" stroke="white"/>
<line y1="-0.5" x2="98.4337" y2="-0.5" transform="matrix(0.704878 -0.709328 0.704878 0.709328 -38.4258 39.4941)" stroke="white"/>
<line y1="-0.5" x2="98.4337" y2="-0.5" transform="matrix(0.704878 -0.709328 0.704878 0.709328 43.8047 122.244)" stroke="white"/>
<line y1="-0.5" x2="98.4337" y2="-0.5" transform="matrix(0.704878 -0.709328 0.704878 0.709328 23.2422 101.557)" stroke="white"/>
<line y1="-0.5" x2="98.4337" y2="-0.5" transform="matrix(0.704878 -0.709328 0.704878 0.709328 -17.875 60.1816)" stroke="white"/>
<line y1="-0.5" x2="98.4337" y2="-0.5" transform="matrix(0.704878 -0.709328 0.704878 0.709328 -10.1641 67.9395)" stroke="white"/>
<line y1="-0.5" x2="98.4337" y2="-0.5" transform="matrix(0.704878 -0.709328 0.704878 0.709328 30.9531 109.314)" stroke="white"/>
<line y1="-0.5" x2="98.4337" y2="-0.5" transform="matrix(0.704878 -0.709328 0.704878 0.709328 10.3984 88.627)" stroke="white"/>
<line y1="-0.5" x2="98.4337" y2="-0.5" transform="matrix(0.704878 -0.709328 0.704878 0.709328 -30.7188 47.252)" stroke="white"/>
<line y1="-0.5" x2="98.4337" y2="-0.5" transform="matrix(0.704878 -0.709328 0.704878 0.709328 51.5117 130.004)" stroke="white"/>
<line y1="-0.5" x2="98.4337" y2="-0.5" transform="matrix(0.704878 -0.709328 0.704878 0.709328 0.117188 78.2832)" stroke="white"/>
<line y1="-0.5" x2="98.4337" y2="-0.5" transform="matrix(0.704878 -0.709328 0.704878 0.709328 41.2344 119.658)" stroke="white"/>
<line y1="-0.5" x2="98.4337" y2="-0.5" transform="matrix(0.704878 -0.709328 0.704878 0.709328 20.6719 98.9707)" stroke="white"/>
<line y1="-0.5" x2="98.4337" y2="-0.5" transform="matrix(0.704878 -0.709328 0.704878 0.709328 -20.4453 57.5957)" stroke="white"/>
</g>
<mask id="mask1_404_5292" style="mask-type:alpha" maskUnits="userSpaceOnUse" x="20" y="65" width="32" height="33">
<path d="M23 81.7025C23 78.1663 24.3959 74.7749 26.8807 72.2744C29.3656 69.7739 32.7357 68.3691 36.2497 68.3691H49.4994V81.7025C49.4994 85.2387 48.1035 88.6301 45.6187 91.1306C43.1339 93.6311 39.7637 95.0358 36.2497 95.0358C32.7357 95.0358 29.3656 93.6311 26.8807 91.1306C24.3959 88.6301 23 85.2387 23 81.7025Z" stroke="black" stroke-width="5" stroke-linecap="round" stroke-linejoin="round"/>
</mask>
<g mask="url(#mask1_404_5292)">
<line y1="-0.5" x2="98.4337" y2="-0.5" transform="matrix(0.704878 -0.709328 0.704878 0.709328 -6.30859 71.8203)" stroke="white"/>
<line y1="-0.5" x2="98.4337" y2="-0.5" transform="matrix(0.704878 -0.709328 0.704878 0.709328 34.8086 113.195)" stroke="white"/>
<line y1="-0.5" x2="98.4337" y2="-0.5" transform="matrix(0.704878 -0.709328 0.704878 0.709328 14.25 92.5078)" stroke="white"/>
<line y1="-0.5" x2="98.4337" y2="-0.5" transform="matrix(0.704878 -0.709328 0.704878 0.709328 3.97266 82.1641)" stroke="white"/>
<line y1="-0.5" x2="98.4337" y2="-0.5" transform="matrix(0.704878 -0.709328 0.704878 0.709328 45.0901 123.541)" stroke="white"/>
<line y1="-0.5" x2="98.4337" y2="-0.5" transform="matrix(0.704878 -0.709328 0.704878 0.709328 24.5273 102.852)" stroke="white"/>
<line y1="-0.5" x2="98.4337" y2="-0.5" transform="matrix(0.704878 -0.709328 0.704878 0.709328 27.0977 105.438)" stroke="white"/>
<line y1="-0.5" x2="98.4337" y2="-0.5" transform="matrix(0.704878 -0.709328 0.704878 0.709328 6.54297 84.75)" stroke="white"/>
<line y1="-0.5" x2="98.4337" y2="-0.5" transform="matrix(0.704878 -0.709328 0.704878 0.709328 47.6562 126.127)" stroke="white"/>
<line y1="-0.5" x2="98.4337" y2="-0.5" transform="matrix(0.704878 -0.709328 0.704878 0.709328 -3.73828 74.4062)" stroke="white"/>
<line y1="-0.5" x2="98.4337" y2="-0.5" transform="matrix(0.704878 -0.709328 0.704878 0.709328 37.3789 115.781)" stroke="white"/>
<line y1="-0.5" x2="98.4337" y2="-0.5" transform="matrix(0.704878 -0.709328 0.704878 0.709328 16.8164 95.0938)" stroke="white"/>
<line y1="-0.5" x2="98.4337" y2="-0.5" transform="matrix(0.704878 -0.709328 0.704878 0.709328 -8.87891 69.2344)" stroke="white"/>
<line y1="-0.5" x2="98.4337" y2="-0.5" transform="matrix(0.704878 -0.709328 0.704878 0.709328 32.2383 110.609)" stroke="white"/>
<line y1="-0.5" x2="98.4337" y2="-0.5" transform="matrix(0.704878 -0.709328 0.704878 0.709328 11.6836 89.9219)" stroke="white"/>
<line y1="-0.5" x2="98.4337" y2="-0.5" transform="matrix(0.704878 -0.709328 0.704878 0.709328 1.40234 79.5781)" stroke="white"/>
<line y1="-0.5" x2="98.4337" y2="-0.5" transform="matrix(0.704878 -0.709328 0.704878 0.709328 42.5198 120.953)" stroke="white"/>
<line y1="-0.5" x2="98.4337" y2="-0.5" transform="matrix(0.704878 -0.709328 0.704878 0.709328 21.957 100.266)" stroke="white"/>
<line y1="-0.5" x2="98.4337" y2="-0.5" transform="matrix(0.704878 -0.709328 0.704878 0.709328 -11.4492 66.6484)" stroke="white"/>
<line y1="-0.5" x2="98.4337" y2="-0.5" transform="matrix(0.704878 -0.709328 0.704878 0.709328 29.668 108.023)" stroke="white"/>
<line y1="-0.5" x2="98.4337" y2="-0.5" transform="matrix(0.704878 -0.709328 0.704878 0.709328 9.11328 87.3359)" stroke="white"/>
<line y1="-0.5" x2="98.4337" y2="-0.5" transform="matrix(0.704878 -0.709328 0.704878 0.709328 50.2268 128.713)" stroke="white"/>
<line y1="-0.5" x2="98.4337" y2="-0.5" transform="matrix(0.704878 -0.709328 0.704878 0.709328 -1.16797 76.9922)" stroke="white"/>
<line y1="-0.5" x2="98.4337" y2="-0.5" transform="matrix(0.704878 -0.709328 0.704878 0.709328 39.9492 118.367)" stroke="white"/>
<line y1="-0.5" x2="98.4337" y2="-0.5" transform="matrix(0.704878 -0.709328 0.704878 0.709328 19.3867 97.6797)" stroke="white"/>
<line y1="-0.5" x2="98.4337" y2="-0.5" transform="matrix(0.704878 -0.709328 0.704878 0.709328 -5.01953 73.1133)" stroke="white"/>
<line y1="-0.5" x2="98.4337" y2="-0.5" transform="matrix(0.704878 -0.709328 0.704878 0.709328 36.094 114.488)" stroke="white"/>
<line y1="-0.5" x2="98.4337" y2="-0.5" transform="matrix(0.704878 -0.709328 0.704878 0.709328 15.5352 93.8008)" stroke="white"/>
<line y1="-0.5" x2="98.4337" y2="-0.5" transform="matrix(0.704878 -0.709328 0.704878 0.709328 5.25781 83.457)" stroke="white"/>
<line y1="-0.5" x2="98.4337" y2="-0.5" transform="matrix(0.704878 -0.709328 0.704878 0.709328 46.3711 124.832)" stroke="white"/>
<line y1="-0.5" x2="98.4337" y2="-0.5" transform="matrix(0.704878 -0.709328 0.704878 0.709328 25.8125 104.145)" stroke="white"/>
<line y1="-0.5" x2="98.4337" y2="-0.5" transform="matrix(0.704878 -0.709328 0.704878 0.709328 28.3867 106.73)" stroke="white"/>
<line y1="-0.5" x2="98.4337" y2="-0.5" transform="matrix(0.704878 -0.709328 0.704878 0.709328 7.82812 86.043)" stroke="white"/>
<line y1="-0.5" x2="98.4337" y2="-0.5" transform="matrix(0.704878 -0.709328 0.704878 0.709328 48.9414 127.418)" stroke="white"/>
<line y1="-0.5" x2="98.4337" y2="-0.5" transform="matrix(0.704878 -0.709328 0.704878 0.709328 -2.45312 75.6992)" stroke="white"/>
<line y1="-0.5" x2="98.4337" y2="-0.5" transform="matrix(0.704878 -0.709328 0.704878 0.709328 38.6643 117.074)" stroke="white"/>
<line y1="-0.5" x2="98.4337" y2="-0.5" transform="matrix(0.704878 -0.709328 0.704878 0.709328 18.1016 96.3867)" stroke="white"/>
<line y1="-0.5" x2="98.4337" y2="-0.5" transform="matrix(0.704878 -0.709328 0.704878 0.709328 -7.59375 70.5273)" stroke="white"/>
<line y1="-0.5" x2="98.4337" y2="-0.5" transform="matrix(0.704878 -0.709328 0.704878 0.709328 33.5234 111.902)" stroke="white"/>
<line y1="-0.5" x2="98.4337" y2="-0.5" transform="matrix(0.704878 -0.709328 0.704878 0.709328 12.9648 91.2148)" stroke="white"/>
<line y1="-0.5" x2="98.4337" y2="-0.5" transform="matrix(0.704878 -0.709328 0.704878 0.709328 2.6875 80.8711)" stroke="white"/>
<line y1="-0.5" x2="98.4337" y2="-0.5" transform="matrix(0.704878 -0.709328 0.704878 0.709328 43.8047 122.246)" stroke="white"/>
<line y1="-0.5" x2="98.4337" y2="-0.5" transform="matrix(0.704878 -0.709328 0.704878 0.709328 23.2422 101.559)" stroke="white"/>
<line y1="-0.5" x2="98.4337" y2="-0.5" transform="matrix(0.704878 -0.709328 0.704878 0.709328 -10.1641 67.9414)" stroke="white"/>
<line y1="-0.5" x2="98.4337" y2="-0.5" transform="matrix(0.704878 -0.709328 0.704878 0.709328 30.9531 109.316)" stroke="white"/>
<line y1="-0.5" x2="98.4337" y2="-0.5" transform="matrix(0.704878 -0.709328 0.704878 0.709328 10.3984 88.6289)" stroke="white"/>
<line y1="-0.5" x2="98.4337" y2="-0.5" transform="matrix(0.704878 -0.709328 0.704878 0.709328 51.5117 130.006)" stroke="white"/>
<line y1="-0.5" x2="98.4337" y2="-0.5" transform="matrix(0.704878 -0.709328 0.704878 0.709328 0.117188 78.2852)" stroke="white"/>
<line y1="-0.5" x2="98.4337" y2="-0.5" transform="matrix(0.704878 -0.709328 0.704878 0.709328 41.2344 119.66)" stroke="white"/>
<line y1="-0.5" x2="98.4337" y2="-0.5" transform="matrix(0.704878 -0.709328 0.704878 0.709328 20.6719 98.9727)" stroke="white"/>
</g>
<mask id="mask2_404_5292" style="mask-type:alpha" maskUnits="userSpaceOnUse" x="47" y="39" width="32" height="32">
<path d="M49.5 55.0345C49.5 53.2836 49.8427 51.5497 50.5086 49.9321C51.1744 48.3144 52.1504 46.8445 53.3807 45.6064C54.6111 44.3683 56.0717 43.3862 57.6793 42.7161C59.2868 42.046 61.0097 41.7012 62.7497 41.7012C64.4897 41.7012 66.2126 42.046 67.8201 42.7161C69.4277 43.3862 70.8883 44.3683 72.1187 45.6064C73.349 46.8445 74.325 48.3144 74.9908 49.9321C75.6567 51.5497 75.9994 53.2836 75.9994 55.0345C75.9994 56.7855 75.6567 58.5193 74.9908 60.137C74.325 61.7546 73.349 63.2245 72.1187 64.4626C70.8883 65.7007 69.4277 66.6829 67.8201 67.3529C66.2126 68.023 64.4897 68.3679 62.7497 68.3679C61.0097 68.3679 59.2868 68.023 57.6793 67.3529C56.0717 66.6829 54.6111 65.7007 53.3807 64.4626C52.1504 63.2245 51.1744 61.7546 50.5086 60.137C49.8427 58.5193 49.5 56.7855 49.5 55.0345Z" stroke="black" stroke-width="5" stroke-linecap="round" stroke-linejoin="round"/>
</mask>
<g mask="url(#mask2_404_5292)">
<line y1="-0.5" x2="98.4337" y2="-0.5" transform="matrix(0.704878 -0.709328 0.704878 0.709328 -6.30859 71.8184)" stroke="white"/>
<line y1="-0.5" x2="98.4337" y2="-0.5" transform="matrix(0.704878 -0.709328 0.704878 0.709328 34.8086 113.193)" stroke="white"/>
<line y1="-0.5" x2="98.4337" y2="-0.5" transform="matrix(0.704878 -0.709328 0.704878 0.709328 14.25 92.5059)" stroke="white"/>
<line y1="-0.5" x2="98.4337" y2="-0.5" transform="matrix(0.704878 -0.709328 0.704878 0.709328 55.3672 133.883)" stroke="white"/>
<line y1="-0.5" x2="98.4337" y2="-0.5" transform="matrix(0.704878 -0.709328 0.704878 0.709328 3.97266 82.1621)" stroke="white"/>
<line y1="-0.5" x2="98.4337" y2="-0.5" transform="matrix(0.704878 -0.709328 0.704878 0.709328 45.0901 123.539)" stroke="white"/>
<line y1="-0.5" x2="98.4337" y2="-0.5" transform="matrix(0.704878 -0.709328 0.704878 0.709328 24.5273 102.85)" stroke="white"/>
<line y1="-0.5" x2="98.4337" y2="-0.5" transform="matrix(0.704878 -0.709328 0.704878 0.709328 -16.5898 61.4746)" stroke="white"/>
<line y1="-0.5" x2="98.4337" y2="-0.5" transform="matrix(0.704878 -0.709328 0.704878 0.709328 -14.0195 64.0605)" stroke="white"/>
<line y1="-0.5" x2="98.4337" y2="-0.5" transform="matrix(0.704878 -0.709328 0.704878 0.709328 27.0977 105.436)" stroke="white"/>
<line y1="-0.5" x2="98.4337" y2="-0.5" transform="matrix(0.704878 -0.709328 0.704878 0.709328 6.54297 84.748)" stroke="white"/>
<line y1="-0.5" x2="98.4337" y2="-0.5" transform="matrix(0.704878 -0.709328 0.704878 0.709328 47.6562 126.125)" stroke="white"/>
<line y1="-0.5" x2="98.4337" y2="-0.5" transform="matrix(0.704878 -0.709328 0.704878 0.709328 -3.73828 74.4043)" stroke="white"/>
<line y1="-0.5" x2="98.4337" y2="-0.5" transform="matrix(0.704878 -0.709328 0.704878 0.709328 37.3789 115.779)" stroke="white"/>
<line y1="-0.5" x2="98.4337" y2="-0.5" transform="matrix(0.704878 -0.709328 0.704878 0.709328 16.8164 95.0918)" stroke="white"/>
<line y1="-0.5" x2="98.4337" y2="-0.5" transform="matrix(0.704878 -0.709328 0.704878 0.709328 57.9338 136.469)" stroke="white"/>
<line y1="-0.5" x2="98.4337" y2="-0.5" transform="matrix(0.704878 -0.709328 0.704878 0.709328 -8.87891 69.2324)" stroke="white"/>
<line y1="-0.5" x2="98.4337" y2="-0.5" transform="matrix(0.704878 -0.709328 0.704878 0.709328 32.2383 110.607)" stroke="white"/>
<line y1="-0.5" x2="98.4337" y2="-0.5" transform="matrix(0.704878 -0.709328 0.704878 0.709328 11.6836 89.9199)" stroke="white"/>
<line y1="-0.5" x2="98.4337" y2="-0.5" transform="matrix(0.704878 -0.709328 0.704878 0.709328 52.7971 131.297)" stroke="white"/>
<line y1="-0.5" x2="98.4337" y2="-0.5" transform="matrix(0.704878 -0.709328 0.704878 0.709328 1.40234 79.5762)" stroke="white"/>
<line y1="-0.5" x2="98.4337" y2="-0.5" transform="matrix(0.704878 -0.709328 0.704878 0.709328 42.5198 120.951)" stroke="white"/>
<line y1="-0.5" x2="98.4337" y2="-0.5" transform="matrix(0.704878 -0.709328 0.704878 0.709328 21.957 100.264)" stroke="white"/>
<line y1="-0.5" x2="98.4337" y2="-0.5" transform="matrix(0.704878 -0.709328 0.704878 0.709328 -19.1602 58.8887)" stroke="white"/>
<line y1="-0.5" x2="98.4337" y2="-0.5" transform="matrix(0.704878 -0.709328 0.704878 0.709328 -11.4492 66.6465)" stroke="white"/>
<line y1="-0.5" x2="98.4337" y2="-0.5" transform="matrix(0.704878 -0.709328 0.704878 0.709328 29.668 108.021)" stroke="white"/>
<line y1="-0.5" x2="98.4337" y2="-0.5" transform="matrix(0.704878 -0.709328 0.704878 0.709328 9.11328 87.334)" stroke="white"/>
<line y1="-0.5" x2="98.4337" y2="-0.5" transform="matrix(0.704878 -0.709328 0.704878 0.709328 50.2268 128.709)" stroke="white"/>
<line y1="-0.5" x2="98.4337" y2="-0.5" transform="matrix(0.704878 -0.709328 0.704878 0.709328 -1.16797 76.9902)" stroke="white"/>
<line y1="-0.5" x2="98.4337" y2="-0.5" transform="matrix(0.704878 -0.709328 0.704878 0.709328 39.9492 118.365)" stroke="white"/>
<line y1="-0.5" x2="98.4337" y2="-0.5" transform="matrix(0.704878 -0.709328 0.704878 0.709328 19.3867 97.6777)" stroke="white"/>
<line y1="-0.5" x2="98.4337" y2="-0.5" transform="matrix(0.704878 -0.709328 0.704878 0.709328 -21.7266 56.3027)" stroke="white"/>
<line y1="-0.5" x2="98.4337" y2="-0.5" transform="matrix(0.704878 -0.709328 0.704878 0.709328 60.5039 139.055)" stroke="white"/>
<line y1="-0.5" x2="98.4337" y2="-0.5" transform="matrix(0.704878 -0.709328 0.704878 0.709328 -5.01953 73.1113)" stroke="white"/>
<line y1="-0.5" x2="98.4337" y2="-0.5" transform="matrix(0.704878 -0.709328 0.704878 0.709328 36.094 114.486)" stroke="white"/>
<line y1="-0.5" x2="98.4337" y2="-0.5" transform="matrix(0.704878 -0.709328 0.704878 0.709328 15.5352 93.7988)" stroke="white"/>
<line y1="-0.5" x2="98.4337" y2="-0.5" transform="matrix(0.704878 -0.709328 0.704878 0.709328 56.6526 135.176)" stroke="white"/>
<line y1="-0.5" x2="98.4337" y2="-0.5" transform="matrix(0.704878 -0.709328 0.704878 0.709328 5.25781 83.4551)" stroke="white"/>
<line y1="-0.5" x2="98.4337" y2="-0.5" transform="matrix(0.704878 -0.709328 0.704878 0.709328 46.3711 124.83)" stroke="white"/>
<line y1="-0.5" x2="98.4337" y2="-0.5" transform="matrix(0.704878 -0.709328 0.704878 0.709328 25.8125 104.143)" stroke="white"/>
<line y1="-0.5" x2="98.4337" y2="-0.5" transform="matrix(0.704878 -0.709328 0.704878 0.709328 -15.3047 62.7676)" stroke="white"/>
<line y1="-0.5" x2="98.4337" y2="-0.5" transform="matrix(0.704878 -0.709328 0.704878 0.709328 -12.7344 65.3535)" stroke="white"/>
<line y1="-0.5" x2="98.4337" y2="-0.5" transform="matrix(0.704878 -0.709328 0.704878 0.709328 28.3867 106.729)" stroke="white"/>
<line y1="-0.5" x2="98.4337" y2="-0.5" transform="matrix(0.704878 -0.709328 0.704878 0.709328 7.82812 86.041)" stroke="white"/>
<line y1="-0.5" x2="98.4337" y2="-0.5" transform="matrix(0.704878 -0.709328 0.704878 0.709328 48.9414 127.416)" stroke="white"/>
<line y1="-0.5" x2="98.4337" y2="-0.5" transform="matrix(0.704878 -0.709328 0.704878 0.709328 -2.45312 75.6973)" stroke="white"/>
<line y1="-0.5" x2="98.4337" y2="-0.5" transform="matrix(0.704878 -0.709328 0.704878 0.709328 38.6643 117.072)" stroke="white"/>
<line y1="-0.5" x2="98.4337" y2="-0.5" transform="matrix(0.704878 -0.709328 0.704878 0.709328 18.1016 96.3848)" stroke="white"/>
<line y1="-0.5" x2="98.4337" y2="-0.5" transform="matrix(0.704878 -0.709328 0.704878 0.709328 59.2188 137.762)" stroke="white"/>
<line y1="-0.5" x2="98.4337" y2="-0.5" transform="matrix(0.704878 -0.709328 0.704878 0.709328 -7.59375 70.5254)" stroke="white"/>
<line y1="-0.5" x2="98.4337" y2="-0.5" transform="matrix(0.704878 -0.709328 0.704878 0.709328 33.5234 111.9)" stroke="white"/>
<line y1="-0.5" x2="98.4337" y2="-0.5" transform="matrix(0.704878 -0.709328 0.704878 0.709328 12.9648 91.2129)" stroke="white"/>
<line y1="-0.5" x2="98.4337" y2="-0.5" transform="matrix(0.704878 -0.709328 0.704878 0.709328 54.082 132.59)" stroke="white"/>
<line y1="-0.5" x2="98.4337" y2="-0.5" transform="matrix(0.704878 -0.709328 0.704878 0.709328 2.6875 80.8691)" stroke="white"/>
<line y1="-0.5" x2="98.4337" y2="-0.5" transform="matrix(0.704878 -0.709328 0.704878 0.709328 43.8047 122.244)" stroke="white"/>
<line y1="-0.5" x2="98.4337" y2="-0.5" transform="matrix(0.704878 -0.709328 0.704878 0.709328 23.2422 101.557)" stroke="white"/>
<line y1="-0.5" x2="98.4337" y2="-0.5" transform="matrix(0.704878 -0.709328 0.704878 0.709328 -17.875 60.1816)" stroke="white"/>
<line y1="-0.5" x2="98.4337" y2="-0.5" transform="matrix(0.704878 -0.709328 0.704878 0.709328 -10.1641 67.9395)" stroke="white"/>
<line y1="-0.5" x2="98.4337" y2="-0.5" transform="matrix(0.704878 -0.709328 0.704878 0.709328 30.9531 109.314)" stroke="white"/>
<line y1="-0.5" x2="98.4337" y2="-0.5" transform="matrix(0.704878 -0.709328 0.704878 0.709328 10.3984 88.627)" stroke="white"/>
<line y1="-0.5" x2="98.4337" y2="-0.5" transform="matrix(0.704878 -0.709328 0.704878 0.709328 51.5117 130.004)" stroke="white"/>
<line y1="-0.5" x2="98.4337" y2="-0.5" transform="matrix(0.704878 -0.709328 0.704878 0.709328 0.117188 78.2832)" stroke="white"/>
<line y1="-0.5" x2="98.4337" y2="-0.5" transform="matrix(0.704878 -0.709328 0.704878 0.709328 41.2344 119.658)" stroke="white"/>
<line y1="-0.5" x2="98.4337" y2="-0.5" transform="matrix(0.704878 -0.709328 0.704878 0.709328 20.6719 98.9707)" stroke="white"/>
<line y1="-0.5" x2="98.4337" y2="-0.5" transform="matrix(0.704878 -0.709328 0.704878 0.709328 -20.4453 57.5957)" stroke="white"/>
<line y1="-0.5" x2="98.4337" y2="-0.5" transform="matrix(0.704878 -0.709328 0.704878 0.709328 61.793 140.348)" stroke="white"/>
</g>
<mask id="mask3_404_5292" style="mask-type:alpha" maskUnits="userSpaceOnUse" x="47" y="12" width="32" height="33">
<path d="M49.5 15.0352H62.7497C64.4897 15.0352 66.2126 15.38 67.8201 16.0501C69.4277 16.7202 70.8883 17.7023 72.1187 18.9404C73.349 20.1785 74.325 21.6484 74.9908 23.2661C75.6567 24.8837 75.9994 26.6175 75.9994 28.3685C75.9994 30.1195 75.6567 31.8533 74.9908 33.471C74.325 35.0886 73.349 36.5585 72.1187 37.7966C70.8883 39.0347 69.4277 40.0168 67.8201 40.6869C66.2126 41.357 64.4897 41.7018 62.7497 41.7018H49.5V15.0352Z" stroke="black" stroke-width="5" stroke-linecap="round" stroke-linejoin="round"/>
</mask>
<g mask="url(#mask3_404_5292)">
<line y1="-0.5" x2="98.4337" y2="-0.5" transform="matrix(0.704878 -0.709328 0.704878 0.709328 -6.30859 71.8203)" stroke="white"/>
<line y1="-0.5" x2="98.4337" y2="-0.5" transform="matrix(0.704878 -0.709328 0.704878 0.709328 34.8086 113.195)" stroke="white"/>
<line y1="-0.5" x2="98.4337" y2="-0.5" transform="matrix(0.704878 -0.709328 0.704878 0.709328 14.25 92.5078)" stroke="white"/>
<line y1="-0.5" x2="98.4337" y2="-0.5" transform="matrix(0.704878 -0.709328 0.704878 0.709328 3.97266 82.1641)" stroke="white"/>
<line y1="-0.5" x2="98.4337" y2="-0.5" transform="matrix(0.704878 -0.709328 0.704878 0.709328 24.5273 102.852)" stroke="white"/>
<line y1="-0.5" x2="98.4337" y2="-0.5" transform="matrix(0.704878 -0.709328 0.704878 0.709328 -16.5898 61.4766)" stroke="white"/>
<line y1="-0.5" x2="98.4337" y2="-0.5" transform="matrix(0.704878 -0.709328 0.704878 0.709328 -14.0195 64.0625)" stroke="white"/>
<line y1="-0.5" x2="98.4337" y2="-0.5" transform="matrix(0.704878 -0.709328 0.704878 0.709328 27.0977 105.438)" stroke="white"/>
<line y1="-0.5" x2="98.4337" y2="-0.5" transform="matrix(0.704878 -0.709328 0.704878 0.709328 6.54297 84.75)" stroke="white"/>
<line y1="-0.5" x2="98.4337" y2="-0.5" transform="matrix(0.704878 -0.709328 0.704878 0.709328 -3.73828 74.4062)" stroke="white"/>
<line y1="-0.5" x2="98.4337" y2="-0.5" transform="matrix(0.704878 -0.709328 0.704878 0.709328 16.8164 95.0938)" stroke="white"/>
<line y1="-0.5" x2="98.4337" y2="-0.5" transform="matrix(0.704878 -0.709328 0.704878 0.709328 -8.87891 69.2344)" stroke="white"/>
<line y1="-0.5" x2="98.4337" y2="-0.5" transform="matrix(0.704878 -0.709328 0.704878 0.709328 32.2383 110.609)" stroke="white"/>
<line y1="-0.5" x2="98.4337" y2="-0.5" transform="matrix(0.704878 -0.709328 0.704878 0.709328 11.6836 89.9219)" stroke="white"/>
<line y1="-0.5" x2="98.4337" y2="-0.5" transform="matrix(0.704878 -0.709328 0.704878 0.709328 1.40234 79.5781)" stroke="white"/>
<line y1="-0.5" x2="98.4337" y2="-0.5" transform="matrix(0.704878 -0.709328 0.704878 0.709328 21.957 100.266)" stroke="white"/>
<line y1="-0.5" x2="98.4337" y2="-0.5" transform="matrix(0.704878 -0.709328 0.704878 0.709328 -19.1602 58.8906)" stroke="white"/>
<line y1="-0.5" x2="98.4337" y2="-0.5" transform="matrix(0.704878 -0.709328 0.704878 0.709328 -11.4492 66.6484)" stroke="white"/>
<line y1="-0.5" x2="98.4337" y2="-0.5" transform="matrix(0.704878 -0.709328 0.704878 0.709328 29.668 108.023)" stroke="white"/>
<line y1="-0.5" x2="98.4337" y2="-0.5" transform="matrix(0.704878 -0.709328 0.704878 0.709328 9.11328 87.3359)" stroke="white"/>
<line y1="-0.5" x2="98.4337" y2="-0.5" transform="matrix(0.704878 -0.709328 0.704878 0.709328 -1.16797 76.9922)" stroke="white"/>
<line y1="-0.5" x2="98.4337" y2="-0.5" transform="matrix(0.704878 -0.709328 0.704878 0.709328 19.3867 97.6797)" stroke="white"/>
<line y1="-0.5" x2="98.4337" y2="-0.5" transform="matrix(0.704878 -0.709328 0.704878 0.709328 -21.7266 56.3047)" stroke="white"/>
<line y1="-0.5" x2="98.4337" y2="-0.5" transform="matrix(0.704878 -0.709328 0.704878 0.709328 -5.01953 73.1133)" stroke="white"/>
<line y1="-0.5" x2="98.4337" y2="-0.5" transform="matrix(0.704878 -0.709328 0.704878 0.709328 36.094 114.488)" stroke="white"/>
<line y1="-0.5" x2="98.4337" y2="-0.5" transform="matrix(0.704878 -0.709328 0.704878 0.709328 15.5352 93.8008)" stroke="white"/>
<line y1="-0.5" x2="98.4337" y2="-0.5" transform="matrix(0.704878 -0.709328 0.704878 0.709328 5.25781 83.457)" stroke="white"/>
<line y1="-0.5" x2="98.4337" y2="-0.5" transform="matrix(0.704878 -0.709328 0.704878 0.709328 25.8125 104.145)" stroke="white"/>
<line y1="-0.5" x2="98.4337" y2="-0.5" transform="matrix(0.704878 -0.709328 0.704878 0.709328 -15.3047 62.7695)" stroke="white"/>
<line y1="-0.5" x2="98.4337" y2="-0.5" transform="matrix(0.704878 -0.709328 0.704878 0.709328 -12.7344 65.3555)" stroke="white"/>
<line y1="-0.5" x2="98.4337" y2="-0.5" transform="matrix(0.704878 -0.709328 0.704878 0.709328 28.3867 106.73)" stroke="white"/>
<line y1="-0.5" x2="98.4337" y2="-0.5" transform="matrix(0.704878 -0.709328 0.704878 0.709328 7.82812 86.043)" stroke="white"/>
<line y1="-0.5" x2="98.4337" y2="-0.5" transform="matrix(0.704878 -0.709328 0.704878 0.709328 -2.45312 75.6992)" stroke="white"/>
<line y1="-0.5" x2="98.4337" y2="-0.5" transform="matrix(0.704878 -0.709328 0.704878 0.709328 18.1016 96.3867)" stroke="white"/>
<line y1="-0.5" x2="98.4337" y2="-0.5" transform="matrix(0.704878 -0.709328 0.704878 0.709328 -7.59375 70.5273)" stroke="white"/>
<line y1="-0.5" x2="98.4337" y2="-0.5" transform="matrix(0.704878 -0.709328 0.704878 0.709328 33.5234 111.902)" stroke="white"/>
<line y1="-0.5" x2="98.4337" y2="-0.5" transform="matrix(0.704878 -0.709328 0.704878 0.709328 12.9648 91.2148)" stroke="white"/>
<line y1="-0.5" x2="98.4337" y2="-0.5" transform="matrix(0.704878 -0.709328 0.704878 0.709328 2.6875 80.8711)" stroke="white"/>
<line y1="-0.5" x2="98.4337" y2="-0.5" transform="matrix(0.704878 -0.709328 0.704878 0.709328 23.2422 101.559)" stroke="white"/>
<line y1="-0.5" x2="98.4337" y2="-0.5" transform="matrix(0.704878 -0.709328 0.704878 0.709328 -17.875 60.1836)" stroke="white"/>
<line y1="-0.5" x2="98.4337" y2="-0.5" transform="matrix(0.704878 -0.709328 0.704878 0.709328 -10.1641 67.9414)" stroke="white"/>
<line y1="-0.5" x2="98.4337" y2="-0.5" transform="matrix(0.704878 -0.709328 0.704878 0.709328 30.9531 109.316)" stroke="white"/>
<line y1="-0.5" x2="98.4337" y2="-0.5" transform="matrix(0.704878 -0.709328 0.704878 0.709328 10.3984 88.6289)" stroke="white"/>
<line y1="-0.5" x2="98.4337" y2="-0.5" transform="matrix(0.704878 -0.709328 0.704878 0.709328 0.117188 78.2852)" stroke="white"/>
<line y1="-0.5" x2="98.4337" y2="-0.5" transform="matrix(0.704878 -0.709328 0.704878 0.709328 20.6719 98.9727)" stroke="white"/>
<line y1="-0.5" x2="98.4337" y2="-0.5" transform="matrix(0.704878 -0.709328 0.704878 0.709328 -20.4453 57.5977)" stroke="white"/>
</g>
<mask id="mask4_404_5292" style="mask-type:alpha" maskUnits="userSpaceOnUse" x="20" y="12" width="32" height="33">
<path d="M23 28.3685C23 24.8323 24.3959 21.4409 26.8807 18.9404C29.3656 16.4399 32.7357 15.0352 36.2497 15.0352H49.4994V41.7018H36.2497C32.7357 41.7018 29.3656 40.2971 26.8807 37.7966C24.3959 35.2961 23 31.9047 23 28.3685Z" stroke="black" stroke-width="5" stroke-linecap="round" stroke-linejoin="round"/>
</mask>
<g mask="url(#mask4_404_5292)">
<line y1="-0.5" x2="98.4337" y2="-0.5" transform="matrix(0.704878 -0.709328 0.704878 0.709328 -6.30859 71.8203)" stroke="white"/>
<line y1="-0.5" x2="98.4337" y2="-0.5" transform="matrix(0.704878 -0.709328 0.704878 0.709328 -47.4258 30.4434)" stroke="white"/>
<line y1="-0.5" x2="98.4337" y2="-0.5" transform="matrix(0.704878 -0.709328 0.704878 0.709328 34.8086 113.195)" stroke="white"/>
<line y1="-0.5" x2="98.4337" y2="-0.5" transform="matrix(0.704878 -0.709328 0.704878 0.709328 14.25 92.5078)" stroke="white"/>
<line y1="-0.5" x2="98.4337" y2="-0.5" transform="matrix(0.704878 -0.709328 0.704878 0.709328 -26.8633 51.1328)" stroke="white"/>
<line y1="-0.5" x2="98.4337" y2="-0.5" transform="matrix(0.704878 -0.709328 0.704878 0.709328 3.97266 82.1641)" stroke="white"/>
<line y1="-0.5" x2="98.4337" y2="-0.5" transform="matrix(0.704878 -0.709328 0.704878 0.709328 -37.1445 40.7891)" stroke="white"/>
<line y1="-0.5" x2="98.4337" y2="-0.5" transform="matrix(0.704878 -0.709328 0.704878 0.709328 24.5273 102.852)" stroke="white"/>
<line y1="-0.5" x2="98.4337" y2="-0.5" transform="matrix(0.704878 -0.709328 0.704878 0.709328 -16.5898 61.4766)" stroke="white"/>
<line y1="-0.5" x2="98.4337" y2="-0.5" transform="matrix(0.704878 -0.709328 0.704878 0.709328 -14.0195 64.0625)" stroke="white"/>
<line y1="-0.5" x2="98.4337" y2="-0.5" transform="matrix(0.704878 -0.709328 0.704878 0.709328 27.0977 105.438)" stroke="white"/>
<line y1="-0.5" x2="98.4337" y2="-0.5" transform="matrix(0.704878 -0.709328 0.704878 0.709328 6.54297 84.75)" stroke="white"/>
<line y1="-0.5" x2="98.4337" y2="-0.5" transform="matrix(0.704878 -0.709328 0.704878 0.709328 -34.5742 43.375)" stroke="white"/>
<line y1="-0.5" x2="98.4337" y2="-0.5" transform="matrix(0.704878 -0.709328 0.704878 0.709328 -3.73828 74.4062)" stroke="white"/>
<line y1="-0.5" x2="98.4337" y2="-0.5" transform="matrix(0.704878 -0.709328 0.704878 0.709328 -44.8555 33.0293)" stroke="white"/>
<line y1="-0.5" x2="98.4337" y2="-0.5" transform="matrix(0.704878 -0.709328 0.704878 0.709328 16.8164 95.0938)" stroke="white"/>
<line y1="-0.5" x2="98.4337" y2="-0.5" transform="matrix(0.704878 -0.709328 0.704878 0.709328 -24.2969 53.7188)" stroke="white"/>
<line y1="-0.5" x2="98.4337" y2="-0.5" transform="matrix(0.704878 -0.709328 0.704878 0.709328 -8.87891 69.2344)" stroke="white"/>
<line y1="-0.5" x2="98.4337" y2="-0.5" transform="matrix(0.704878 -0.709328 0.704878 0.709328 32.2383 110.609)" stroke="white"/>
<line y1="-0.5" x2="98.4337" y2="-0.5" transform="matrix(0.704878 -0.709328 0.704878 0.709328 11.6836 89.9219)" stroke="white"/>
<line y1="-0.5" x2="98.4337" y2="-0.5" transform="matrix(0.704878 -0.709328 0.704878 0.709328 -29.4336 48.5469)" stroke="white"/>
<line y1="-0.5" x2="98.4337" y2="-0.5" transform="matrix(0.704878 -0.709328 0.704878 0.709328 1.40234 79.5781)" stroke="white"/>
<line y1="-0.5" x2="98.4337" y2="-0.5" transform="matrix(0.704878 -0.709328 0.704878 0.709328 -39.7148 38.2031)" stroke="white"/>
<line y1="-0.5" x2="98.4337" y2="-0.5" transform="matrix(0.704878 -0.709328 0.704878 0.709328 21.957 100.266)" stroke="white"/>
<line y1="-0.5" x2="98.4337" y2="-0.5" transform="matrix(0.704878 -0.709328 0.704878 0.709328 -19.1602 58.8906)" stroke="white"/>
<line y1="-0.5" x2="98.4337" y2="-0.5" transform="matrix(0.704878 -0.709328 0.704878 0.709328 -11.4492 66.6484)" stroke="white"/>
<line y1="-0.5" x2="98.4337" y2="-0.5" transform="matrix(0.704878 -0.709328 0.704878 0.709328 29.668 108.023)" stroke="white"/>
<line y1="-0.5" x2="98.4337" y2="-0.5" transform="matrix(0.704878 -0.709328 0.704878 0.709328 9.11328 87.3359)" stroke="white"/>
<line y1="-0.5" x2="98.4337" y2="-0.5" transform="matrix(0.704878 -0.709328 0.704878 0.709328 -32.0039 45.9609)" stroke="white"/>
<line y1="-0.5" x2="98.4337" y2="-0.5" transform="matrix(0.704878 -0.709328 0.704878 0.709328 -1.16797 76.9922)" stroke="white"/>
<line y1="-0.5" x2="98.4337" y2="-0.5" transform="matrix(0.704878 -0.709328 0.704878 0.709328 -42.2852 35.6152)" stroke="white"/>
<line y1="-0.5" x2="98.4337" y2="-0.5" transform="matrix(0.704878 -0.709328 0.704878 0.709328 19.3867 97.6797)" stroke="white"/>
<line y1="-0.5" x2="98.4337" y2="-0.5" transform="matrix(0.704878 -0.709328 0.704878 0.709328 -21.7266 56.3047)" stroke="white"/>
<line y1="-0.5" x2="98.4337" y2="-0.5" transform="matrix(0.704878 -0.709328 0.704878 0.709328 -5.01953 73.1133)" stroke="white"/>
<line y1="-0.5" x2="98.4337" y2="-0.5" transform="matrix(0.704878 -0.709328 0.704878 0.709328 -46.1406 31.7383)" stroke="white"/>
<line y1="-0.5" x2="98.4337" y2="-0.5" transform="matrix(0.704878 -0.709328 0.704878 0.709328 36.094 114.488)" stroke="white"/>
<line y1="-0.5" x2="98.4337" y2="-0.5" transform="matrix(0.704878 -0.709328 0.704878 0.709328 15.5352 93.8008)" stroke="white"/>
<line y1="-0.5" x2="98.4337" y2="-0.5" transform="matrix(0.704878 -0.709328 0.704878 0.709328 -25.582 52.4258)" stroke="white"/>
<line y1="-0.5" x2="98.4337" y2="-0.5" transform="matrix(0.704878 -0.709328 0.704878 0.709328 5.25781 83.457)" stroke="white"/>
<line y1="-0.5" x2="98.4337" y2="-0.5" transform="matrix(0.704878 -0.709328 0.704878 0.709328 -35.8594 42.082)" stroke="white"/>
<line y1="-0.5" x2="98.4337" y2="-0.5" transform="matrix(0.704878 -0.709328 0.704878 0.709328 25.8125 104.145)" stroke="white"/>
<line y1="-0.5" x2="98.4337" y2="-0.5" transform="matrix(0.704878 -0.709328 0.704878 0.709328 -15.3047 62.7695)" stroke="white"/>
<line y1="-0.5" x2="98.4337" y2="-0.5" transform="matrix(0.704878 -0.709328 0.704878 0.709328 -12.7344 65.3555)" stroke="white"/>
<line y1="-0.5" x2="98.4337" y2="-0.5" transform="matrix(0.704878 -0.709328 0.704878 0.709328 28.3867 106.73)" stroke="white"/>
<line y1="-0.5" x2="98.4337" y2="-0.5" transform="matrix(0.704878 -0.709328 0.704878 0.709328 7.82812 86.043)" stroke="white"/>
<line y1="-0.5" x2="98.4337" y2="-0.5" transform="matrix(0.704878 -0.709328 0.704878 0.709328 -33.2891 44.668)" stroke="white"/>
<line y1="-0.5" x2="98.4337" y2="-0.5" transform="matrix(0.704878 -0.709328 0.704878 0.709328 -2.45312 75.6992)" stroke="white"/>
<line y1="-0.5" x2="98.4337" y2="-0.5" transform="matrix(0.704878 -0.709328 0.704878 0.709328 -43.5703 34.3223)" stroke="white"/>
<line y1="-0.5" x2="98.4337" y2="-0.5" transform="matrix(0.704878 -0.709328 0.704878 0.709328 18.1016 96.3867)" stroke="white"/>
<line y1="-0.5" x2="98.4337" y2="-0.5" transform="matrix(0.704878 -0.709328 0.704878 0.709328 -23.0117 55.0117)" stroke="white"/>
<line y1="-0.5" x2="98.4337" y2="-0.5" transform="matrix(0.704878 -0.709328 0.704878 0.709328 -7.59375 70.5273)" stroke="white"/>
<line y1="-0.5" x2="98.4337" y2="-0.5" transform="matrix(0.704878 -0.709328 0.704878 0.709328 -48.7109 29.1504)" stroke="white"/>
<line y1="-0.5" x2="98.4337" y2="-0.5" transform="matrix(0.704878 -0.709328 0.704878 0.709328 33.5234 111.902)" stroke="white"/>
<line y1="-0.5" x2="98.4337" y2="-0.5" transform="matrix(0.704878 -0.709328 0.704878 0.709328 12.9648 91.2148)" stroke="white"/>
<line y1="-0.5" x2="98.4337" y2="-0.5" transform="matrix(0.704878 -0.709328 0.704878 0.709328 -28.1484 49.8398)" stroke="white"/>
<line y1="-0.5" x2="98.4337" y2="-0.5" transform="matrix(0.704878 -0.709328 0.704878 0.709328 2.6875 80.8711)" stroke="white"/>
<line y1="-0.5" x2="98.4337" y2="-0.5" transform="matrix(0.704878 -0.709328 0.704878 0.709328 -38.4258 39.4961)" stroke="white"/>
<line y1="-0.5" x2="98.4337" y2="-0.5" transform="matrix(0.704878 -0.709328 0.704878 0.709328 23.2422 101.559)" stroke="white"/>
<line y1="-0.5" x2="98.4337" y2="-0.5" transform="matrix(0.704878 -0.709328 0.704878 0.709328 -17.875 60.1836)" stroke="white"/>
<line y1="-0.5" x2="98.4337" y2="-0.5" transform="matrix(0.704878 -0.709328 0.704878 0.709328 -10.1641 67.9414)" stroke="white"/>
<line y1="-0.5" x2="98.4337" y2="-0.5" transform="matrix(0.704878 -0.709328 0.704878 0.709328 30.9531 109.316)" stroke="white"/>
<line y1="-0.5" x2="98.4337" y2="-0.5" transform="matrix(0.704878 -0.709328 0.704878 0.709328 10.3984 88.6289)" stroke="white"/>
<line y1="-0.5" x2="98.4337" y2="-0.5" transform="matrix(0.704878 -0.709328 0.704878 0.709328 -30.7188 47.2539)" stroke="white"/>
<line y1="-0.5" x2="98.4337" y2="-0.5" transform="matrix(0.704878 -0.709328 0.704878 0.709328 0.117188 78.2852)" stroke="white"/>
<line y1="-0.5" x2="98.4337" y2="-0.5" transform="matrix(0.704878 -0.709328 0.704878 0.709328 -41 36.9102)" stroke="white"/>
<line y1="-0.5" x2="98.4337" y2="-0.5" transform="matrix(0.704878 -0.709328 0.704878 0.709328 20.6719 98.9727)" stroke="white"/>
<line y1="-0.5" x2="98.4337" y2="-0.5" transform="matrix(0.704878 -0.709328 0.704878 0.709328 -20.4453 57.5977)" stroke="white"/>
</g>
</g>
</svg>
