<svg width="837" height="731" viewBox="0 0 837 731" fill="none" xmlns="http://www.w3.org/2000/svg">
<line x1="33.5" y1="0.964844" x2="33.5" y2="32.9648" stroke="white" stroke-opacity="0.09"/>
<line x1="33.5" y1="35.9648" x2="33.5" y2="67.9648" stroke="white" stroke-opacity="0.09"/>
<line x1="35" y1="34.4648" x2="67" y2="34.4648" stroke="white" stroke-opacity="0.09"/>
<line y1="34.4648" x2="32" y2="34.4648" stroke="white" stroke-opacity="0.09"/>
<line x1="33.5" y1="70.9648" x2="33.5" y2="102.965" stroke="white" stroke-opacity="0.09"/>
<line x1="33.5" y1="105.965" x2="33.5" y2="137.965" stroke="white" stroke-opacity="0.09"/>
<line x1="35" y1="104.465" x2="67" y2="104.465" stroke="white" stroke-opacity="0.09"/>
<line y1="104.465" x2="32" y2="104.465" stroke="white" stroke-opacity="0.09"/>
<line x1="33.5" y1="140.965" x2="33.5" y2="172.965" stroke="white" stroke-opacity="0.09"/>
<line x1="33.5" y1="175.965" x2="33.5" y2="207.965" stroke="white" stroke-opacity="0.09"/>
<line x1="35" y1="174.465" x2="67" y2="174.465" stroke="white" stroke-opacity="0.09"/>
<line y1="174.465" x2="32" y2="174.465" stroke="white" stroke-opacity="0.09"/>
<line x1="33.5" y1="210.965" x2="33.5" y2="242.965" stroke="white" stroke-opacity="0.09"/>
<line x1="33.5" y1="245.965" x2="33.5" y2="277.965" stroke="white" stroke-opacity="0.09"/>
<line x1="35" y1="244.465" x2="67" y2="244.465" stroke="white" stroke-opacity="0.09"/>
<line y1="244.465" x2="32" y2="244.465" stroke="white" stroke-opacity="0.09"/>
<line x1="33.5" y1="280.965" x2="33.5" y2="312.965" stroke="white" stroke-opacity="0.09"/>
<line x1="33.5" y1="315.965" x2="33.5" y2="347.965" stroke="white" stroke-opacity="0.09"/>
<line x1="35" y1="314.465" x2="67" y2="314.465" stroke="white" stroke-opacity="0.09"/>
<line y1="314.465" x2="32" y2="314.465" stroke="white" stroke-opacity="0.09"/>
<line x1="33.5" y1="350.965" x2="33.5" y2="382.965" stroke="white" stroke-opacity="0.09"/>
<line x1="33.5" y1="385.965" x2="33.5" y2="417.965" stroke="white" stroke-opacity="0.09"/>
<line x1="35" y1="384.465" x2="67" y2="384.465" stroke="white" stroke-opacity="0.09"/>
<line y1="384.465" x2="32" y2="384.465" stroke="white" stroke-opacity="0.09"/>
<line x1="33.5" y1="420.965" x2="33.5" y2="452.965" stroke="white" stroke-opacity="0.09"/>
<line x1="33.5" y1="455.965" x2="33.5" y2="487.965" stroke="white" stroke-opacity="0.09"/>
<line x1="35" y1="454.465" x2="67" y2="454.465" stroke="white" stroke-opacity="0.09"/>
<line y1="454.465" x2="32" y2="454.465" stroke="white" stroke-opacity="0.09"/>
<line x1="33.5" y1="490.965" x2="33.5" y2="522.965" stroke="white" stroke-opacity="0.09"/>
<line x1="33.5" y1="525.965" x2="33.5" y2="557.965" stroke="white" stroke-opacity="0.09"/>
<line x1="35" y1="524.465" x2="67" y2="524.465" stroke="white" stroke-opacity="0.09"/>
<line y1="524.465" x2="32" y2="524.465" stroke="white" stroke-opacity="0.09"/>
<line x1="33.5" y1="560.965" x2="33.5" y2="592.965" stroke="white" stroke-opacity="0.09"/>
<line x1="33.5" y1="595.965" x2="33.5" y2="627.965" stroke="white" stroke-opacity="0.09"/>
<line x1="35" y1="594.465" x2="67" y2="594.465" stroke="white" stroke-opacity="0.09"/>
<line y1="594.465" x2="32" y2="594.465" stroke="white" stroke-opacity="0.09"/>
<line x1="33.5" y1="630.965" x2="33.5" y2="662.965" stroke="white" stroke-opacity="0.09"/>
<line x1="33.5" y1="665.965" x2="33.5" y2="697.965" stroke="white" stroke-opacity="0.09"/>
<line x1="35" y1="664.465" x2="67" y2="664.465" stroke="white" stroke-opacity="0.09"/>
<line y1="664.465" x2="32" y2="664.465" stroke="white" stroke-opacity="0.09"/>
<line x1="33.5" y1="700.965" x2="33.5" y2="732.965" stroke="white" stroke-opacity="0.09"/>
<line x1="103.5" y1="0.964844" x2="103.5" y2="32.9648" stroke="white" stroke-opacity="0.09"/>
<line x1="103.5" y1="35.9648" x2="103.5" y2="67.9648" stroke="white" stroke-opacity="0.09"/>
<line x1="105" y1="34.4648" x2="137" y2="34.4648" stroke="white" stroke-opacity="0.09"/>
<line x1="70" y1="34.4648" x2="102" y2="34.4648" stroke="white" stroke-opacity="0.09"/>
<line x1="103.5" y1="70.9648" x2="103.5" y2="102.965" stroke="white" stroke-opacity="0.09"/>
<line x1="103.5" y1="105.965" x2="103.5" y2="137.965" stroke="white" stroke-opacity="0.09"/>
<line x1="105" y1="104.465" x2="137" y2="104.465" stroke="white" stroke-opacity="0.09"/>
<line x1="70" y1="104.465" x2="102" y2="104.465" stroke="white" stroke-opacity="0.09"/>
<line x1="103.5" y1="140.965" x2="103.5" y2="172.965" stroke="white" stroke-opacity="0.09"/>
<line x1="103.5" y1="175.965" x2="103.5" y2="207.965" stroke="white" stroke-opacity="0.09"/>
<line x1="105" y1="174.465" x2="137" y2="174.465" stroke="white" stroke-opacity="0.09"/>
<line x1="70" y1="174.465" x2="102" y2="174.465" stroke="white" stroke-opacity="0.09"/>
<line x1="103.5" y1="210.965" x2="103.5" y2="242.965" stroke="white" stroke-opacity="0.09"/>
<line x1="103.5" y1="245.965" x2="103.5" y2="277.965" stroke="white" stroke-opacity="0.09"/>
<line x1="105" y1="244.465" x2="137" y2="244.465" stroke="white" stroke-opacity="0.09"/>
<line x1="70" y1="244.465" x2="102" y2="244.465" stroke="white" stroke-opacity="0.09"/>
<line x1="103.5" y1="280.965" x2="103.5" y2="312.965" stroke="white" stroke-opacity="0.09"/>
<line x1="103.5" y1="315.965" x2="103.5" y2="347.965" stroke="white" stroke-opacity="0.09"/>
<line x1="105" y1="314.465" x2="137" y2="314.465" stroke="white" stroke-opacity="0.09"/>
<line x1="70" y1="314.465" x2="102" y2="314.465" stroke="white" stroke-opacity="0.09"/>
<line x1="103.5" y1="350.965" x2="103.5" y2="382.965" stroke="white" stroke-opacity="0.09"/>
<line x1="103.5" y1="385.965" x2="103.5" y2="417.965" stroke="white" stroke-opacity="0.09"/>
<line x1="105" y1="384.465" x2="137" y2="384.465" stroke="white" stroke-opacity="0.09"/>
<line x1="70" y1="384.465" x2="102" y2="384.465" stroke="white" stroke-opacity="0.09"/>
<line x1="103.5" y1="420.965" x2="103.5" y2="452.965" stroke="white" stroke-opacity="0.09"/>
<line x1="103.5" y1="455.965" x2="103.5" y2="487.965" stroke="white" stroke-opacity="0.09"/>
<line x1="105" y1="454.465" x2="137" y2="454.465" stroke="white" stroke-opacity="0.09"/>
<line x1="70" y1="454.465" x2="102" y2="454.465" stroke="white" stroke-opacity="0.09"/>
<line x1="103.5" y1="490.965" x2="103.5" y2="522.965" stroke="white" stroke-opacity="0.09"/>
<line x1="103.5" y1="525.965" x2="103.5" y2="557.965" stroke="white" stroke-opacity="0.09"/>
<line x1="105" y1="524.465" x2="137" y2="524.465" stroke="white" stroke-opacity="0.09"/>
<line x1="70" y1="524.465" x2="102" y2="524.465" stroke="white" stroke-opacity="0.09"/>
<line x1="103.5" y1="560.965" x2="103.5" y2="592.965" stroke="white" stroke-opacity="0.09"/>
<line x1="103.5" y1="595.965" x2="103.5" y2="627.965" stroke="white" stroke-opacity="0.09"/>
<line x1="105" y1="594.465" x2="137" y2="594.465" stroke="white" stroke-opacity="0.09"/>
<line x1="70" y1="594.465" x2="102" y2="594.465" stroke="white" stroke-opacity="0.09"/>
<line x1="103.5" y1="630.965" x2="103.5" y2="662.965" stroke="white" stroke-opacity="0.09"/>
<line x1="103.5" y1="665.965" x2="103.5" y2="697.965" stroke="white" stroke-opacity="0.09"/>
<line x1="105" y1="664.465" x2="137" y2="664.465" stroke="white" stroke-opacity="0.09"/>
<line x1="70" y1="664.465" x2="102" y2="664.465" stroke="white" stroke-opacity="0.09"/>
<line x1="103.5" y1="700.965" x2="103.5" y2="732.965" stroke="#00D46B" stroke-opacity="0.23"/>
<line x1="173.5" y1="0.964844" x2="173.5" y2="32.9648" stroke="white" stroke-opacity="0.09"/>
<line x1="173.5" y1="35.9648" x2="173.5" y2="67.9648" stroke="white" stroke-opacity="0.09"/>
<line x1="175" y1="34.4648" x2="207" y2="34.4648" stroke="white" stroke-opacity="0.09"/>
<line x1="140" y1="34.4648" x2="172" y2="34.4648" stroke="white" stroke-opacity="0.09"/>
<line x1="173.5" y1="70.9648" x2="173.5" y2="102.965" stroke="white" stroke-opacity="0.09"/>
<line x1="173.5" y1="105.965" x2="173.5" y2="137.965" stroke="white" stroke-opacity="0.09"/>
<line x1="175" y1="104.465" x2="207" y2="104.465" stroke="white" stroke-opacity="0.09"/>
<line x1="140" y1="104.465" x2="172" y2="104.465" stroke="white" stroke-opacity="0.09"/>
<line x1="173.5" y1="140.965" x2="173.5" y2="172.965" stroke="white" stroke-opacity="0.09"/>
<line x1="173.5" y1="175.965" x2="173.5" y2="207.965" stroke="white" stroke-opacity="0.09"/>
<line x1="175" y1="174.465" x2="207" y2="174.465" stroke="white" stroke-opacity="0.09"/>
<line x1="140" y1="174.465" x2="172" y2="174.465" stroke="white" stroke-opacity="0.09"/>
<line x1="173.5" y1="210.965" x2="173.5" y2="242.965" stroke="white" stroke-opacity="0.09"/>
<line x1="173.5" y1="245.965" x2="173.5" y2="277.965" stroke="white" stroke-opacity="0.09"/>
<line x1="175" y1="244.465" x2="207" y2="244.465" stroke="white" stroke-opacity="0.09"/>
<line x1="140" y1="244.465" x2="172" y2="244.465" stroke="white" stroke-opacity="0.09"/>
<line x1="173.5" y1="280.965" x2="173.5" y2="312.965" stroke="white" stroke-opacity="0.09"/>
<line x1="173.5" y1="315.965" x2="173.5" y2="347.965" stroke="white" stroke-opacity="0.09"/>
<line x1="175" y1="314.465" x2="207" y2="314.465" stroke="white" stroke-opacity="0.09"/>
<line x1="140" y1="314.465" x2="172" y2="314.465" stroke="white" stroke-opacity="0.09"/>
<line x1="173.5" y1="350.965" x2="173.5" y2="382.965" stroke="white" stroke-opacity="0.09"/>
<line x1="173.5" y1="385.965" x2="173.5" y2="417.965" stroke="white" stroke-opacity="0.09"/>
<line x1="175" y1="384.465" x2="207" y2="384.465" stroke="white" stroke-opacity="0.09"/>
<line x1="140" y1="384.465" x2="172" y2="384.465" stroke="white" stroke-opacity="0.09"/>
<line x1="173.5" y1="420.965" x2="173.5" y2="452.965" stroke="white" stroke-opacity="0.09"/>
<line x1="173.5" y1="455.965" x2="173.5" y2="487.965" stroke="white" stroke-opacity="0.09"/>
<line x1="175" y1="454.465" x2="207" y2="454.465" stroke="white" stroke-opacity="0.09"/>
<line x1="140" y1="454.465" x2="172" y2="454.465" stroke="white" stroke-opacity="0.09"/>
<line x1="173.5" y1="490.965" x2="173.5" y2="522.965" stroke="white" stroke-opacity="0.09"/>
<line x1="173.5" y1="525.965" x2="173.5" y2="557.965" stroke="white" stroke-opacity="0.09"/>
<line x1="175" y1="524.465" x2="207" y2="524.465" stroke="white" stroke-opacity="0.09"/>
<line x1="140" y1="524.465" x2="172" y2="524.465" stroke="white" stroke-opacity="0.09"/>
<line x1="173.5" y1="560.965" x2="173.5" y2="592.965" stroke="white" stroke-opacity="0.09"/>
<line x1="173.5" y1="595.965" x2="173.5" y2="627.965" stroke="white" stroke-opacity="0.09"/>
<line x1="175" y1="594.465" x2="207" y2="594.465" stroke="white" stroke-opacity="0.09"/>
<line x1="140" y1="594.465" x2="172" y2="594.465" stroke="white" stroke-opacity="0.09"/>
<line x1="173.5" y1="630.965" x2="173.5" y2="662.965" stroke="#00D46B" stroke-opacity="0.23"/>
<line x1="173.5" y1="665.965" x2="173.5" y2="697.965" stroke="#00D46B" stroke-opacity="0.23"/>
<line x1="175" y1="664.465" x2="207" y2="664.465" stroke="#00D46B" stroke-opacity="0.23"/>
<line x1="140" y1="664.465" x2="172" y2="664.465" stroke="#00D46B" stroke-opacity="0.23"/>
<line x1="173.5" y1="700.965" x2="173.5" y2="732.965" stroke="white" stroke-opacity="0.09"/>
<line x1="243.5" y1="0.964844" x2="243.5" y2="32.9648" stroke="white" stroke-opacity="0.09"/>
<line x1="243.5" y1="35.9648" x2="243.5" y2="67.9648" stroke="white" stroke-opacity="0.09"/>
<line x1="245" y1="34.4648" x2="277" y2="34.4648" stroke="white" stroke-opacity="0.09"/>
<line x1="210" y1="34.4648" x2="242" y2="34.4648" stroke="white" stroke-opacity="0.09"/>
<line x1="243.5" y1="70.9648" x2="243.5" y2="102.965" stroke="white" stroke-opacity="0.09"/>
<line x1="243.5" y1="105.965" x2="243.5" y2="137.965" stroke="white" stroke-opacity="0.09"/>
<line x1="245" y1="104.465" x2="277" y2="104.465" stroke="white" stroke-opacity="0.09"/>
<line x1="210" y1="104.465" x2="242" y2="104.465" stroke="white" stroke-opacity="0.09"/>
<line x1="243.5" y1="140.965" x2="243.5" y2="172.965" stroke="white" stroke-opacity="0.09"/>
<line x1="243.5" y1="175.965" x2="243.5" y2="207.965" stroke="white" stroke-opacity="0.09"/>
<line x1="245" y1="174.465" x2="277" y2="174.465" stroke="white" stroke-opacity="0.09"/>
<line x1="210" y1="174.465" x2="242" y2="174.465" stroke="white" stroke-opacity="0.09"/>
<line x1="243.5" y1="210.965" x2="243.5" y2="242.965" stroke="white" stroke-opacity="0.09"/>
<line x1="243.5" y1="245.965" x2="243.5" y2="277.965" stroke="white" stroke-opacity="0.09"/>
<line x1="245" y1="244.465" x2="277" y2="244.465" stroke="white" stroke-opacity="0.09"/>
<line x1="210" y1="244.465" x2="242" y2="244.465" stroke="white" stroke-opacity="0.09"/>
<line x1="243.5" y1="280.965" x2="243.5" y2="312.965" stroke="white" stroke-opacity="0.09"/>
<line x1="243.5" y1="315.965" x2="243.5" y2="347.965" stroke="white" stroke-opacity="0.09"/>
<line x1="245" y1="314.465" x2="277" y2="314.465" stroke="white" stroke-opacity="0.09"/>
<line x1="210" y1="314.465" x2="242" y2="314.465" stroke="white" stroke-opacity="0.09"/>
<line x1="243.5" y1="350.965" x2="243.5" y2="382.965" stroke="white" stroke-opacity="0.09"/>
<line x1="243.5" y1="385.965" x2="243.5" y2="417.965" stroke="white" stroke-opacity="0.09"/>
<line x1="245" y1="384.465" x2="277" y2="384.465" stroke="white" stroke-opacity="0.09"/>
<line x1="210" y1="384.465" x2="242" y2="384.465" stroke="white" stroke-opacity="0.09"/>
<line x1="243.5" y1="420.965" x2="243.5" y2="452.965" stroke="white" stroke-opacity="0.09"/>
<line x1="243.5" y1="455.965" x2="243.5" y2="487.965" stroke="white" stroke-opacity="0.09"/>
<line x1="245" y1="454.465" x2="277" y2="454.465" stroke="white" stroke-opacity="0.09"/>
<line x1="210" y1="454.465" x2="242" y2="454.465" stroke="white" stroke-opacity="0.09"/>
<line x1="243.5" y1="490.965" x2="243.5" y2="522.965" stroke="white" stroke-opacity="0.09"/>
<line x1="243.5" y1="525.965" x2="243.5" y2="557.965" stroke="white" stroke-opacity="0.09"/>
<line x1="245" y1="524.465" x2="277" y2="524.465" stroke="white" stroke-opacity="0.09"/>
<line x1="210" y1="524.465" x2="242" y2="524.465" stroke="white" stroke-opacity="0.09"/>
<line x1="243.5" y1="560.965" x2="243.5" y2="592.965" stroke="#00D46B" stroke-opacity="0.23"/>
<line x1="243.5" y1="595.965" x2="243.5" y2="627.965" stroke="#00D46B" stroke-opacity="0.23"/>
<line x1="245" y1="594.465" x2="277" y2="594.465" stroke="#00D46B" stroke-opacity="0.23"/>
<line x1="210" y1="594.465" x2="242" y2="594.465" stroke="#00D46B" stroke-opacity="0.23"/>
<line x1="243.5" y1="630.965" x2="243.5" y2="662.965" stroke="white" stroke-opacity="0.09"/>
<line x1="243.5" y1="665.965" x2="243.5" y2="697.965" stroke="white" stroke-opacity="0.09"/>
<line x1="245" y1="664.465" x2="277" y2="664.465" stroke="white" stroke-opacity="0.09"/>
<line x1="210" y1="664.465" x2="242" y2="664.465" stroke="white" stroke-opacity="0.09"/>
<line x1="243.5" y1="700.965" x2="243.5" y2="732.965" stroke="white" stroke-opacity="0.09"/>
<line x1="313.5" y1="0.964844" x2="313.5" y2="32.9648" stroke="white" stroke-opacity="0.09"/>
<line x1="313.5" y1="35.9648" x2="313.5" y2="67.9648" stroke="white" stroke-opacity="0.09"/>
<line x1="315" y1="34.4648" x2="347" y2="34.4648" stroke="white" stroke-opacity="0.09"/>
<line x1="280" y1="34.4648" x2="312" y2="34.4648" stroke="white" stroke-opacity="0.09"/>
<line x1="313.5" y1="70.9648" x2="313.5" y2="102.965" stroke="white" stroke-opacity="0.09"/>
<line x1="313.5" y1="105.965" x2="313.5" y2="137.965" stroke="white" stroke-opacity="0.09"/>
<line x1="315" y1="104.465" x2="347" y2="104.465" stroke="white" stroke-opacity="0.09"/>
<line x1="280" y1="104.465" x2="312" y2="104.465" stroke="white" stroke-opacity="0.09"/>
<line x1="313.5" y1="140.965" x2="313.5" y2="172.965" stroke="white" stroke-opacity="0.09"/>
<line x1="313.5" y1="175.965" x2="313.5" y2="207.965" stroke="white" stroke-opacity="0.09"/>
<line x1="315" y1="174.465" x2="347" y2="174.465" stroke="white" stroke-opacity="0.09"/>
<line x1="280" y1="174.465" x2="312" y2="174.465" stroke="white" stroke-opacity="0.09"/>
<line x1="313.5" y1="210.965" x2="313.5" y2="242.965" stroke="white" stroke-opacity="0.09"/>
<line x1="313.5" y1="245.965" x2="313.5" y2="277.965" stroke="white" stroke-opacity="0.09"/>
<line x1="315" y1="244.465" x2="347" y2="244.465" stroke="white" stroke-opacity="0.09"/>
<line x1="280" y1="244.465" x2="312" y2="244.465" stroke="white" stroke-opacity="0.09"/>
<line x1="313.5" y1="280.965" x2="313.5" y2="312.965" stroke="white" stroke-opacity="0.09"/>
<line x1="313.5" y1="315.965" x2="313.5" y2="347.965" stroke="white" stroke-opacity="0.09"/>
<line x1="315" y1="314.465" x2="347" y2="314.465" stroke="white" stroke-opacity="0.09"/>
<line x1="280" y1="314.465" x2="312" y2="314.465" stroke="white" stroke-opacity="0.09"/>
<line x1="313.5" y1="350.965" x2="313.5" y2="382.965" stroke="white" stroke-opacity="0.09"/>
<line x1="313.5" y1="385.965" x2="313.5" y2="417.965" stroke="white" stroke-opacity="0.09"/>
<line x1="315" y1="384.465" x2="347" y2="384.465" stroke="white" stroke-opacity="0.09"/>
<line x1="280" y1="384.465" x2="312" y2="384.465" stroke="white" stroke-opacity="0.09"/>
<line x1="313.5" y1="420.965" x2="313.5" y2="452.965" stroke="white" stroke-opacity="0.09"/>
<line x1="313.5" y1="455.965" x2="313.5" y2="487.965" stroke="white" stroke-opacity="0.09"/>
<line x1="315" y1="454.465" x2="347" y2="454.465" stroke="white" stroke-opacity="0.09"/>
<line x1="280" y1="454.465" x2="312" y2="454.465" stroke="white" stroke-opacity="0.09"/>
<line x1="313.5" y1="490.965" x2="313.5" y2="522.965" stroke="#00D46B" stroke-opacity="0.23"/>
<line x1="313.5" y1="525.965" x2="313.5" y2="557.965" stroke="#00D46B" stroke-opacity="0.23"/>
<line x1="315" y1="524.465" x2="347" y2="524.465" stroke="#00D46B" stroke-opacity="0.23"/>
<line x1="280" y1="524.465" x2="312" y2="524.465" stroke="#00D46B" stroke-opacity="0.23"/>
<line x1="313.5" y1="560.965" x2="313.5" y2="592.965" stroke="white" stroke-opacity="0.09"/>
<line x1="313.5" y1="595.965" x2="313.5" y2="627.965" stroke="white" stroke-opacity="0.09"/>
<line x1="315" y1="594.465" x2="347" y2="594.465" stroke="white" stroke-opacity="0.09"/>
<line x1="280" y1="594.465" x2="312" y2="594.465" stroke="white" stroke-opacity="0.09"/>
<line x1="313.5" y1="630.965" x2="313.5" y2="662.965" stroke="white" stroke-opacity="0.09"/>
<line x1="313.5" y1="665.965" x2="313.5" y2="697.965" stroke="white" stroke-opacity="0.09"/>
<line x1="315" y1="664.465" x2="347" y2="664.465" stroke="white" stroke-opacity="0.09"/>
<line x1="280" y1="664.465" x2="312" y2="664.465" stroke="white" stroke-opacity="0.09"/>
<line x1="313.5" y1="700.965" x2="313.5" y2="732.965" stroke="white" stroke-opacity="0.09"/>
<line x1="383.5" y1="0.964844" x2="383.5" y2="32.9648" stroke="white" stroke-opacity="0.09"/>
<line x1="383.5" y1="35.9648" x2="383.5" y2="67.9648" stroke="white" stroke-opacity="0.09"/>
<line x1="385" y1="34.4648" x2="417" y2="34.4648" stroke="white" stroke-opacity="0.09"/>
<line x1="350" y1="34.4648" x2="382" y2="34.4648" stroke="white" stroke-opacity="0.09"/>
<line x1="383.5" y1="70.9648" x2="383.5" y2="102.965" stroke="white" stroke-opacity="0.09"/>
<line x1="383.5" y1="105.965" x2="383.5" y2="137.965" stroke="white" stroke-opacity="0.09"/>
<line x1="385" y1="104.465" x2="417" y2="104.465" stroke="white" stroke-opacity="0.09"/>
<line x1="350" y1="104.465" x2="382" y2="104.465" stroke="white" stroke-opacity="0.09"/>
<line x1="383.5" y1="140.965" x2="383.5" y2="172.965" stroke="white" stroke-opacity="0.09"/>
<line x1="383.5" y1="175.965" x2="383.5" y2="207.965" stroke="white" stroke-opacity="0.09"/>
<line x1="385" y1="174.465" x2="417" y2="174.465" stroke="white" stroke-opacity="0.09"/>
<line x1="350" y1="174.465" x2="382" y2="174.465" stroke="white" stroke-opacity="0.09"/>
<line x1="383.5" y1="210.965" x2="383.5" y2="242.965" stroke="white" stroke-opacity="0.09"/>
<line x1="383.5" y1="245.965" x2="383.5" y2="277.965" stroke="white" stroke-opacity="0.09"/>
<line x1="385" y1="244.465" x2="417" y2="244.465" stroke="white" stroke-opacity="0.09"/>
<line x1="350" y1="244.465" x2="382" y2="244.465" stroke="white" stroke-opacity="0.09"/>
<line x1="383.5" y1="280.965" x2="383.5" y2="312.965" stroke="white" stroke-opacity="0.09"/>
<line x1="383.5" y1="315.965" x2="383.5" y2="347.965" stroke="white" stroke-opacity="0.09"/>
<line x1="385" y1="314.465" x2="417" y2="314.465" stroke="white" stroke-opacity="0.09"/>
<line x1="350" y1="314.465" x2="382" y2="314.465" stroke="white" stroke-opacity="0.09"/>
<line x1="383.5" y1="350.965" x2="383.5" y2="382.965" stroke="white" stroke-opacity="0.09"/>
<line x1="383.5" y1="385.965" x2="383.5" y2="417.965" stroke="white" stroke-opacity="0.09"/>
<line x1="385" y1="384.465" x2="417" y2="384.465" stroke="white" stroke-opacity="0.09"/>
<line x1="350" y1="384.465" x2="382" y2="384.465" stroke="white" stroke-opacity="0.09"/>
<line x1="383.5" y1="420.965" x2="383.5" y2="452.965" stroke="#00D46B" stroke-opacity="0.23"/>
<line x1="383.5" y1="455.965" x2="383.5" y2="487.965" stroke="#00D46B" stroke-opacity="0.23"/>
<line x1="385" y1="454.465" x2="417" y2="454.465" stroke="#00D46B" stroke-opacity="0.23"/>
<line x1="350" y1="454.465" x2="382" y2="454.465" stroke="#00D46B" stroke-opacity="0.23"/>
<line x1="383.5" y1="490.965" x2="383.5" y2="522.965" stroke="white" stroke-opacity="0.09"/>
<line x1="383.5" y1="525.965" x2="383.5" y2="557.965" stroke="white" stroke-opacity="0.09"/>
<line x1="385" y1="524.465" x2="417" y2="524.465" stroke="white" stroke-opacity="0.09"/>
<line x1="350" y1="524.465" x2="382" y2="524.465" stroke="white" stroke-opacity="0.09"/>
<line x1="383.5" y1="560.965" x2="383.5" y2="592.965" stroke="white" stroke-opacity="0.09"/>
<line x1="383.5" y1="595.965" x2="383.5" y2="627.965" stroke="white" stroke-opacity="0.09"/>
<line x1="385" y1="594.465" x2="417" y2="594.465" stroke="white" stroke-opacity="0.09"/>
<line x1="350" y1="594.465" x2="382" y2="594.465" stroke="white" stroke-opacity="0.09"/>
<line x1="383.5" y1="630.965" x2="383.5" y2="662.965" stroke="white" stroke-opacity="0.09"/>
<line x1="383.5" y1="665.965" x2="383.5" y2="697.965" stroke="white" stroke-opacity="0.09"/>
<line x1="385" y1="664.465" x2="417" y2="664.465" stroke="white" stroke-opacity="0.09"/>
<line x1="350" y1="664.465" x2="382" y2="664.465" stroke="white" stroke-opacity="0.09"/>
<line x1="383.5" y1="700.965" x2="383.5" y2="732.965" stroke="white" stroke-opacity="0.09"/>
<line x1="453.5" y1="0.964844" x2="453.5" y2="32.9648" stroke="white" stroke-opacity="0.09"/>
<line x1="453.5" y1="35.9648" x2="453.5" y2="67.9648" stroke="white" stroke-opacity="0.09"/>
<line x1="455" y1="34.4648" x2="487" y2="34.4648" stroke="white" stroke-opacity="0.09"/>
<line x1="420" y1="34.4648" x2="452" y2="34.4648" stroke="white" stroke-opacity="0.09"/>
<line x1="523.5" y1="0.964844" x2="523.5" y2="32.9648" stroke="white" stroke-opacity="0.09"/>
<line x1="523.5" y1="35.9648" x2="523.5" y2="67.9648" stroke="white" stroke-opacity="0.09"/>
<line x1="525" y1="34.4648" x2="557" y2="34.4648" stroke="white" stroke-opacity="0.09"/>
<line x1="490" y1="34.4648" x2="522" y2="34.4648" stroke="white" stroke-opacity="0.09"/>
<line x1="593.5" y1="0.964844" x2="593.5" y2="32.9648" stroke="white" stroke-opacity="0.09"/>
<line x1="593.5" y1="35.9648" x2="593.5" y2="67.9648" stroke="white" stroke-opacity="0.09"/>
<line x1="595" y1="34.4648" x2="627" y2="34.4648" stroke="white" stroke-opacity="0.09"/>
<line x1="560" y1="34.4648" x2="592" y2="34.4648" stroke="white" stroke-opacity="0.09"/>
<line x1="663.5" y1="0.964844" x2="663.5" y2="32.9648" stroke="white" stroke-opacity="0.09"/>
<line x1="663.5" y1="35.9648" x2="663.5" y2="67.9648" stroke="white" stroke-opacity="0.09"/>
<line x1="665" y1="34.4648" x2="697" y2="34.4648" stroke="white" stroke-opacity="0.09"/>
<line x1="630" y1="34.4648" x2="662" y2="34.4648" stroke="white" stroke-opacity="0.09"/>
<line x1="733.5" y1="0.964844" x2="733.5" y2="32.9648" stroke="white" stroke-opacity="0.09"/>
<line x1="733.5" y1="35.9648" x2="733.5" y2="67.9648" stroke="white" stroke-opacity="0.09"/>
<line x1="735" y1="34.4648" x2="767" y2="34.4648" stroke="white" stroke-opacity="0.09"/>
<line x1="700" y1="34.4648" x2="732" y2="34.4648" stroke="white" stroke-opacity="0.09"/>
<line x1="803.5" y1="0.964844" x2="803.5" y2="32.9648" stroke="#00D46B" stroke-opacity="0.23"/>
<line x1="803.5" y1="35.9648" x2="803.5" y2="67.9648" stroke="#00D46B" stroke-opacity="0.23"/>
<line x1="805" y1="34.4648" x2="837" y2="34.4648" stroke="#00D46B" stroke-opacity="0.23"/>
<line x1="770" y1="34.4648" x2="802" y2="34.4648" stroke="#00D46B" stroke-opacity="0.23"/>
<line x1="453.5" y1="70.9648" x2="453.5" y2="102.965" stroke="white" stroke-opacity="0.09"/>
<line x1="453.5" y1="105.965" x2="453.5" y2="137.965" stroke="white" stroke-opacity="0.09"/>
<line x1="455" y1="104.465" x2="487" y2="104.465" stroke="white" stroke-opacity="0.09"/>
<line x1="420" y1="104.465" x2="452" y2="104.465" stroke="white" stroke-opacity="0.09"/>
<line x1="523.5" y1="70.9648" x2="523.5" y2="102.965" stroke="white" stroke-opacity="0.09"/>
<line x1="523.5" y1="105.965" x2="523.5" y2="137.965" stroke="white" stroke-opacity="0.09"/>
<line x1="525" y1="104.465" x2="557" y2="104.465" stroke="white" stroke-opacity="0.09"/>
<line x1="490" y1="104.465" x2="522" y2="104.465" stroke="white" stroke-opacity="0.09"/>
<line x1="593.5" y1="70.9648" x2="593.5" y2="102.965" stroke="white" stroke-opacity="0.09"/>
<line x1="593.5" y1="105.965" x2="593.5" y2="137.965" stroke="white" stroke-opacity="0.09"/>
<line x1="595" y1="104.465" x2="627" y2="104.465" stroke="white" stroke-opacity="0.09"/>
<line x1="560" y1="104.465" x2="592" y2="104.465" stroke="white" stroke-opacity="0.09"/>
<line x1="663.5" y1="70.9648" x2="663.5" y2="102.965" stroke="white" stroke-opacity="0.09"/>
<line x1="663.5" y1="105.965" x2="663.5" y2="137.965" stroke="white" stroke-opacity="0.09"/>
<line x1="665" y1="104.465" x2="697" y2="104.465" stroke="white" stroke-opacity="0.09"/>
<line x1="630" y1="104.465" x2="662" y2="104.465" stroke="white" stroke-opacity="0.09"/>
<line x1="733.5" y1="70.9648" x2="733.5" y2="102.965" stroke="#00D46B" stroke-opacity="0.23"/>
<line x1="733.5" y1="105.965" x2="733.5" y2="137.965" stroke="#00D46B" stroke-opacity="0.23"/>
<line x1="735" y1="104.465" x2="767" y2="104.465" stroke="#00D46B" stroke-opacity="0.23"/>
<line x1="700" y1="104.465" x2="732" y2="104.465" stroke="#00D46B" stroke-opacity="0.23"/>
<line x1="803.5" y1="70.9648" x2="803.5" y2="102.965" stroke="white" stroke-opacity="0.09"/>
<line x1="803.5" y1="105.965" x2="803.5" y2="137.965" stroke="white" stroke-opacity="0.09"/>
<line x1="805" y1="104.465" x2="837" y2="104.465" stroke="white" stroke-opacity="0.09"/>
<line x1="770" y1="104.465" x2="802" y2="104.465" stroke="white" stroke-opacity="0.09"/>
<line x1="453.5" y1="140.965" x2="453.5" y2="172.965" stroke="white" stroke-opacity="0.09"/>
<line x1="453.5" y1="175.965" x2="453.5" y2="207.965" stroke="white" stroke-opacity="0.09"/>
<line x1="455" y1="174.465" x2="487" y2="174.465" stroke="white" stroke-opacity="0.09"/>
<line x1="420" y1="174.465" x2="452" y2="174.465" stroke="white" stroke-opacity="0.09"/>
<line x1="523.5" y1="140.965" x2="523.5" y2="172.965" stroke="white" stroke-opacity="0.09"/>
<line x1="523.5" y1="175.965" x2="523.5" y2="207.965" stroke="white" stroke-opacity="0.09"/>
<line x1="525" y1="174.465" x2="557" y2="174.465" stroke="white" stroke-opacity="0.09"/>
<line x1="490" y1="174.465" x2="522" y2="174.465" stroke="white" stroke-opacity="0.09"/>
<line x1="593.5" y1="140.965" x2="593.5" y2="172.965" stroke="white" stroke-opacity="0.09"/>
<line x1="593.5" y1="175.965" x2="593.5" y2="207.965" stroke="white" stroke-opacity="0.09"/>
<line x1="595" y1="174.465" x2="627" y2="174.465" stroke="white" stroke-opacity="0.09"/>
<line x1="560" y1="174.465" x2="592" y2="174.465" stroke="white" stroke-opacity="0.09"/>
<line x1="663.5" y1="140.965" x2="663.5" y2="172.965" stroke="#00D46B" stroke-opacity="0.23"/>
<line x1="663.5" y1="175.965" x2="663.5" y2="207.965" stroke="#00D46B" stroke-opacity="0.23"/>
<line x1="665" y1="174.465" x2="697" y2="174.465" stroke="#00D46B" stroke-opacity="0.23"/>
<line x1="630" y1="174.465" x2="662" y2="174.465" stroke="#00D46B" stroke-opacity="0.23"/>
<line x1="733.5" y1="140.965" x2="733.5" y2="172.965" stroke="white" stroke-opacity="0.09"/>
<line x1="733.5" y1="175.965" x2="733.5" y2="207.965" stroke="white" stroke-opacity="0.09"/>
<line x1="735" y1="174.465" x2="767" y2="174.465" stroke="white" stroke-opacity="0.09"/>
<line x1="700" y1="174.465" x2="732" y2="174.465" stroke="white" stroke-opacity="0.09"/>
<line x1="803.5" y1="140.965" x2="803.5" y2="172.965" stroke="white" stroke-opacity="0.09"/>
<line x1="803.5" y1="175.965" x2="803.5" y2="207.965" stroke="white" stroke-opacity="0.09"/>
<line x1="805" y1="174.465" x2="837" y2="174.465" stroke="white" stroke-opacity="0.09"/>
<line x1="770" y1="174.465" x2="802" y2="174.465" stroke="white" stroke-opacity="0.09"/>
<line x1="453.5" y1="210.965" x2="453.5" y2="242.965" stroke="white" stroke-opacity="0.09"/>
<line x1="453.5" y1="245.965" x2="453.5" y2="277.965" stroke="white" stroke-opacity="0.09"/>
<line x1="455" y1="244.465" x2="487" y2="244.465" stroke="white" stroke-opacity="0.09"/>
<line x1="420" y1="244.465" x2="452" y2="244.465" stroke="white" stroke-opacity="0.09"/>
<line x1="523.5" y1="210.965" x2="523.5" y2="242.965" stroke="white" stroke-opacity="0.09"/>
<line x1="523.5" y1="245.965" x2="523.5" y2="277.965" stroke="white" stroke-opacity="0.09"/>
<line x1="525" y1="244.465" x2="557" y2="244.465" stroke="white" stroke-opacity="0.09"/>
<line x1="490" y1="244.465" x2="522" y2="244.465" stroke="white" stroke-opacity="0.09"/>
<line x1="593.5" y1="210.965" x2="593.5" y2="242.965" stroke="#00D46B" stroke-opacity="0.23"/>
<line x1="593.5" y1="245.965" x2="593.5" y2="277.965" stroke="#00D46B" stroke-opacity="0.23"/>
<line x1="595" y1="244.465" x2="627" y2="244.465" stroke="#00D46B" stroke-opacity="0.23"/>
<line x1="560" y1="244.465" x2="592" y2="244.465" stroke="#00D46B" stroke-opacity="0.23"/>
<line x1="663.5" y1="210.965" x2="663.5" y2="242.965" stroke="white" stroke-opacity="0.09"/>
<line x1="663.5" y1="245.965" x2="663.5" y2="277.965" stroke="white" stroke-opacity="0.09"/>
<line x1="665" y1="244.465" x2="697" y2="244.465" stroke="white" stroke-opacity="0.09"/>
<line x1="630" y1="244.465" x2="662" y2="244.465" stroke="white" stroke-opacity="0.09"/>
<line x1="733.5" y1="210.965" x2="733.5" y2="242.965" stroke="white" stroke-opacity="0.09"/>
<line x1="733.5" y1="245.965" x2="733.5" y2="277.965" stroke="white" stroke-opacity="0.09"/>
<line x1="735" y1="244.465" x2="767" y2="244.465" stroke="white" stroke-opacity="0.09"/>
<line x1="700" y1="244.465" x2="732" y2="244.465" stroke="white" stroke-opacity="0.09"/>
<line x1="803.5" y1="210.965" x2="803.5" y2="242.965" stroke="white" stroke-opacity="0.09"/>
<line x1="803.5" y1="245.965" x2="803.5" y2="277.965" stroke="white" stroke-opacity="0.09"/>
<line x1="805" y1="244.465" x2="837" y2="244.465" stroke="white" stroke-opacity="0.09"/>
<line x1="770" y1="244.465" x2="802" y2="244.465" stroke="white" stroke-opacity="0.09"/>
<line x1="453.5" y1="280.965" x2="453.5" y2="312.965" stroke="white" stroke-opacity="0.09"/>
<line x1="453.5" y1="315.965" x2="453.5" y2="347.965" stroke="white" stroke-opacity="0.09"/>
<line x1="455" y1="314.465" x2="487" y2="314.465" stroke="white" stroke-opacity="0.09"/>
<line x1="420" y1="314.465" x2="452" y2="314.465" stroke="white" stroke-opacity="0.09"/>
<line x1="523.5" y1="280.965" x2="523.5" y2="312.965" stroke="#00D46B" stroke-opacity="0.23"/>
<line x1="523.5" y1="315.965" x2="523.5" y2="347.965" stroke="#00D46B" stroke-opacity="0.23"/>
<line x1="525" y1="314.465" x2="557" y2="314.465" stroke="#00D46B" stroke-opacity="0.23"/>
<line x1="490" y1="314.465" x2="522" y2="314.465" stroke="#00D46B" stroke-opacity="0.23"/>
<line x1="593.5" y1="280.965" x2="593.5" y2="312.965" stroke="white" stroke-opacity="0.09"/>
<line x1="593.5" y1="315.965" x2="593.5" y2="347.965" stroke="white" stroke-opacity="0.09"/>
<line x1="595" y1="314.465" x2="627" y2="314.465" stroke="white" stroke-opacity="0.09"/>
<line x1="560" y1="314.465" x2="592" y2="314.465" stroke="white" stroke-opacity="0.09"/>
<line x1="663.5" y1="280.965" x2="663.5" y2="312.965" stroke="white" stroke-opacity="0.09"/>
<line x1="663.5" y1="315.965" x2="663.5" y2="347.965" stroke="white" stroke-opacity="0.09"/>
<line x1="665" y1="314.465" x2="697" y2="314.465" stroke="white" stroke-opacity="0.09"/>
<line x1="630" y1="314.465" x2="662" y2="314.465" stroke="white" stroke-opacity="0.09"/>
<line x1="733.5" y1="280.965" x2="733.5" y2="312.965" stroke="white" stroke-opacity="0.09"/>
<line x1="733.5" y1="315.965" x2="733.5" y2="347.965" stroke="white" stroke-opacity="0.09"/>
<line x1="735" y1="314.465" x2="767" y2="314.465" stroke="white" stroke-opacity="0.09"/>
<line x1="700" y1="314.465" x2="732" y2="314.465" stroke="white" stroke-opacity="0.09"/>
<line x1="803.5" y1="280.965" x2="803.5" y2="312.965" stroke="white" stroke-opacity="0.09"/>
<line x1="803.5" y1="315.965" x2="803.5" y2="347.965" stroke="white" stroke-opacity="0.09"/>
<line x1="805" y1="314.465" x2="837" y2="314.465" stroke="white" stroke-opacity="0.09"/>
<line x1="770" y1="314.465" x2="802" y2="314.465" stroke="white" stroke-opacity="0.09"/>
<line x1="453.5" y1="350.965" x2="453.5" y2="382.965" stroke="#00D46B" stroke-opacity="0.23"/>
<line x1="453.5" y1="385.965" x2="453.5" y2="417.965" stroke="#00D46B" stroke-opacity="0.23"/>
<line x1="455" y1="384.465" x2="487" y2="384.465" stroke="#00D46B" stroke-opacity="0.23"/>
<line x1="420" y1="384.465" x2="452" y2="384.465" stroke="#00D46B" stroke-opacity="0.23"/>
<line x1="453.5" y1="420.965" x2="453.5" y2="452.965" stroke="white" stroke-opacity="0.09"/>
<line x1="453.5" y1="455.965" x2="453.5" y2="487.965" stroke="white" stroke-opacity="0.09"/>
<line x1="455" y1="454.465" x2="487" y2="454.465" stroke="white" stroke-opacity="0.09"/>
<line x1="420" y1="454.465" x2="452" y2="454.465" stroke="white" stroke-opacity="0.09"/>
<line x1="453.5" y1="490.965" x2="453.5" y2="522.965" stroke="white" stroke-opacity="0.09"/>
<line x1="453.5" y1="525.965" x2="453.5" y2="557.965" stroke="white" stroke-opacity="0.09"/>
<line x1="455" y1="524.465" x2="487" y2="524.465" stroke="white" stroke-opacity="0.09"/>
<line x1="420" y1="524.465" x2="452" y2="524.465" stroke="white" stroke-opacity="0.09"/>
<line x1="453.5" y1="560.965" x2="453.5" y2="592.965" stroke="white" stroke-opacity="0.09"/>
<line x1="453.5" y1="595.965" x2="453.5" y2="627.965" stroke="white" stroke-opacity="0.09"/>
<line x1="455" y1="594.465" x2="487" y2="594.465" stroke="white" stroke-opacity="0.09"/>
<line x1="420" y1="594.465" x2="452" y2="594.465" stroke="white" stroke-opacity="0.09"/>
<line x1="453.5" y1="630.965" x2="453.5" y2="662.965" stroke="white" stroke-opacity="0.09"/>
<line x1="453.5" y1="665.965" x2="453.5" y2="697.965" stroke="white" stroke-opacity="0.09"/>
<line x1="455" y1="664.465" x2="487" y2="664.465" stroke="white" stroke-opacity="0.09"/>
<line x1="420" y1="664.465" x2="452" y2="664.465" stroke="white" stroke-opacity="0.09"/>
<line x1="453.5" y1="700.965" x2="453.5" y2="732.965" stroke="white" stroke-opacity="0.09"/>
<line x1="523.5" y1="350.965" x2="523.5" y2="382.965" stroke="white" stroke-opacity="0.09"/>
<line x1="523.5" y1="385.965" x2="523.5" y2="417.965" stroke="white" stroke-opacity="0.09"/>
<line x1="525" y1="384.465" x2="557" y2="384.465" stroke="white" stroke-opacity="0.09"/>
<line x1="490" y1="384.465" x2="522" y2="384.465" stroke="white" stroke-opacity="0.09"/>
<line x1="593.5" y1="350.965" x2="593.5" y2="382.965" stroke="white" stroke-opacity="0.09"/>
<line x1="593.5" y1="385.965" x2="593.5" y2="417.965" stroke="white" stroke-opacity="0.09"/>
<line x1="595" y1="384.465" x2="627" y2="384.465" stroke="white" stroke-opacity="0.09"/>
<line x1="560" y1="384.465" x2="592" y2="384.465" stroke="white" stroke-opacity="0.09"/>
<line x1="663.5" y1="350.965" x2="663.5" y2="382.965" stroke="white" stroke-opacity="0.09"/>
<line x1="663.5" y1="385.965" x2="663.5" y2="417.965" stroke="white" stroke-opacity="0.09"/>
<line x1="665" y1="384.465" x2="697" y2="384.465" stroke="white" stroke-opacity="0.09"/>
<line x1="630" y1="384.465" x2="662" y2="384.465" stroke="white" stroke-opacity="0.09"/>
<line x1="733.5" y1="350.965" x2="733.5" y2="382.965" stroke="white" stroke-opacity="0.09"/>
<line x1="733.5" y1="385.965" x2="733.5" y2="417.965" stroke="white" stroke-opacity="0.09"/>
<line x1="735" y1="384.465" x2="767" y2="384.465" stroke="white" stroke-opacity="0.09"/>
<line x1="700" y1="384.465" x2="732" y2="384.465" stroke="white" stroke-opacity="0.09"/>
<line x1="803.5" y1="350.965" x2="803.5" y2="382.965" stroke="white" stroke-opacity="0.09"/>
<line x1="803.5" y1="385.965" x2="803.5" y2="417.965" stroke="white" stroke-opacity="0.09"/>
<line x1="805" y1="384.465" x2="837" y2="384.465" stroke="white" stroke-opacity="0.09"/>
<line x1="770" y1="384.465" x2="802" y2="384.465" stroke="white" stroke-opacity="0.09"/>
<line x1="523.5" y1="420.965" x2="523.5" y2="452.965" stroke="white" stroke-opacity="0.09"/>
<line x1="523.5" y1="455.965" x2="523.5" y2="487.965" stroke="white" stroke-opacity="0.09"/>
<line x1="525" y1="454.465" x2="557" y2="454.465" stroke="white" stroke-opacity="0.09"/>
<line x1="490" y1="454.465" x2="522" y2="454.465" stroke="white" stroke-opacity="0.09"/>
<line x1="593.5" y1="420.965" x2="593.5" y2="452.965" stroke="white" stroke-opacity="0.09"/>
<line x1="593.5" y1="455.965" x2="593.5" y2="487.965" stroke="white" stroke-opacity="0.09"/>
<line x1="595" y1="454.465" x2="627" y2="454.465" stroke="white" stroke-opacity="0.09"/>
<line x1="560" y1="454.465" x2="592" y2="454.465" stroke="white" stroke-opacity="0.09"/>
<line x1="663.5" y1="420.965" x2="663.5" y2="452.965" stroke="white" stroke-opacity="0.09"/>
<line x1="663.5" y1="455.965" x2="663.5" y2="487.965" stroke="white" stroke-opacity="0.09"/>
<line x1="665" y1="454.465" x2="697" y2="454.465" stroke="white" stroke-opacity="0.09"/>
<line x1="630" y1="454.465" x2="662" y2="454.465" stroke="white" stroke-opacity="0.09"/>
<line x1="733.5" y1="420.965" x2="733.5" y2="452.965" stroke="white" stroke-opacity="0.09"/>
<line x1="733.5" y1="455.965" x2="733.5" y2="487.965" stroke="white" stroke-opacity="0.09"/>
<line x1="735" y1="454.465" x2="767" y2="454.465" stroke="white" stroke-opacity="0.09"/>
<line x1="700" y1="454.465" x2="732" y2="454.465" stroke="white" stroke-opacity="0.09"/>
<line x1="803.5" y1="420.965" x2="803.5" y2="452.965" stroke="white" stroke-opacity="0.09"/>
<line x1="803.5" y1="455.965" x2="803.5" y2="487.965" stroke="white" stroke-opacity="0.09"/>
<line x1="805" y1="454.465" x2="837" y2="454.465" stroke="white" stroke-opacity="0.09"/>
<line x1="770" y1="454.465" x2="802" y2="454.465" stroke="white" stroke-opacity="0.09"/>
<line x1="523.5" y1="490.965" x2="523.5" y2="522.965" stroke="white" stroke-opacity="0.09"/>
<line x1="523.5" y1="525.965" x2="523.5" y2="557.965" stroke="white" stroke-opacity="0.09"/>
<line x1="525" y1="524.465" x2="557" y2="524.465" stroke="white" stroke-opacity="0.09"/>
<line x1="490" y1="524.465" x2="522" y2="524.465" stroke="white" stroke-opacity="0.09"/>
<line x1="593.5" y1="490.965" x2="593.5" y2="522.965" stroke="white" stroke-opacity="0.09"/>
<line x1="593.5" y1="525.965" x2="593.5" y2="557.965" stroke="white" stroke-opacity="0.09"/>
<line x1="595" y1="524.465" x2="627" y2="524.465" stroke="white" stroke-opacity="0.09"/>
<line x1="560" y1="524.465" x2="592" y2="524.465" stroke="white" stroke-opacity="0.09"/>
<line x1="663.5" y1="490.965" x2="663.5" y2="522.965" stroke="white" stroke-opacity="0.09"/>
<line x1="663.5" y1="525.965" x2="663.5" y2="557.965" stroke="white" stroke-opacity="0.09"/>
<line x1="665" y1="524.465" x2="697" y2="524.465" stroke="white" stroke-opacity="0.09"/>
<line x1="630" y1="524.465" x2="662" y2="524.465" stroke="white" stroke-opacity="0.09"/>
<line x1="733.5" y1="490.965" x2="733.5" y2="522.965" stroke="white" stroke-opacity="0.09"/>
<line x1="733.5" y1="525.965" x2="733.5" y2="557.965" stroke="white" stroke-opacity="0.09"/>
<line x1="735" y1="524.465" x2="767" y2="524.465" stroke="white" stroke-opacity="0.09"/>
<line x1="700" y1="524.465" x2="732" y2="524.465" stroke="white" stroke-opacity="0.09"/>
<line x1="803.5" y1="490.965" x2="803.5" y2="522.965" stroke="white" stroke-opacity="0.09"/>
<line x1="803.5" y1="525.965" x2="803.5" y2="557.965" stroke="white" stroke-opacity="0.09"/>
<line x1="805" y1="524.465" x2="837" y2="524.465" stroke="white" stroke-opacity="0.09"/>
<line x1="770" y1="524.465" x2="802" y2="524.465" stroke="white" stroke-opacity="0.09"/>
<line x1="523.5" y1="560.965" x2="523.5" y2="592.965" stroke="white" stroke-opacity="0.09"/>
<line x1="523.5" y1="595.965" x2="523.5" y2="627.965" stroke="white" stroke-opacity="0.09"/>
<line x1="525" y1="594.465" x2="557" y2="594.465" stroke="white" stroke-opacity="0.09"/>
<line x1="490" y1="594.465" x2="522" y2="594.465" stroke="white" stroke-opacity="0.09"/>
<line x1="593.5" y1="560.965" x2="593.5" y2="592.965" stroke="white" stroke-opacity="0.09"/>
<line x1="593.5" y1="595.965" x2="593.5" y2="627.965" stroke="white" stroke-opacity="0.09"/>
<line x1="595" y1="594.465" x2="627" y2="594.465" stroke="white" stroke-opacity="0.09"/>
<line x1="560" y1="594.465" x2="592" y2="594.465" stroke="white" stroke-opacity="0.09"/>
<line x1="663.5" y1="560.965" x2="663.5" y2="592.965" stroke="white" stroke-opacity="0.09"/>
<line x1="663.5" y1="595.965" x2="663.5" y2="627.965" stroke="white" stroke-opacity="0.09"/>
<line x1="665" y1="594.465" x2="697" y2="594.465" stroke="white" stroke-opacity="0.09"/>
<line x1="630" y1="594.465" x2="662" y2="594.465" stroke="white" stroke-opacity="0.09"/>
<line x1="733.5" y1="560.965" x2="733.5" y2="592.965" stroke="white" stroke-opacity="0.09"/>
<line x1="733.5" y1="595.965" x2="733.5" y2="627.965" stroke="white" stroke-opacity="0.09"/>
<line x1="735" y1="594.465" x2="767" y2="594.465" stroke="white" stroke-opacity="0.09"/>
<line x1="700" y1="594.465" x2="732" y2="594.465" stroke="white" stroke-opacity="0.09"/>
<line x1="803.5" y1="560.965" x2="803.5" y2="592.965" stroke="white" stroke-opacity="0.09"/>
<line x1="803.5" y1="595.965" x2="803.5" y2="627.965" stroke="white" stroke-opacity="0.09"/>
<line x1="805" y1="594.465" x2="837" y2="594.465" stroke="white" stroke-opacity="0.09"/>
<line x1="770" y1="594.465" x2="802" y2="594.465" stroke="white" stroke-opacity="0.09"/>
<line x1="523.5" y1="630.965" x2="523.5" y2="662.965" stroke="white" stroke-opacity="0.09"/>
<line x1="523.5" y1="665.965" x2="523.5" y2="697.965" stroke="white" stroke-opacity="0.09"/>
<line x1="525" y1="664.465" x2="557" y2="664.465" stroke="white" stroke-opacity="0.09"/>
<line x1="490" y1="664.465" x2="522" y2="664.465" stroke="white" stroke-opacity="0.09"/>
<line x1="593.5" y1="630.965" x2="593.5" y2="662.965" stroke="white" stroke-opacity="0.09"/>
<line x1="593.5" y1="665.965" x2="593.5" y2="697.965" stroke="white" stroke-opacity="0.09"/>
<line x1="595" y1="664.465" x2="627" y2="664.465" stroke="white" stroke-opacity="0.09"/>
<line x1="560" y1="664.465" x2="592" y2="664.465" stroke="white" stroke-opacity="0.09"/>
<line x1="663.5" y1="630.965" x2="663.5" y2="662.965" stroke="white" stroke-opacity="0.09"/>
<line x1="663.5" y1="665.965" x2="663.5" y2="697.965" stroke="white" stroke-opacity="0.09"/>
<line x1="665" y1="664.465" x2="697" y2="664.465" stroke="white" stroke-opacity="0.09"/>
<line x1="630" y1="664.465" x2="662" y2="664.465" stroke="white" stroke-opacity="0.09"/>
<line x1="733.5" y1="630.965" x2="733.5" y2="662.965" stroke="white" stroke-opacity="0.09"/>
<line x1="733.5" y1="665.965" x2="733.5" y2="697.965" stroke="white" stroke-opacity="0.09"/>
<line x1="735" y1="664.465" x2="767" y2="664.465" stroke="white" stroke-opacity="0.09"/>
<line x1="700" y1="664.465" x2="732" y2="664.465" stroke="white" stroke-opacity="0.09"/>
<line x1="803.5" y1="630.965" x2="803.5" y2="662.965" stroke="white" stroke-opacity="0.09"/>
<line x1="803.5" y1="665.965" x2="803.5" y2="697.965" stroke="white" stroke-opacity="0.09"/>
<line x1="805" y1="664.465" x2="837" y2="664.465" stroke="white" stroke-opacity="0.09"/>
<line x1="770" y1="664.465" x2="802" y2="664.465" stroke="white" stroke-opacity="0.09"/>
<line x1="523.5" y1="700.965" x2="523.5" y2="732.965" stroke="white" stroke-opacity="0.09"/>
<line x1="593.5" y1="700.965" x2="593.5" y2="732.965" stroke="white" stroke-opacity="0.09"/>
<line x1="663.5" y1="700.965" x2="663.5" y2="732.965" stroke="white" stroke-opacity="0.09"/>
<line x1="733.5" y1="700.965" x2="733.5" y2="732.965" stroke="white" stroke-opacity="0.09"/>
<line x1="803.5" y1="700.965" x2="803.5" y2="732.965" stroke="white" stroke-opacity="0.09"/>
</svg>
