<?xml version="1.0" encoding="UTF-8"?>
<svg id="Layer_1" data-name="Layer 1" xmlns="http://www.w3.org/2000/svg" viewBox="0 0 1561.31 1200.25">
  <defs>
    <style>
      .cls-1 {
        fill: #fff;
      }
    </style>
  </defs>
  <path class="cls-1" d="M946.27,428.74v-125.76c0-15.49-12.56-28.05-28.05-28.05H357.45c-15.5,0-28.06,12.56-28.06,28.06v560.76c0,15.5,12.56,28.06,28.06,28.06h560.76c15.49,0,28.05-12.56,28.05-28.05v-125.76c0-4.99-4.05-9.04-9.04-9.04h0c-4.99,0-9.04,4.05-9.04,9.04v125.76c0,5.51-4.46,9.97-9.97,9.97H357.45c-5.51,0-9.98-4.47-9.98-9.98V302.99c0-5.51,4.47-9.98,9.98-9.98h560.76c5.51,0,9.97,4.46,9.97,9.97v125.76c0,4.99,4.05,9.04,9.04,9.04h0c4.99,0,9.04-4.05,9.04-9.04h.01Z"/>
  <path class="cls-1" d="M675.67,531.39c0,4.6-.4,8.6-1.2,12,.8,3.2,1.2,7.2,1.2,12s-.4,8.6-1.2,12c.8,3.2,1.2,7.2,1.2,12s-.4,8.6-1.2,12c.8,3.2,1.2,7.2,1.2,12s-.4,8.6-1.2,12c.8,3.2,1.2,7.2,1.2,12s-.4,8.6-1.2,12c.8,3.2,1.2,7.2,1.2,12s-.4,8.6-1.2,12h-24c-.8-3.4-1.2-7.4-1.2-12s.4-8.8,1.2-12c-.8-3.4-1.2-7.4-1.2-12s.4-8.8,1.2-12c-.8-3.4-1.2-7.4-1.2-12s.4-8.8,1.2-12c-.8-3.4-1.2-7.4-1.2-12s.4-8.8,1.2-12c-.8-3.4-1.2-7.4-1.2-12s.4-8.8,1.2-12h-9c.8,3.2,1.2,7.2,1.2,12s-.4,8.6-1.2,12c.8,3.2,1.2,7.2,1.2,12s-.4,8.6-1.2,12h-6c.8,3.2,1.2,7.2,1.2,12s-.4,8.6-1.2,12c.8,3.2,1.2,7.2,1.2,12s-.4,8.6-1.2,12h-18c-.8-3.4-1.2-7.4-1.2-12s.4-8.8,1.2-12c-.8-3.4-1.2-7.4-1.2-12s.4-8.8,1.2-12h-6c-.8-3.4-1.2-7.4-1.2-12s.4-8.8,1.2-12c-.8-3.4-1.2-7.4-1.2-12s.4-8.8,1.2-12h-9c.8,3.2,1.2,7.2,1.2,12s-.4,8.6-1.2,12c.8,3.2,1.2,7.2,1.2,12s-.4,8.6-1.2,12c.8,3.2,1.2,7.2,1.2,12s-.4,8.6-1.2,12c.8,3.2,1.2,7.2,1.2,12s-.4,8.6-1.2,12c.8,3.2,1.2,7.2,1.2,12s-.4,8.6-1.2,12h-24c-.8-3.4-1.2-7.4-1.2-12s.4-8.8,1.2-12c-.8-3.4-1.2-7.4-1.2-12s.4-8.8,1.2-12c-.8-3.4-1.2-7.4-1.2-12s.4-8.8,1.2-12c-.8-3.4-1.2-7.4-1.2-12s.4-8.8,1.2-12c-.8-3.4-1.2-7.4-1.2-12s.4-8.8,1.2-12c-.8-3.4-1.2-7.4-1.2-12s.4-8.8,1.2-12c-.8-3.4-1.2-7.4-1.2-12s.4-8.8,1.2-12h30c.8,3.2,1.2,7.2,1.2,12s-.4,8.6-1.2,12h9c.8,3.2,1.2,7.2,1.2,12s-.4,8.6-1.2,12h4.5c.8,3.2,1.2,7.2,1.2,12s-.4,8.6-1.2,12h9c-.8-3.4-1.2-7.4-1.2-12s.4-8.8,1.2-12h4.5c-.8-3.4-1.2-7.4-1.2-12s.4-8.8,1.2-12h9c-.8-3.4-1.2-7.4-1.2-12s.4-8.8,1.2-12h30c.8,3.2,1.2,7.2,1.2,12s-.4,8.6-1.2,12c.8,3.2,1.2,7.2,1.2,12Z"/>
  <path class="cls-1" d="M783.67,651.39c0,4.6-.4,8.6-1.2,12h-72c-.8-3.4-1.2-7.4-1.2-12s.4-8.8,1.2-12h24c-.8-3.4-1.2-7.4-1.2-12s.4-8.8,1.2-12c-.8-3.4-1.2-7.4-1.2-12s.4-8.8,1.2-12c-.8-3.4-1.2-7.4-1.2-12s.4-8.8,1.2-12h-18c-.8-3.4-1.2-7.4-1.2-12s.4-8.8,1.2-12h42c.8,3.2,1.2,7.2,1.2,12s-.4,8.6-1.2,12c.8,3.2,1.2,7.2,1.2,12s-.4,8.6-1.2,12c.8,3.2,1.2,7.2,1.2,12s-.4,8.6-1.2,12c.8,3.2,1.2,7.2,1.2,12s-.4,8.6-1.2,12h24c.8,3.2,1.2,7.2,1.2,12ZM734.47,519.39c-.8-3.4-1.2-7.4-1.2-12s.4-8.8,1.2-12h24c.8,3.2,1.2,7.2,1.2,12s-.4,8.6-1.2,12h-24Z"/>
  <path class="cls-1" d="M839.47,567.39h12c.8,3.2,1.2,7.2,1.2,12s-.4,8.6-1.2,12h-9c.8,3.2,1.2,7.2,1.2,12s-.4,8.6-1.2,12c.8,3.2,1.2,7.2,1.2,12s-.4,8.6-1.2,12c.8,3.2,1.2,7.2,1.2,12s-.4,8.6-1.2,12h-24c-.8-3.4-1.2-7.4-1.2-12s.4-8.8,1.2-12c-.8-3.4-1.2-7.4-1.2-12s.4-8.8,1.2-12c-.8-3.4-1.2-7.4-1.2-12s.4-8.8,1.2-12c-.8-3.4-1.2-7.4-1.2-12s.4-8.8,1.2-12c-.8-3.4-1.2-7.4-1.2-12s.4-8.8,1.2-12h21c.8,3.2,1.2,7.2,1.2,12s-.4,8.6-1.2,12ZM915.67,603.39c0,4.6-.4,8.6-1.2,12,.8,3.2,1.2,7.2,1.2,12s-.4,8.6-1.2,12c.8,3.2,1.2,7.2,1.2,12s-.4,8.6-1.2,12h-24c-.8-3.4-1.2-7.4-1.2-12s.4-8.8,1.2-12c-.8-3.4-1.2-7.4-1.2-12s.4-8.8,1.2-12c-.8-3.4-1.2-7.4-1.2-12s.4-8.8,1.2-12c-.8-3.4-1.2-7.4-1.2-12s.4-8.8,1.2-12h-39c-.8-3.4-1.2-7.4-1.2-12s.4-8.8,1.2-12h48c.8,3.2,1.2,7.2,1.2,12s-.4,8.6-1.2,12h15c.8,3.2,1.2,7.2,1.2,12s-.4,8.6-1.2,12c.8,3.2,1.2,7.2,1.2,12Z"/>
  <path class="cls-1" d="M1028.46,639.39h-12c.8,3.2,1.2,7.2,1.2,12s-.4,8.6-1.2,12h-66c-.8-3.4-1.2-7.4-1.2-12s.4-8.8,1.2-12h54c-.8-3.4-1.2-7.4-1.2-12s.4-8.8,1.2-12h-48c-.8-3.4-1.2-7.4-1.2-12s.4-8.8,1.2-12h-12c-.8-3.4-1.2-7.4-1.2-12s.4-8.8,1.2-12h12c-.8-3.4-1.2-7.4-1.2-12s.4-8.8,1.2-12h66c.8,3.2,1.2,7.2,1.2,12s-.4,8.6-1.2,12h-54c.8,3.2,1.2,7.2,1.2,12s-.4,8.6-1.2,12h48c.8,3.2,1.2,7.2,1.2,12s-.4,8.6-1.2,12h12c.8,3.2,1.2,7.2,1.2,12s-.4,8.6-1.2,12Z"/>
  <path class="cls-1" d="M1155.66,651.39c0,4.6-.4,8.6-1.2,12h-42c-.8-3.4-1.2-7.4-1.2-12s.4-8.8,1.2-12h-12c-.8-3.4-1.2-7.4-1.2-12s.4-8.8,1.2-12h-18c.8,3.2,1.2,7.2,1.2,12s-.4,8.6-1.2,12c.8,3.2,1.2,7.2,1.2,12s-.4,8.6-1.2,12h-24c-.8-3.4-1.2-7.4-1.2-12s.4-8.8,1.2-12c-.8-3.4-1.2-7.4-1.2-12s.4-8.8,1.2-12c-.8-3.4-1.2-7.4-1.2-12s.4-8.8,1.2-12c-.8-3.4-1.2-7.4-1.2-12s.4-8.8,1.2-12c-.8-3.4-1.2-7.4-1.2-12s.4-8.8,1.2-12c-.8-3.4-1.2-7.4-1.2-12s.4-8.8,1.2-12c-.8-3.4-1.2-7.4-1.2-12s.4-8.8,1.2-12h24c.8,3.2,1.2,7.2,1.2,12s-.4,8.6-1.2,12c.8,3.2,1.2,7.2,1.2,12s-.4,8.6-1.2,12c.8,3.2,1.2,7.2,1.2,12s-.4,8.6-1.2,12c.8,3.2,1.2,7.2,1.2,12s-.4,8.6-1.2,12h18c-.8-3.4-1.2-7.4-1.2-12s.4-8.8,1.2-12h12c-.8-3.4-1.2-7.4-1.2-12s.4-8.8,1.2-12h36c.8,3.2,1.2,7.2,1.2,12s-.4,8.6-1.2,12h-24c.8,3.2,1.2,7.2,1.2,12s-.4,8.6-1.2,12h-12c.8,3.2,1.2,7.2,1.2,12s-.4,8.6-1.2,12h12c.8,3.2,1.2,7.2,1.2,12s-.4,8.6-1.2,12h30c.8,3.2,1.2,7.2,1.2,12Z"/>
  <path class="cls-1" d="M1274.46,567.39h-9c.8,3.2,1.2,7.2,1.2,12s-.4,8.6-1.2,12h-9c.8,3.2,1.2,7.2,1.2,12s-.4,8.6-1.2,12h-6c.8,3.2,1.2,7.2,1.2,12s-.4,8.6-1.2,12h-9c.8,3.2,1.2,7.2,1.2,12s-.4,8.6-1.2,12h-6c.8,3.2,1.2,7.2,1.2,12s-.4,8.6-1.2,12h-12c.8,3.2,1.2,7.2,1.2,12s-.4,8.6-1.2,12h-36c-.8-3.4-1.2-7.4-1.2-12s.4-8.8,1.2-12h24c-.8-3.4-1.2-7.4-1.2-12s.4-8.8,1.2-12c-.8-3.4-1.2-7.4-1.2-12s.4-8.8,1.2-12h-12c-.8-3.4-1.2-7.4-1.2-12s.4-8.8,1.2-12h-6c-.8-3.4-1.2-7.4-1.2-12s.4-8.8,1.2-12h-9c-.8-3.4-1.2-7.4-1.2-12s.4-8.8,1.2-12h-9c-.8-3.4-1.2-7.4-1.2-12s.4-8.8,1.2-12h24c.8,3.2,1.2,7.2,1.2,12s-.4,8.6-1.2,12h9c.8,3.2,1.2,7.2,1.2,12s-.4,8.6-1.2,12h9c.8,3.2,1.2,7.2,1.2,12s-.4,8.6-1.2,12c.8,3.2,1.2,7.2,1.2,12s-.4,8.6-1.2,12h9c-.8-3.4-1.2-7.4-1.2-12s.4-8.8,1.2-12h6c-.8-3.4-1.2-7.4-1.2-12s.4-8.8,1.2-12h9c-.8-3.4-1.2-7.4-1.2-12s.4-8.8,1.2-12h9c-.8-3.4-1.2-7.4-1.2-12s.4-8.8,1.2-12h24c.8,3.2,1.2,7.2,1.2,12s-.4,8.6-1.2,12Z"/>
</svg>
