<svg width="100" height="101" viewBox="0 0 100 101" fill="none" xmlns="http://www.w3.org/2000/svg">
<g opacity="0.5">
<mask id="mask0_404_4635" style="mask-type:alpha" maskUnits="userSpaceOnUse" x="9" y="25" width="81" height="6">
<path d="M87 28.0352H12" stroke="white" stroke-width="5" stroke-linecap="round" stroke-linejoin="round"/>
</mask>
<g mask="url(#mask0_404_4635)">
<line x1="-33.6153" y1="51.789" x2="42.7523" y2="-24.5785" stroke="white"/>
<line x1="11.6386" y1="97.0429" x2="88.0062" y2="20.6754" stroke="white"/>
<line x1="-10.9864" y1="74.416" x2="65.3812" y2="-1.95155" stroke="white"/>
<line x1="-56.2403" y1="29.1621" x2="20.1273" y2="-47.2055" stroke="white"/>
<line x1="-22.2989" y1="63.1035" x2="54.0687" y2="-13.2641" stroke="white"/>
<line x1="0.326134" y1="85.7304" x2="76.6937" y2="9.3629" stroke="white"/>
<line x1="-44.9278" y1="40.4746" x2="31.4398" y2="-35.893" stroke="white"/>
<line x1="-42.0996" y1="43.3027" x2="34.2679" y2="-33.0648" stroke="white"/>
<line x1="3.15426" y1="88.5586" x2="79.5218" y2="12.191" stroke="white"/>
<line x1="-19.4707" y1="65.9316" x2="56.8968" y2="-10.4359" stroke="white"/>
<line x1="-30.7871" y1="54.6171" x2="45.5804" y2="-21.7504" stroke="white"/>
<line x1="14.4707" y1="99.873" x2="90.8382" y2="23.5055" stroke="white"/>
<line x1="-8.15824" y1="77.2441" x2="68.2093" y2="0.876572" stroke="white"/>
<line x1="-53.4121" y1="31.9902" x2="22.9554" y2="-44.3773" stroke="white"/>
<line x1="-36.4434" y1="48.9609" x2="39.9241" y2="-27.4066" stroke="white"/>
<line x1="8.81051" y1="94.2148" x2="85.178" y2="17.8473" stroke="white"/>
<line x1="-13.8145" y1="71.5879" x2="62.553" y2="-4.77968" stroke="white"/>
<line x1="-59.0684" y1="26.3339" x2="17.2991" y2="-50.0336" stroke="white"/>
<line x1="-25.1309" y1="60.2734" x2="51.2366" y2="-16.0941" stroke="white"/>
<line x1="20.1269" y1="105.529" x2="96.4944" y2="29.1617" stroke="white"/>
<line x1="-2.50199" y1="82.9023" x2="73.8655" y2="6.53477" stroke="white"/>
<line x1="-47.7559" y1="37.6464" x2="28.6116" y2="-38.7211" stroke="white"/>
<line x1="-39.2715" y1="46.1328" x2="37.096" y2="-30.2348" stroke="white"/>
<line x1="5.98238" y1="91.3867" x2="82.3499" y2="15.0191" stroke="white"/>
<line x1="-16.6426" y1="68.7597" x2="59.7249" y2="-7.6078" stroke="white"/>
<line x1="-27.959" y1="57.4453" x2="48.4085" y2="-18.9223" stroke="white"/>
<line x1="17.2988" y1="102.701" x2="93.6663" y2="26.3336" stroke="white"/>
<line x1="-5.33012" y1="80.0722" x2="71.0374" y2="3.7047" stroke="white"/>
<line x1="-50.584" y1="34.8183" x2="25.7835" y2="-41.5492" stroke="white"/>
<line x1="-32.1973" y1="53.2031" x2="44.1702" y2="-23.1644" stroke="white"/>
<line x1="13.0527" y1="98.457" x2="89.4202" y2="22.0895" stroke="white"/>
<line x1="-9.5723" y1="75.83" x2="66.7952" y2="-0.537491" stroke="white"/>
<line x1="-54.8262" y1="30.5761" x2="21.5413" y2="-45.7914" stroke="white"/>
<line x1="-20.8848" y1="64.5175" x2="55.4827" y2="-11.85" stroke="white"/>
<line x1="1.7402" y1="87.1445" x2="78.1077" y2="10.777" stroke="white"/>
<line x1="-43.5137" y1="41.8886" x2="32.8538" y2="-34.4789" stroke="white"/>
<line x1="-40.6856" y1="44.7187" x2="35.6819" y2="-31.6488" stroke="white"/>
<line x1="4.57223" y1="89.9726" x2="80.9398" y2="13.6051" stroke="white"/>
<line x1="-18.0567" y1="67.3457" x2="58.3109" y2="-9.02187" stroke="white"/>
<line x1="-29.3731" y1="56.0312" x2="46.9944" y2="-20.3363" stroke="white"/>
<line x1="15.8847" y1="101.287" x2="92.2523" y2="24.9195" stroke="white"/>
<line x1="-6.74418" y1="78.6582" x2="69.6234" y2="2.29063" stroke="white"/>
<line x1="-51.9981" y1="33.4043" x2="24.3694" y2="-42.9633" stroke="white"/>
<line x1="-35.0293" y1="50.375" x2="41.3382" y2="-25.9926" stroke="white"/>
<line x1="10.2246" y1="95.6289" x2="86.5921" y2="19.2613" stroke="white"/>
<line x1="-12.4004" y1="73.0019" x2="63.9671" y2="-3.36562" stroke="white"/>
<line x1="-57.6543" y1="27.748" x2="18.7132" y2="-48.6195" stroke="white"/>
<line x1="-23.7168" y1="61.6875" x2="52.6507" y2="-14.6801" stroke="white"/>
<line x1="21.541" y1="106.943" x2="97.9085" y2="30.5758" stroke="white"/>
<line x1="-1.08793" y1="84.3164" x2="75.2796" y2="7.94884" stroke="white"/>
<line x1="-46.3418" y1="39.0605" x2="30.0257" y2="-37.307" stroke="white"/>
<line x1="-37.8575" y1="47.5468" x2="38.5101" y2="-28.8207" stroke="white"/>
<line x1="7.39645" y1="92.8007" x2="83.764" y2="16.4332" stroke="white"/>
<line x1="-15.2286" y1="70.1738" x2="61.139" y2="-6.19374" stroke="white"/>
<line x1="-26.545" y1="58.8593" x2="49.8226" y2="-17.5082" stroke="white"/>
<line x1="18.7129" y1="104.115" x2="95.0804" y2="27.7477" stroke="white"/>
<line x1="-3.91605" y1="81.4882" x2="72.4515" y2="5.12071" stroke="white"/>
<line x1="-49.17" y1="36.2324" x2="27.1976" y2="-40.1351" stroke="white"/>
</g>
<mask id="mask1_404_4635" style="mask-type:alpha" maskUnits="userSpaceOnUse" x="9" y="50" width="35" height="6">
<path d="M41.1667 53.0352H12" stroke="white" stroke-width="5" stroke-linecap="round" stroke-linejoin="round"/>
</mask>
<g mask="url(#mask1_404_4635)">
<line x1="-33.6153" y1="51.789" x2="42.7523" y2="-24.5785" stroke="white"/>
<line x1="11.6386" y1="97.0429" x2="88.0062" y2="20.6754" stroke="white"/>
<line x1="-10.9864" y1="74.416" x2="65.3812" y2="-1.95155" stroke="white"/>
<line x1="34.2675" y1="119.672" x2="110.635" y2="43.3043" stroke="white"/>
<line x1="-22.2989" y1="63.1035" x2="54.0687" y2="-13.2641" stroke="white"/>
<line x1="22.955" y1="108.357" x2="99.3226" y2="31.9899" stroke="white"/>
<line x1="0.326134" y1="85.7304" x2="76.6937" y2="9.3629" stroke="white"/>
<line x1="3.15426" y1="88.5586" x2="79.5218" y2="12.191" stroke="white"/>
<line x1="-19.4707" y1="65.9316" x2="56.8968" y2="-10.4359" stroke="white"/>
<line x1="25.7832" y1="111.186" x2="102.151" y2="34.818" stroke="white"/>
<line x1="-30.7871" y1="54.6171" x2="45.5804" y2="-21.7504" stroke="white"/>
<line x1="14.4707" y1="99.873" x2="90.8382" y2="23.5055" stroke="white"/>
<line x1="-8.15824" y1="77.2441" x2="68.2093" y2="0.876572" stroke="white"/>
<line x1="37.0957" y1="122.5" x2="113.463" y2="46.1324" stroke="white"/>
<line x1="8.81051" y1="94.2148" x2="85.178" y2="17.8473" stroke="white"/>
<line x1="-13.8145" y1="71.5879" x2="62.553" y2="-4.77968" stroke="white"/>
<line x1="31.4394" y1="116.842" x2="107.807" y2="40.4742" stroke="white"/>
<line x1="-25.1309" y1="60.2734" x2="51.2366" y2="-16.0941" stroke="white"/>
<line x1="20.1269" y1="105.529" x2="96.4944" y2="29.1617" stroke="white"/>
<line x1="-2.50199" y1="82.9023" x2="73.8655" y2="6.53477" stroke="white"/>
<line x1="42.7519" y1="128.156" x2="119.119" y2="51.7887" stroke="white"/>
<line x1="5.98238" y1="91.3867" x2="82.3499" y2="15.0191" stroke="white"/>
<line x1="-16.6426" y1="68.7597" x2="59.7249" y2="-7.6078" stroke="white"/>
<line x1="28.6113" y1="114.014" x2="104.979" y2="37.6461" stroke="white"/>
<line x1="-27.959" y1="57.4453" x2="48.4085" y2="-18.9223" stroke="white"/>
<line x1="17.2988" y1="102.701" x2="93.6663" y2="26.3336" stroke="white"/>
<line x1="-5.33012" y1="80.0722" x2="71.0374" y2="3.7047" stroke="white"/>
<line x1="39.9238" y1="125.328" x2="116.291" y2="48.9606" stroke="white"/>
<line x1="-32.1973" y1="53.2031" x2="44.1702" y2="-23.1644" stroke="white"/>
<line x1="13.0527" y1="98.457" x2="89.4202" y2="22.0895" stroke="white"/>
<line x1="-9.5723" y1="75.83" x2="66.7952" y2="-0.537491" stroke="white"/>
<line x1="35.6816" y1="121.086" x2="112.049" y2="44.7184" stroke="white"/>
<line x1="-20.8848" y1="64.5175" x2="55.4827" y2="-11.85" stroke="white"/>
<line x1="24.3691" y1="109.771" x2="100.737" y2="33.4039" stroke="white"/>
<line x1="1.7402" y1="87.1445" x2="78.1077" y2="10.777" stroke="white"/>
<line x1="4.57223" y1="89.9726" x2="80.9398" y2="13.6051" stroke="white"/>
<line x1="-18.0567" y1="67.3457" x2="58.3109" y2="-9.02187" stroke="white"/>
<line x1="27.1972" y1="112.6" x2="103.565" y2="36.232" stroke="white"/>
<line x1="-29.3731" y1="56.0312" x2="46.9944" y2="-20.3363" stroke="white"/>
<line x1="15.8847" y1="101.287" x2="92.2523" y2="24.9195" stroke="white"/>
<line x1="-6.74418" y1="78.6582" x2="69.6234" y2="2.29063" stroke="white"/>
<line x1="38.5097" y1="123.914" x2="114.877" y2="47.5465" stroke="white"/>
<line x1="-35.0293" y1="50.375" x2="41.3382" y2="-25.9926" stroke="white"/>
<line x1="10.2246" y1="95.6289" x2="86.5921" y2="19.2613" stroke="white"/>
<line x1="-12.4004" y1="73.0019" x2="63.9671" y2="-3.36562" stroke="white"/>
<line x1="32.8535" y1="118.258" x2="109.221" y2="41.8902" stroke="white"/>
<line x1="-23.7168" y1="61.6875" x2="52.6507" y2="-14.6801" stroke="white"/>
<line x1="21.541" y1="106.943" x2="97.9085" y2="30.5758" stroke="white"/>
<line x1="-1.08793" y1="84.3164" x2="75.2796" y2="7.94884" stroke="white"/>
<line x1="7.39645" y1="92.8007" x2="83.764" y2="16.4332" stroke="white"/>
<line x1="-15.2286" y1="70.1738" x2="61.139" y2="-6.19374" stroke="white"/>
<line x1="30.0254" y1="115.428" x2="106.393" y2="39.0602" stroke="white"/>
<line x1="-26.545" y1="58.8593" x2="49.8226" y2="-17.5082" stroke="white"/>
<line x1="18.7129" y1="104.115" x2="95.0804" y2="27.7477" stroke="white"/>
<line x1="-3.91605" y1="81.4882" x2="72.4515" y2="5.12071" stroke="white"/>
<line x1="41.3418" y1="126.742" x2="117.709" y2="50.3746" stroke="white"/>
</g>
<mask id="mask2_404_4635" style="mask-type:alpha" maskUnits="userSpaceOnUse" x="9" y="75" width="35" height="6">
<path d="M41.1667 78.0352H12" stroke="white" stroke-width="5" stroke-linecap="round" stroke-linejoin="round"/>
</mask>
<g mask="url(#mask2_404_4635)">
<line x1="11.6386" y1="97.0429" x2="88.0062" y2="20.6754" stroke="white"/>
<line x1="34.2675" y1="119.672" x2="110.635" y2="43.3043" stroke="white"/>
<line x1="22.955" y1="108.357" x2="99.3226" y2="31.9899" stroke="white"/>
<line x1="0.326134" y1="85.7304" x2="76.6937" y2="9.3629" stroke="white"/>
<line x1="3.15426" y1="88.5586" x2="79.5218" y2="12.191" stroke="white"/>
<line x1="25.7832" y1="111.186" x2="102.151" y2="34.818" stroke="white"/>
<line x1="14.4707" y1="99.873" x2="90.8382" y2="23.5055" stroke="white"/>
<line x1="-8.15824" y1="77.2441" x2="68.2093" y2="0.876572" stroke="white"/>
<line x1="37.0957" y1="122.5" x2="113.463" y2="46.1324" stroke="white"/>
<line x1="8.81051" y1="94.2148" x2="85.178" y2="17.8473" stroke="white"/>
<line x1="31.4394" y1="116.842" x2="107.807" y2="40.4742" stroke="white"/>
<line x1="20.1269" y1="105.529" x2="96.4944" y2="29.1617" stroke="white"/>
<line x1="-2.50199" y1="82.9023" x2="73.8655" y2="6.53477" stroke="white"/>
<line x1="42.7519" y1="128.156" x2="119.119" y2="51.7887" stroke="white"/>
<line x1="5.98238" y1="91.3867" x2="82.3499" y2="15.0191" stroke="white"/>
<line x1="28.6113" y1="114.014" x2="104.979" y2="37.6461" stroke="white"/>
<line x1="17.2988" y1="102.701" x2="93.6663" y2="26.3336" stroke="white"/>
<line x1="-5.33012" y1="80.0722" x2="71.0374" y2="3.7047" stroke="white"/>
<line x1="39.9238" y1="125.328" x2="116.291" y2="48.9606" stroke="white"/>
<line x1="13.0527" y1="98.457" x2="89.4202" y2="22.0895" stroke="white"/>
<line x1="-9.5723" y1="75.83" x2="66.7952" y2="-0.537491" stroke="white"/>
<line x1="35.6816" y1="121.086" x2="112.049" y2="44.7184" stroke="white"/>
<line x1="24.3691" y1="109.771" x2="100.737" y2="33.4039" stroke="white"/>
<line x1="1.7402" y1="87.1445" x2="78.1077" y2="10.777" stroke="white"/>
<line x1="4.57223" y1="89.9726" x2="80.9398" y2="13.6051" stroke="white"/>
<line x1="27.1972" y1="112.6" x2="103.565" y2="36.232" stroke="white"/>
<line x1="15.8847" y1="101.287" x2="92.2523" y2="24.9195" stroke="white"/>
<line x1="-6.74418" y1="78.6582" x2="69.6234" y2="2.29063" stroke="white"/>
<line x1="38.5097" y1="123.914" x2="114.877" y2="47.5465" stroke="white"/>
<line x1="10.2246" y1="95.6289" x2="86.5921" y2="19.2613" stroke="white"/>
<line x1="32.8535" y1="118.258" x2="109.221" y2="41.8902" stroke="white"/>
<line x1="21.541" y1="106.943" x2="97.9085" y2="30.5758" stroke="white"/>
<line x1="-1.08793" y1="84.3164" x2="75.2796" y2="7.94884" stroke="white"/>
<line x1="7.39645" y1="92.8007" x2="83.764" y2="16.4332" stroke="white"/>
<line x1="30.0254" y1="115.428" x2="106.393" y2="39.0602" stroke="white"/>
<line x1="18.7129" y1="104.115" x2="95.0804" y2="27.7477" stroke="white"/>
<line x1="-3.91605" y1="81.4882" x2="72.4515" y2="5.12071" stroke="white"/>
<line x1="41.3418" y1="126.742" x2="117.709" y2="50.3746" stroke="white"/>
</g>
<mask id="mask3_404_4635" style="mask-type:alpha" maskUnits="userSpaceOnUse" x="55" y="50" width="31" height="31">
<path d="M70.332 78.0352C77.2356 78.0352 82.832 72.4387 82.832 65.5352C82.832 58.6316 77.2356 53.0352 70.332 53.0352C63.4285 53.0352 57.832 58.6316 57.832 65.5352C57.832 72.4387 63.4285 78.0352 70.332 78.0352Z" stroke="white" stroke-width="5" stroke-linecap="round" stroke-linejoin="round"/>
</mask>
<g mask="url(#mask3_404_4635)">
<line x1="56.8964" y1="142.299" x2="133.264" y2="65.9313" stroke="white"/>
<line x1="11.6386" y1="97.0429" x2="88.0062" y2="20.6754" stroke="white"/>
<line x1="-10.9864" y1="74.416" x2="65.3812" y2="-1.95155" stroke="white"/>
<line x1="34.2675" y1="119.672" x2="110.635" y2="43.3043" stroke="white"/>
<line x1="68.2089" y1="153.613" x2="144.576" y2="77.2457" stroke="white"/>
<line x1="22.955" y1="108.357" x2="99.3226" y2="31.9899" stroke="white"/>
<line x1="0.326134" y1="85.7304" x2="76.6937" y2="9.3629" stroke="white"/>
<line x1="45.58" y1="130.984" x2="121.948" y2="54.6168" stroke="white"/>
<line x1="48.4082" y1="133.812" x2="124.776" y2="57.4449" stroke="white"/>
<line x1="3.15426" y1="88.5586" x2="79.5218" y2="12.191" stroke="white"/>
<line x1="-19.4707" y1="65.9316" x2="56.8968" y2="-10.4359" stroke="white"/>
<line x1="71.0371" y1="156.441" x2="147.405" y2="80.0738" stroke="white"/>
<line x1="25.7832" y1="111.186" x2="102.151" y2="34.818" stroke="white"/>
<line x1="59.7246" y1="145.127" x2="136.092" y2="68.7594" stroke="white"/>
<line x1="14.4707" y1="99.873" x2="90.8382" y2="23.5055" stroke="white"/>
<line x1="-8.15824" y1="77.2441" x2="68.2093" y2="0.876572" stroke="white"/>
<line x1="37.0957" y1="122.5" x2="113.463" y2="46.1324" stroke="white"/>
<line x1="54.0683" y1="139.471" x2="130.436" y2="63.1031" stroke="white"/>
<line x1="8.81051" y1="94.2148" x2="85.178" y2="17.8473" stroke="white"/>
<line x1="-13.8145" y1="71.5879" x2="62.553" y2="-4.77968" stroke="white"/>
<line x1="31.4394" y1="116.842" x2="107.807" y2="40.4742" stroke="white"/>
<line x1="65.3808" y1="150.783" x2="141.748" y2="74.4156" stroke="white"/>
<line x1="20.1269" y1="105.529" x2="96.4944" y2="29.1617" stroke="white"/>
<line x1="-2.50199" y1="82.9023" x2="73.8655" y2="6.53477" stroke="white"/>
<line x1="42.7519" y1="128.156" x2="119.119" y2="51.7887" stroke="white"/>
<line x1="51.2402" y1="136.643" x2="127.608" y2="60.275" stroke="white"/>
<line x1="5.98238" y1="91.3867" x2="82.3499" y2="15.0191" stroke="white"/>
<line x1="-16.6426" y1="68.7597" x2="59.7249" y2="-7.6078" stroke="white"/>
<line x1="28.6113" y1="114.014" x2="104.979" y2="37.6461" stroke="white"/>
<line x1="62.5527" y1="147.955" x2="138.92" y2="71.5875" stroke="white"/>
<line x1="17.2988" y1="102.701" x2="93.6663" y2="26.3336" stroke="white"/>
<line x1="-5.33012" y1="80.0722" x2="71.0374" y2="3.7047" stroke="white"/>
<line x1="39.9238" y1="125.328" x2="116.291" y2="48.9606" stroke="white"/>
<line x1="58.3105" y1="143.713" x2="134.678" y2="67.3453" stroke="white"/>
<line x1="13.0527" y1="98.457" x2="89.4202" y2="22.0895" stroke="white"/>
<line x1="-9.5723" y1="75.83" x2="66.7952" y2="-0.537491" stroke="white"/>
<line x1="35.6816" y1="121.086" x2="112.049" y2="44.7184" stroke="white"/>
<line x1="-20.8848" y1="64.5175" x2="55.4827" y2="-11.85" stroke="white"/>
<line x1="69.623" y1="155.027" x2="145.991" y2="78.6598" stroke="white"/>
<line x1="24.3691" y1="109.771" x2="100.737" y2="33.4039" stroke="white"/>
<line x1="1.7402" y1="87.1445" x2="78.1077" y2="10.777" stroke="white"/>
<line x1="46.9941" y1="132.398" x2="123.362" y2="56.0309" stroke="white"/>
<line x1="49.8261" y1="135.228" x2="126.194" y2="58.8609" stroke="white"/>
<line x1="4.57223" y1="89.9726" x2="80.9398" y2="13.6051" stroke="white"/>
<line x1="-18.0567" y1="67.3457" x2="58.3109" y2="-9.02187" stroke="white"/>
<line x1="27.1972" y1="112.6" x2="103.565" y2="36.232" stroke="white"/>
<line x1="61.1386" y1="146.541" x2="137.506" y2="70.1734" stroke="white"/>
<line x1="15.8847" y1="101.287" x2="92.2523" y2="24.9195" stroke="white"/>
<line x1="-6.74418" y1="78.6582" x2="69.6234" y2="2.29063" stroke="white"/>
<line x1="38.5097" y1="123.914" x2="114.877" y2="47.5465" stroke="white"/>
<line x1="55.4824" y1="140.885" x2="131.85" y2="64.5172" stroke="white"/>
<line x1="10.2246" y1="95.6289" x2="86.5921" y2="19.2613" stroke="white"/>
<line x1="-12.4004" y1="73.0019" x2="63.9671" y2="-3.36562" stroke="white"/>
<line x1="32.8535" y1="118.258" x2="109.221" y2="41.8902" stroke="white"/>
<line x1="66.7949" y1="152.197" x2="143.162" y2="75.8297" stroke="white"/>
<line x1="21.541" y1="106.943" x2="97.9085" y2="30.5758" stroke="white"/>
<line x1="-1.08793" y1="84.3164" x2="75.2796" y2="7.94884" stroke="white"/>
<line x1="44.166" y1="129.57" x2="120.534" y2="53.2027" stroke="white"/>
<line x1="52.6543" y1="138.057" x2="129.022" y2="61.6891" stroke="white"/>
<line x1="7.39645" y1="92.8007" x2="83.764" y2="16.4332" stroke="white"/>
<line x1="-15.2286" y1="70.1738" x2="61.139" y2="-6.19374" stroke="white"/>
<line x1="30.0254" y1="115.428" x2="106.393" y2="39.0602" stroke="white"/>
<line x1="63.9668" y1="149.369" x2="140.334" y2="73.0016" stroke="white"/>
<line x1="18.7129" y1="104.115" x2="95.0804" y2="27.7477" stroke="white"/>
<line x1="-3.91605" y1="81.4882" x2="72.4515" y2="5.12071" stroke="white"/>
<line x1="41.3418" y1="126.742" x2="117.709" y2="50.3746" stroke="white"/>
</g>
<mask id="mask4_404_4635" style="mask-type:alpha" maskUnits="userSpaceOnUse" x="76" y="71" width="14" height="14">
<path d="M86.9987 82.2018L79.082 74.2852" stroke="white" stroke-width="5" stroke-linecap="round" stroke-linejoin="round"/>
</mask>
<g mask="url(#mask4_404_4635)">
<line x1="56.8964" y1="142.299" x2="133.264" y2="65.9313" stroke="white"/>
<line x1="11.6386" y1="97.0429" x2="88.0062" y2="20.6754" stroke="white"/>
<line x1="34.2675" y1="119.672" x2="110.635" y2="43.3043" stroke="white"/>
<line x1="68.2089" y1="153.613" x2="144.576" y2="77.2457" stroke="white"/>
<line x1="22.955" y1="108.357" x2="99.3226" y2="31.9899" stroke="white"/>
<line x1="0.326134" y1="85.7304" x2="76.6937" y2="9.3629" stroke="white"/>
<line x1="45.58" y1="130.984" x2="121.948" y2="54.6168" stroke="white"/>
<line x1="48.4082" y1="133.812" x2="124.776" y2="57.4449" stroke="white"/>
<line x1="3.15426" y1="88.5586" x2="79.5218" y2="12.191" stroke="white"/>
<line x1="71.0371" y1="156.441" x2="147.405" y2="80.0738" stroke="white"/>
<line x1="25.7832" y1="111.186" x2="102.151" y2="34.818" stroke="white"/>
<line x1="59.7246" y1="145.127" x2="136.092" y2="68.7594" stroke="white"/>
<line x1="14.4707" y1="99.873" x2="90.8382" y2="23.5055" stroke="white"/>
<line x1="37.0957" y1="122.5" x2="113.463" y2="46.1324" stroke="white"/>
<line x1="54.0683" y1="139.471" x2="130.436" y2="63.1031" stroke="white"/>
<line x1="8.81051" y1="94.2148" x2="85.178" y2="17.8473" stroke="white"/>
<line x1="31.4394" y1="116.842" x2="107.807" y2="40.4742" stroke="white"/>
<line x1="65.3808" y1="150.783" x2="141.748" y2="74.4156" stroke="white"/>
<line x1="20.1269" y1="105.529" x2="96.4944" y2="29.1617" stroke="white"/>
<line x1="42.7519" y1="128.156" x2="119.119" y2="51.7887" stroke="white"/>
<line x1="51.2402" y1="136.643" x2="127.608" y2="60.275" stroke="white"/>
<line x1="5.98238" y1="91.3867" x2="82.3499" y2="15.0191" stroke="white"/>
<line x1="73.8652" y1="159.269" x2="150.233" y2="82.902" stroke="white"/>
<line x1="28.6113" y1="114.014" x2="104.979" y2="37.6461" stroke="white"/>
<line x1="62.5527" y1="147.955" x2="138.92" y2="71.5875" stroke="white"/>
<line x1="17.2988" y1="102.701" x2="93.6663" y2="26.3336" stroke="white"/>
<line x1="39.9238" y1="125.328" x2="116.291" y2="48.9606" stroke="white"/>
<line x1="58.3105" y1="143.713" x2="134.678" y2="67.3453" stroke="white"/>
<line x1="13.0527" y1="98.457" x2="89.4202" y2="22.0895" stroke="white"/>
<line x1="35.6816" y1="121.086" x2="112.049" y2="44.7184" stroke="white"/>
<line x1="69.623" y1="155.027" x2="145.991" y2="78.6598" stroke="white"/>
<line x1="24.3691" y1="109.771" x2="100.737" y2="33.4039" stroke="white"/>
<line x1="1.7402" y1="87.1445" x2="78.1077" y2="10.777" stroke="white"/>
<line x1="46.9941" y1="132.398" x2="123.362" y2="56.0309" stroke="white"/>
<line x1="49.8261" y1="135.228" x2="126.194" y2="58.8609" stroke="white"/>
<line x1="4.57223" y1="89.9726" x2="80.9398" y2="13.6051" stroke="white"/>
<line x1="72.4511" y1="157.855" x2="148.819" y2="81.4879" stroke="white"/>
<line x1="27.1972" y1="112.6" x2="103.565" y2="36.232" stroke="white"/>
<line x1="61.1386" y1="146.541" x2="137.506" y2="70.1734" stroke="white"/>
<line x1="15.8847" y1="101.287" x2="92.2523" y2="24.9195" stroke="white"/>
<line x1="38.5097" y1="123.914" x2="114.877" y2="47.5465" stroke="white"/>
<line x1="55.4824" y1="140.885" x2="131.85" y2="64.5172" stroke="white"/>
<line x1="10.2246" y1="95.6289" x2="86.5921" y2="19.2613" stroke="white"/>
<line x1="32.8535" y1="118.258" x2="109.221" y2="41.8902" stroke="white"/>
<line x1="66.7949" y1="152.197" x2="143.162" y2="75.8297" stroke="white"/>
<line x1="21.541" y1="106.943" x2="97.9085" y2="30.5758" stroke="white"/>
<line x1="44.166" y1="129.57" x2="120.534" y2="53.2027" stroke="white"/>
<line x1="52.6543" y1="138.057" x2="129.022" y2="61.6891" stroke="white"/>
<line x1="7.39645" y1="92.8007" x2="83.764" y2="16.4332" stroke="white"/>
<line x1="75.2793" y1="160.684" x2="151.647" y2="84.316" stroke="white"/>
<line x1="30.0254" y1="115.428" x2="106.393" y2="39.0602" stroke="white"/>
<line x1="63.9668" y1="149.369" x2="140.334" y2="73.0016" stroke="white"/>
<line x1="18.7129" y1="104.115" x2="95.0804" y2="27.7477" stroke="white"/>
<line x1="41.3418" y1="126.742" x2="117.709" y2="50.3746" stroke="white"/>
</g>
</g>
</svg>
